<svg width="544" height="381" viewBox="0 0 544 381" fill="none" xmlns="http://www.w3.org/2000/svg">
<path d="M471.584 133.336C471.321 139.009 475.144 141.155 479.659 142.782C482.81 143.926 486.133 144.676 488.995 146.602C494.938 150.551 500.002 155.684 503.87 161.679C509.861 170.988 516.996 179.463 523.549 188.342C527.97 194.314 531.798 200.701 534.307 207.759C536.597 214.214 536.266 220.768 534.475 227.265C531.104 239.476 524.662 250.061 517.038 260.042C511.609 267.152 505.812 273.911 499.149 279.899C498.441 280.534 497.658 281.096 496.913 281.694C495.193 279.468 492.966 277.685 490.418 276.493C490.292 274.452 492.14 273.413 492.807 271.77C495.117 268.622 493.857 265.048 493.962 261.642C493.962 260.708 493.521 259.758 494.056 258.84C495.884 258.488 495.632 260.057 495.831 260.939C496.246 262.718 495.878 264.581 496.104 266.712C498.619 264.03 500.194 260.939 501.88 258.011C505.928 250.885 509.913 243.706 512.381 235.824C514.203 230.051 515.531 224.252 514.681 218.102C514.403 216.115 513.749 214.198 512.754 212.456C507.74 203.663 501.566 195.584 494.398 188.437C493.6 187.634 492.985 186.196 491.421 187.267C490.586 184.26 488.139 182.643 485.892 180.854C484.689 179.894 484.023 180.418 483.608 181.683C480.106 192.394 478.462 203.146 479.838 214.586C481.282 226.546 481.009 238.684 476.346 250.171C473.238 257.832 468.544 264.282 461.645 269.152C457.113 272.358 452.099 274.552 447.227 277.071C445.454 277.53 443.582 277.42 441.876 276.756C440.464 276.184 438.983 276.283 437.518 276.31C434.833 276.366 432.152 276.086 429.537 275.475C426.875 274.127 427.038 271.209 426.219 268.973C424.581 264.502 423.069 259.968 421.493 255.476C421.462 254.217 421.493 252.942 420.853 251.803C420.479 250.017 419.923 248.275 419.194 246.602C418.343 244.01 417.204 241.496 416.899 238.731C417.64 233.515 418.999 228.419 420.05 223.261C420.438 221.329 420.737 219.341 421.472 217.488C421.606 217.076 421.646 216.638 421.587 216.209C421.529 215.779 421.375 215.368 421.136 215.006C423.604 208.11 424.087 200.895 424.812 193.685C425.557 186.233 426.082 178.755 427.122 171.329C427.8 165.876 429.093 160.518 430.976 155.355C431.701 153.45 433.36 152.107 433.806 150.108C439.076 144.522 445.918 140.668 453.427 139.056C455.638 138.568 456.814 137.482 456.41 135.099C458.51 133.771 460.915 133.394 463.341 133.152C465.172 133.221 467.005 133.136 468.822 132.9C469.809 132.69 470.754 132.638 471.584 133.336Z" fill="#D64F82"/>
<path d="M207.134 124.446C207.102 123.234 206.209 122.599 205.375 121.99C199.599 117.761 194.779 112.476 190.148 107.061C185.517 101.645 181.595 95.736 178.896 89.1186C177.379 85.3927 175.782 81.6511 175.562 77.5054C175.462 75.6215 174.338 73.9422 174.512 71.9166C175.383 62.4707 177.631 53.5496 182.913 45.4052C190.563 33.6188 200.891 25.1438 213.476 19.0932C219.153 16.4411 225.09 14.3869 231.192 12.9639C239.829 10.8648 248.755 10.8333 257.382 11.8409C269.458 13.2472 280.836 17.4244 290.46 25.3537C291.694 26.3718 293.059 27.1274 294.76 26.8283C294.784 26.9354 294.785 27.0463 294.762 27.1537C294.74 27.261 294.695 27.3624 294.63 27.4512C294.566 27.5399 294.483 27.614 294.388 27.6685C294.293 27.7231 294.187 27.7569 294.078 27.7677C291.736 27.8621 289.568 29.0061 287.252 29.0638C283.325 29.1583 279.665 30.7221 275.769 30.89C275.444 30.89 275.176 31.2259 274.856 31.3623C269.19 32.1023 263.583 33.1728 257.991 34.343C255.817 34.7996 255.365 35.3506 255.848 37.5546C256.783 42.0519 257.534 46.5859 258.4 51.0885C259.036 54.384 259.235 57.8108 260.443 60.9961C260.884 62.1716 260.779 63.4048 260.863 64.6118C261.052 67.4876 262.254 68.5843 264.89 67.7604C268.324 66.7109 271.973 66.8421 275.365 65.6614C275.778 65.508 276.222 65.4547 276.66 65.5058C277.098 65.5568 277.518 65.7109 277.885 65.9552C278.762 67.5978 277.68 69.0094 277.197 70.4C275.349 75.8578 274.436 81.5885 274.498 87.3501C274.498 97.5517 277.192 106.94 283.167 115.331C283.939 116.417 285.462 117.388 284.742 119.162C281.702 120.054 279.361 122.216 276.604 123.654C269.526 127.327 262.286 130.366 254.268 131.284C253.077 131.501 251.979 132.071 251.118 132.921C249.8 133.163 248.461 133.005 248.141 131.562C247.747 129.767 246.754 127.7 248.492 126.125C250.806 123.997 253.369 122.157 256.127 120.647C257.46 119.933 258.652 120.552 259.912 120.862C261.287 121.163 262.724 120.996 263.992 120.386C265.261 119.776 266.288 118.76 266.911 117.498C268.056 114.927 267.2 111.154 265.137 109.663C262.511 107.764 259.613 107.921 257.229 110.025C256.526 110.629 256.001 111.412 255.711 112.292C255.42 113.171 255.375 114.113 255.581 115.016C256.279 118.789 254.368 120.941 251.343 122.525C250.444 123.063 249.586 123.667 248.776 124.331C248.188 124.788 247.49 125.081 246.752 125.18C246.014 125.278 245.263 125.179 244.575 124.892C238.464 122.751 234.489 126.23 235.649 132.669C235.721 132.875 235.73 133.097 235.675 133.307C235.62 133.517 235.503 133.706 235.34 133.85C230.021 133.409 224.886 135.577 219.551 134.952C219.297 135.193 218.992 135.375 218.659 135.484C218.325 135.593 217.972 135.626 217.624 135.582C211.691 135.319 205.795 136.133 199.877 136.143C199.615 136.167 199.352 136.167 199.09 136.143C198.208 135.986 196.869 136.332 196.732 135.125C196.617 134.076 197.83 133.693 198.701 133.31C201.085 132.26 203.547 131.384 205.501 129.515C207.034 128.088 207.905 126.545 207.134 124.446Z" fill="#F5F5F5"/>
<path d="M415.944 298.9C415.509 298.938 415.072 298.938 414.637 298.9C412.123 298.417 411.31 299.763 411.331 303.117C411.446 319.032 411.331 334.954 411.441 350.869C411.441 354.079 410.753 354.886 408.365 354.879C372.808 354.778 337.252 354.75 301.698 354.796C296.355 353.147 290.923 352.112 285.553 350.6C276.242 347.991 266.942 345.258 257.531 343.333C254.014 342.544 250.543 341.432 247.144 340.006C244.063 338.778 240.846 338.453 237.581 338.295C233.193 338.081 229.11 335.651 224.838 334.457C210.052 330.316 195.199 326.686 180.408 322.621C167.668 319.115 154.918 315.68 142.156 312.317C137.79 311.164 133.418 310.06 128.977 309.473C127.928 309.388 126.901 309.034 125.954 308.431C124.175 307.189 122.396 306.664 120.427 307.679C120.015 307.9 119.568 307.985 119.125 307.926C118.682 307.867 118.257 307.666 117.887 307.341C113.163 302.889 107.615 303.455 102.288 302.592C101.401 302.447 100.273 302.723 99.9787 300.998C102.283 298.106 105.306 298.017 108.156 297.74C109.762 297.589 111.457 297.92 113.116 297.92H406.817C408.126 298.019 409.439 297.952 410.738 297.72C411.048 297.572 411.367 297.461 411.693 297.388C413.12 297.257 414.564 296.947 415.918 297.899C415.98 297.953 416.032 298.026 416.068 298.112C416.105 298.197 416.125 298.293 416.127 298.391C416.13 298.489 416.115 298.586 416.083 298.675C416.051 298.763 416.003 298.84 415.944 298.9Z" fill="#C9E0E3"/>
<path d="M284.779 119.167C282.359 114.922 279.361 111.044 277.428 106.457C274.278 98.8007 273.538 90.9239 274.021 82.7584C274.362 76.986 276.063 71.5756 277.859 66.1704C277.623 65.4358 277.959 64.8218 278.253 64.1973C279.988 60.8886 282.181 57.8411 284.769 55.145C288.785 50.8524 293.779 49.1993 299.386 48.6798C303.277 48.3177 307.115 47.5516 311.016 47.2472C311.44 47.3243 311.839 47.5045 312.177 47.772C318.761 47.1947 325.35 46.6909 331.924 46.0087C334.266 45.7726 336.65 45.4315 338.944 45.4157C347.828 45.3528 356.607 43.8834 365.512 44.0094C373.682 44.1248 377.263 47.8664 379.689 53.6861C382.765 60.9909 384.047 68.7943 384.593 76.6973C384.246 77.8991 383.28 78.2297 382.198 78.3871C376.16 79.2635 370.09 79.9614 364.126 81.2051C353.625 83.3619 346.122 88.6044 344.058 99.1733C343.407 102.506 343.622 105.953 344.058 109.343C344.221 110.54 344.583 111.784 343.491 112.786C334.387 112.434 325.403 114.098 316.377 114.838C312.749 115.132 308.769 114.596 305.183 116.412C302.71 117.671 301.507 119.429 301.507 122.111C301.507 123.507 301.287 124.976 301.644 126.283C302.426 129.148 301.014 129.138 298.977 128.655C293.516 127.364 289.321 124.142 285.682 120.043C285.4 119.733 285.098 119.44 284.779 119.167Z" fill="#F6DE68"/>
<path d="M100.032 300.15C103.529 299.929 106.947 300.863 110.455 300.748C113.08 300.659 115.154 302.412 117.375 303.577C118.562 304.196 119.696 304.773 120.998 303.708C121.383 303.404 121.856 303.232 122.347 303.217C122.837 303.202 123.319 303.345 123.723 303.624C127.356 305.912 131.599 305.597 135.552 306.316C143.833 307.827 152.071 309.533 160.314 311.18C174.942 314.098 189.556 317.072 204.157 320.102C213.917 322.143 223.788 323.686 233.376 326.572C235.615 327.299 237.978 327.567 240.323 327.359C243.137 327.05 245.962 327.915 248.44 328.839C255.854 331.599 263.756 331.689 271.301 333.646C277.339 335.22 283.519 336.244 289.641 337.503C292.865 338.164 296.089 338.831 299.323 339.455C300.2 339.623 301.03 339.807 301.618 340.547C285.257 340.547 268.896 340.547 252.541 340.547C248.781 340.547 244.938 341.754 241.409 341.255C236.757 340.594 232.048 343.087 227.569 340.662C227.325 340.56 227.057 340.531 226.797 340.578C221.924 341.218 217.005 340.232 212.143 341.024C209.596 341.439 207.118 340.573 204.598 340.573C169.342 340.573 134.086 340.573 98.83 340.573C98.4782 340.573 98.1264 340.573 97.7798 340.573C93.7369 340.856 93.7369 340.856 93.7369 336.621V301.21C95.8686 299.189 97.3178 298.948 100.032 300.15Z" fill="#DBE8EB"/>
<path d="M343.533 112.744C343.843 109.774 343.008 106.893 342.893 103.933C342.535 92.7919 349.76 84.3064 360.219 81.3677C367.255 79.3945 374.559 78.9485 381.747 77.6943C382.759 77.5103 383.732 77.1554 384.624 76.6447C387.501 76.8441 390.179 75.5952 392.631 74.6401C402.492 70.762 414.752 75.2908 418.469 85.083C420.354 90.0421 421.767 95.2426 421.368 100.747C421.121 104.137 421.368 107.569 421.31 110.965C421.236 116.323 419.687 121.046 414.852 123.984C412.982 125.118 413.276 126.367 413.922 127.894C414.059 128.209 414.384 128.471 414.447 128.791C414.684 130.093 416.957 131.258 415.66 132.297C414.647 133.105 412.557 132.486 411.061 131.704C409.383 130.76 407.99 129.382 407.028 127.715C406.104 126.251 404.965 125.921 403.353 125.931C393.471 125.994 383.584 126.146 373.713 125.889C367.119 125.716 360.524 125.092 353.971 124.315C350.873 123.948 348.689 121.917 347.109 119.067C345.917 116.958 345.381 114.47 343.533 112.744Z" fill="#B1CBDD"/>
<path d="M24.078 331.461C17.2848 331.432 10.4915 331.352 3.73477 331.409C1.85355 331.409 1.16901 330.995 1.14811 329.167C1.00179 318.026 0.91817 306.886 0.400836 295.759C0.092526 289.111 0.0193785 282.491 0.134342 275.861C0.287092 266.795 0.995385 257.744 2.25593 248.75C2.77849 245.207 3.9438 241.746 4.8217 238.246C5.79889 237.605 6.20648 238.45 6.72381 238.882C14.5936 245.459 22.7768 251.671 31.8537 256.852C33.4736 257.773 35.2921 258.371 36.865 259.364C38.6835 260.508 37.8579 257.773 39.1225 258.101C39.922 258.623 40.0422 259.454 40.1206 260.214C40.8104 267.18 42.4303 274.076 42.0279 281.109C41.8032 285.074 39.4674 288.261 37.4346 291.556C33.39 298.091 29.1259 304.521 26.8424 311.82C26.1474 314.047 25.6196 316.26 26.2571 318.572C26.1578 322.656 24.4229 326.555 24.611 330.672C24.5907 330.831 24.5325 330.984 24.4405 331.12C24.3484 331.256 24.2247 331.373 24.078 331.461Z" fill="#C19D7E"/>
<path d="M111.489 170.112C111.064 173.596 113.185 175.664 115.254 178.151C120.504 184.448 126.07 190.52 131.583 196.597C135.048 200.417 138.356 204.51 142.961 207.15C152.16 212.398 161.396 217.598 170.968 222.185C174.937 224.084 178.885 226.036 182.876 227.894C184.682 228.734 186.478 229.085 188.442 228.461C191.807 227.411 195.267 226.545 198.549 225.312C199.397 224.958 200.337 224.892 201.227 225.123C206.777 226.388 212.332 227.626 217.908 228.797C219.352 229.096 220.533 230.187 222.502 229.904C221.111 231.756 219.598 232.092 217.908 231.872C215.324 231.531 212.715 231.253 210.174 230.691C208.656 230.35 207.921 230.612 207.464 232.134C206.026 236.883 201.815 238.641 197.788 239.969C195.96 240.573 193.309 239.476 191.298 238.563C186.363 236.321 181.274 234.434 176.071 232.916C169.77 231.09 163.501 229.243 157.306 227.144C152.822 225.617 148.38 223.827 143.917 222.342C136.844 219.996 130.585 216.307 124.49 212.272C118.583 208.378 112.744 204.4 106.685 200.296C105.22 204.962 104.516 209.742 103.713 214.56C102.91 219.377 102.994 224.121 102.437 228.844C101.986 232.654 101.429 236.453 101.744 240.242C102.364 247.678 102.595 255.145 103.923 262.534C104.448 265.394 105.713 268.17 105.335 271.188C105.158 271.437 104.913 271.631 104.63 271.747C104.346 271.863 104.036 271.896 103.734 271.844C95.6428 271.691 87.1632 264.901 85.189 257.003C85.3045 254.075 87.1474 251.462 86.7274 248.439C87.0634 245.574 85.7298 243.191 84.5221 240.761C84.0601 239.848 83.283 239.03 83.472 237.875C85.7035 233.226 87.0792 228.246 89.0744 223.502C91.5749 217.337 94.9066 211.542 98.977 206.279C100.29 204.626 101.224 202.742 102.322 200.952C103.66 198.764 103.582 198.176 101.371 196.712C98.5744 194.763 95.8987 192.646 93.3589 190.373C91.3216 188.641 91.3269 187.833 93.7212 186.91C99.9641 184.506 104.485 179.857 109.226 175.464C110.155 174.609 110.355 173.586 110.439 172.41C110.497 171.565 110.103 170.395 111.489 170.112Z" fill="#F5B291"/>
<path d="M493.532 272.078L490.936 277.422C490.406 279.573 488.858 280.328 487.554 281.364C483.505 284.597 483.315 285.492 485.816 290.408C487.178 293.08 488.524 295.826 489.966 298.465C490.851 300.081 491.556 300.081 492.218 298.378C492.881 296.674 493.713 295.131 494.041 293.254C494.216 292.232 494.311 290.976 495.504 290.896C495.529 312.784 495.564 334.675 495.61 356.568C495.61 358.505 494.995 359.153 493.564 359.046C492.6 358.972 491.625 359.046 490.655 359.046C467.569 359.237 444.484 359.422 421.398 359.6C420.418 359.6 419.278 360.228 418.452 358.932C419.655 357.596 421.101 357.997 422.506 357.99C432.835 357.99 443.175 357.99 453.493 357.99C456.673 357.99 457.049 357.463 456.519 353.528C455.401 345.212 454.961 336.775 453.922 328.465C452.613 318.05 451.967 307.549 450.695 297.129C450.075 292.025 449.163 286.868 449.28 281.624C449.312 280.188 449.206 278.712 449.916 277.429C450.976 276.38 452.242 276.541 453.461 276.534C457.701 276.494 461.941 276.48 466.138 276.534C474.225 276.7 482.28 275.208 489.987 272.118C491.148 271.551 492.356 270.969 493.532 272.078Z" fill="#D2B499"/>
<path d="M207.134 124.446C209.092 125.412 208.898 126.713 207.769 128.209C205.669 131.006 202.744 132.648 199.547 133.808C198.643 134.139 197.761 134.333 197.341 134.952H219.588C222.555 141.732 221.72 148.921 221.163 155.864C220.57 163.332 215.75 168.338 209.029 171.539C205.915 173.019 202.576 173.04 199.326 173.061C191.125 173.108 182.918 173.176 174.706 172.882C164.31 172.505 156.04 163.394 155.762 153.681C155.641 149.331 155.363 144.965 156.114 140.619C157.484 132.716 162.278 127.773 169.508 124.876C169.814 124.731 170.111 124.567 170.395 124.383C172.486 123.791 174.656 123.531 176.827 123.612C184.241 123.661 191.653 123.661 199.063 123.612C201.594 123.612 204.109 123.612 206.567 124.31L207.134 124.446Z" fill="#D64F82"/>
<path d="M382.429 211.574L387.853 214.03C387.785 218.459 389.25 222.62 390.19 226.861C391.655 233.515 393.34 240.153 393.083 247.012C392.825 253.87 390.935 260.047 385.207 264.56C382.12 267 378.528 268.312 374.963 269.713C372.611 270.632 370.112 271.177 367.906 272.484C366.651 272.605 366.331 271.644 365.979 270.773C364.908 268.327 363.715 265.937 362.404 263.61C360.771 260.131 358.959 256.731 357.468 253.194C356.476 250.827 354.927 249.982 352.412 250.003C341.911 250.087 331.409 250.04 320.95 250.04H319.375C315.096 249.987 313.988 248.171 316.157 244.524C316.682 243.674 316.682 242.682 317.301 241.9C319.134 238.227 320.704 234.412 322.946 230.927C327.283 224.179 333.856 220.301 340.703 216.759C344.83 214.607 349.345 213.432 353.604 211.616C353.115 215.436 354.05 219.052 355.226 222.636C355.515 223.812 354.323 225.061 355.394 226.21C355.993 228.309 357.379 228.43 359.07 227.627C361.359 226.54 363.758 225.659 365.79 224.1C367.229 222.998 368.631 222.982 370.143 223.922C372.296 225.26 374.543 226.441 376.816 227.558C378.581 228.424 380.061 228.319 380.681 226.084C381.124 225.189 381.403 224.222 381.505 223.229C381.626 219.314 383.374 215.552 382.429 211.574Z" fill="#5B5E84"/>
<path d="M450.188 276.624C450.067 282.612 450.991 288.479 452.167 294.325C452.459 295.857 452.589 297.415 452.556 298.974C452.498 303.01 453.454 306.919 454.047 310.803C454.861 316.145 455.218 321.55 456.147 326.892C456.932 331.063 457.759 353.245 457.954 357.485C458.001 359.138 456.798 358.466 456.147 358.466C443.823 358.497 431.501 358.497 419.183 358.466C419.341 351.744 417.797 327.16 417.556 320.453C417.304 312.98 416.505 305.534 415.912 298.072C415.968 297.927 415.998 297.775 416.001 297.62C417.104 296.424 418.579 296.712 419.939 296.702C426.938 296.665 433.932 296.702 440.942 296.676C443.782 296.676 444.171 296.151 444.092 293.527C444.04 291.732 443.205 291.045 441.493 291.05C436.767 291.05 432.042 290.751 427.316 291.16C423.793 291.47 420.338 290.94 416.852 291.04C406.283 291.344 395.708 290.746 385.149 291.082C363.91 291.753 342.667 291.549 321.423 291.554C261.965 291.578 202.51 291.578 143.055 291.554C136.587 291.554 130.113 291.528 123.628 291.433C123.124 291.426 122.635 291.259 122.232 290.956C122.421 289.308 122.841 289.098 124.768 289.675H153.536C154.376 288.846 155.457 288.941 156.492 288.941C163.633 288.92 170.775 288.92 177.919 288.941C178.969 288.941 180.02 288.899 180.881 289.686H197.683C198.612 288.82 199.783 288.946 200.901 288.941C208.56 288.941 216.222 288.941 223.888 288.941C225.001 288.941 226.183 288.778 227.101 289.675H305.86C308.233 288.232 310.832 289.103 313.332 288.93C332.475 288.888 351.621 288.888 370.768 288.93C382.214 288.93 393.665 288.71 405.112 288.93C410.775 288.93 416.444 288.93 422.118 288.93C426.812 288.93 429.154 286.705 429.422 282.014C429.557 280.533 429.4 279.041 428.96 277.621C428.65 276.708 428.382 275.758 429.201 274.929C433.066 275.218 436.951 275.37 440.784 275.758C443.021 275.984 445.247 276.687 447.563 276.519C448.482 276.105 449.364 275.711 450.188 276.624Z" fill="#C19D7E"/>
<path d="M16.2698 208.761C13.0512 203.482 13.4451 199.929 17.908 195.458C19.0317 194.33 18.2861 193.27 17.9658 192.357C16.7214 188.835 17.1309 185.503 18.7849 182.286C20.7433 178.471 24.2717 177.039 28.2359 176.991C30.7982 176.949 31.654 176.467 31.2812 173.685C29.7061 161.852 38.4851 153.65 48.0044 151.451C54.4888 149.955 60.5532 150.637 66.5809 153.072C67.0014 153.176 67.4346 153.219 67.8673 153.198C71.1174 153.476 73.6429 155.297 76.0897 157.192C77.3078 158.157 77.1976 159.663 76.8038 161.059C76.5293 161.972 76.1907 162.865 75.7904 163.73C72.43 169.372 67.2897 172.977 61.4353 175.449C58.663 176.619 57.3084 178.424 56.4945 181.027C56.1375 182.176 56.085 183.845 54.8143 184.065C53.3442 184.317 53.3442 182.423 52.5881 181.562C51.832 180.702 51.8373 178.623 50.0206 179.216C48.3456 179.741 47.3953 181.237 47.2903 183.047C47.2764 184.722 47.7807 186.361 48.7342 187.739C50.1518 190.048 51.5012 192.388 52.8139 194.755C56.3318 201.094 54.389 210.419 48.6449 214.875C48.1199 215.247 47.6578 215.646 47.1275 215.977C46.4502 216.291 45.8621 216.769 45.211 217.142C44.3271 217.469 43.4197 217.728 42.4965 217.918C38.5048 218.865 34.3251 218.651 30.4517 217.299C29.8864 216.897 29.3592 216.443 28.8765 215.945C26.5951 213.97 23.8334 212.631 20.8694 212.062C18.9214 211.647 16.8842 211.096 16.2698 208.761Z" fill="#512D1B"/>
<path d="M75.3809 163.772C77.1189 157.611 77.4024 158.483 71.527 155.14C70.3351 154.463 69.0908 153.859 67.8516 153.224C73.7953 148.082 80.5948 144.912 88.4969 144.303C89.2687 143.92 89.988 144.23 90.7074 144.482C95.1278 147.743 98.9959 151.692 102.164 156.179C102.369 156.462 102.542 156.767 102.757 157.039C103.65 158.183 104.333 159.868 106.034 159.69C107.84 159.501 107.887 157.627 108.433 156.305C108.533 155.971 108.752 155.686 109.048 155.502C111.279 160.146 111.72 165.095 111.473 170.154C111.62 177.033 105.551 179.285 101.681 183.121C99.3813 185.403 96.2887 186.521 93.3432 187.76C92.0358 188.284 92.0883 188.673 93.1121 189.46C96.399 192.005 99.6019 194.666 102.936 197.148C104.422 198.255 104.275 199.1 103.424 200.616C99.8276 207.019 94.6716 212.413 91.7365 219.251C89.5837 224.268 87.4573 229.279 85.7508 234.469C85.3465 235.697 85.3045 237.282 83.7818 237.943C81.1093 236.369 79.7757 233.745 78.8463 230.959C77.6124 227.249 76.3365 223.559 74.8034 219.938C74.1383 218.222 72.9755 216.744 71.464 215.693C70.0425 214.801 68.535 214.054 66.9643 213.463C63.0526 211.962 63.0001 211.889 63.0841 208.388C63.1628 205.24 63.8349 204.379 67.001 203.959C70.4244 203.508 72.4826 201.272 73.916 198.507C75.6697 195.117 77.3394 191.685 77.3342 187.639C77.3342 185.319 78.8096 183.084 78.253 180.696C77.0716 175.611 77.3762 170.274 75.5962 165.299C75.4172 164.811 75.3438 164.291 75.3809 163.772Z" fill="#F9D54F"/>
<path d="M124.778 289.655C123.828 289.755 122.846 289.77 122.153 290.615C121.843 291.754 120.924 292.31 119.958 292.714C117.144 293.906 114.445 295.338 111.389 296.676C118.829 296.718 126.049 296.766 133.263 296.771C224.368 296.802 315.472 296.816 406.577 296.813C408.152 296.813 409.926 296.257 411.302 297.647C410.457 298.329 409.454 298.041 408.519 298.041C309.381 298.041 210.245 298.001 111.111 297.92C107.504 297.92 104.238 299.138 100.741 299.19C100.216 299.19 100.09 299.715 100.011 300.145C97.8322 300.014 95.6953 300.145 93.7105 301.195C90.996 300.948 88.3077 301.405 85.5564 300.324C82.5741 299.148 81.8127 300.072 81.5397 303.908C80.2008 303.624 80.122 302.496 80.0065 301.489C79.8805 300.35 79.4815 299.51 78.3789 299.043C71.5531 296.12 67.5049 290.337 63.4252 284.58C59.167 278.546 55.1661 272.338 51.1914 266.114C50.5193 265.064 49.8997 264.046 50.0993 262.739C51.5642 257.77 52.5723 252.659 55.0348 248.004C56.353 245.565 57.8426 243.222 59.4925 240.993C60.1646 240.075 61.0152 239.261 62.3593 239.849C63.4777 240.51 63.903 241.649 64.4596 242.74C67.1426 248.088 69.4791 253.624 72.9603 258.541C74.9082 262.708 77.6858 266.366 80.1378 270.223C81.5397 271.897 82.7631 273.686 84.2648 275.308C90.4919 282.172 98.1998 282.938 106.842 281.511C113.537 280.403 119.864 278.309 126.222 276.132C127.797 275.607 129.22 274.704 130.774 274.122C131.956 273.676 133.19 272.904 134.45 274.027C135.195 276.887 136.991 279.653 135.264 282.744C132.423 285.158 128.716 286.186 125.813 288.558C125.429 288.905 124.936 289.104 124.778 289.655Z" fill="#B1CBDD"/>
<path d="M96.3989 136.432C95.3488 136.49 94.5139 137.329 93.4061 137.057C92.9283 136.941 92.2877 137.198 92.1092 136.532C91.9569 135.955 91.7206 135.188 92.4189 134.895C97.512 132.748 95.9684 128.219 95.0915 125.013C93.2013 118.107 93.6056 111.862 97.4175 105.822C98.175 104.643 98.5424 103.255 98.4676 101.855C98.1578 95.1274 100.164 92.152 106.464 90.1211C112.24 88.2582 117.674 88.0693 122.368 92.9759C124.468 95.1904 127.33 96.0195 130.554 96.3344C135.915 96.8592 140.582 99.3413 144.347 103.309C144.832 103.754 145.21 104.301 145.456 104.911C145.701 105.521 145.807 106.179 145.765 106.835C145.711 107.142 145.779 107.458 145.954 107.716C146.13 107.974 146.399 108.153 146.705 108.215C147.755 108.457 147.35 107.517 147.529 107.055C148.149 105.455 149.288 105.266 150.38 106.751C153.473 110.949 151.015 117.089 146.584 118.102C144.034 118.685 141.373 118.556 138.892 117.729C134.508 119.514 130.008 119.235 125.576 118.144C122.552 117.399 119.722 115.929 116.446 116.176C114.907 116.291 113.82 116.701 113.059 118.123C112.23 119.657 111.321 121.146 110.334 122.583C109.536 123.743 108.444 124.614 107.026 124.042C105.493 123.423 105.703 121.975 105.976 120.647C106.028 120.39 106.139 120.149 106.196 119.897C106.375 119.104 107.168 118.139 106.028 117.598C104.889 117.058 103.786 117.556 103.104 118.648C102.196 120.065 102.201 121.623 102.663 123.187C103.009 124.357 103.545 125.464 103.949 126.614C104.474 128.083 104.6 129.589 103.676 130.891C101.828 133.43 99.523 135.482 96.3989 136.432Z" fill="#512D1B"/>
<path d="M317.317 241.921C317.637 243.338 316.624 244.387 316.267 245.621C315.285 248.974 315.443 249.268 318.861 249.262C330.375 249.262 341.89 249.299 353.399 249.163C355.798 249.137 357.027 249.955 357.867 252.149C359.395 256.168 361.894 259.774 363.118 263.93C360.093 265.105 356.87 265.294 353.719 265.604C349.917 266.029 346.147 266.696 342.43 267.603C340.477 268.055 338.802 268.196 336.902 267.33C334.854 266.402 332.622 265.924 330.302 266.722C328.989 267.173 328.27 267.934 328.8 269.225C329.54 271.041 328.763 272.205 327.304 272.846C321.286 275.47 316.802 279.851 312.938 285.031C312.764 285.225 312.558 285.389 312.329 285.514C310.874 285.823 310.638 284.616 310.197 283.74C308.375 280.114 306.784 276.393 304.852 272.767C304.327 273.161 304.233 274.242 303.193 273.958C303.718 268.527 300.604 264.187 298.803 259.464C297.937 257.192 296.766 255.04 295.779 252.815C294.608 250.16 295.37 248.89 298.315 248.769C300.841 248.633 303.371 248.633 305.897 248.769C308.281 248.932 310.538 248.103 312.896 248.192C313.799 248.223 314.13 247.856 313.852 246.896C313.395 245.321 313.678 244.162 315.616 243.889C316.692 243.758 315.947 241.91 317.317 241.921Z" fill="#F4F4F4"/>
<path d="M367.701 272.463C368.358 270.92 369.838 270.673 371.198 270.212C376.449 268.412 381.699 266.774 386.042 262.865C390.767 258.625 392.001 253.157 392.342 247.426C392.757 240.447 391.03 233.651 389.423 226.887C388.525 223.108 387.848 219.267 387.003 215.478C386.787 214.549 386.971 214.166 387.848 214.024L395.577 216.648C398.438 216.454 400.581 218.223 402.823 219.513C405.506 221.041 408.131 222.762 410.068 225.286C413.612 229.196 416.311 233.583 417.577 238.762C418.277 241.344 418.977 243.929 419.677 246.518C418.375 248.686 416.233 249.997 414.243 251.315C410.922 253.57 407.393 255.503 403.705 257.087C402.46 257.612 401.352 257.832 400.591 256.316C401.583 260.147 401.011 264.187 402.413 267.971C402.66 270.038 402.707 272.127 403.085 274.189C403.258 276.477 402.035 277.338 399.935 277.338C397.577 277.338 395.209 277.48 392.93 276.666C391.424 276.142 389.817 276.304 388.247 276.315C381.695 276.377 375.149 275.911 368.673 274.919C367.701 274.347 367.224 273.591 367.701 272.463Z" fill="#4E5076"/>
<path d="M63.8611 284.396C66.1818 287.272 68.3818 290.258 70.8601 292.987C72.7808 295.235 75.211 296.993 77.9484 298.114C79.7913 298.806 81.041 299.788 80.8152 302.034C80.7522 302.632 81.2983 303.288 81.566 303.923L81.6763 304.894C82.5059 307.093 82.4901 309.485 83.1937 311.716C83.4772 316.15 84.8319 320.401 85.4462 324.783C85.7087 326.614 86.4701 328.498 85.0787 330.23C84.1283 333.378 80.6734 335.797 76.2997 335.971C70.9073 336.181 65.4835 336.448 60.275 334.512C56.875 333.28 53.6224 331.675 50.5771 329.726C49.7213 329.17 48.918 328.461 48.7552 327.322C50.3304 320.632 52.0841 313.988 54.137 307.434C56.2373 300.795 57.9437 294.031 60.6582 287.597C61.2673 286.159 61.2253 283.887 63.8611 284.396Z" fill="#3A3E68"/>
<path d="M463.288 133.787C460.92 133.787 458.83 135.257 456.426 135.041C451.595 136.458 447.237 135.776 443.299 132.418C441.036 130.481 439.981 127.847 440.732 124.856C441.215 123.99 442.081 123.853 442.926 123.607C448.021 122.072 453.296 121.216 458.615 121.061C460.451 120.973 462.237 120.432 463.813 119.487C464.562 119.115 465.188 118.535 465.617 117.817C466.045 117.098 466.257 116.272 466.228 115.436C466.228 113.169 466.328 110.897 466.192 108.614C466.009 105.801 464.8 103.153 462.794 101.172C460.787 99.1911 458.124 98.0149 455.307 97.8666C451.726 97.6567 448.408 98.7587 445.111 99.887C443.125 100.556 441.086 101.051 439.015 101.367C437.802 101.556 436.568 101.655 435.544 100.727C431.344 98.9844 430.225 95.5786 430.687 91.4172C431.149 87.2557 433.339 84.401 437.292 82.8896C443.593 80.4757 449.973 79.2162 456.625 81.4308C457.771 81.7823 458.85 82.3233 459.817 83.0313C462.143 84.8156 464.464 86.3216 467.51 87.0196C472.188 88.0954 474.335 92.1991 475.69 96.3395C478.966 106.515 478.646 116.548 473.437 126.141C473.024 126.795 472.56 127.416 472.051 127.999C470.172 127.71 470.193 126.115 470.046 124.819C469.694 121.754 470.219 118.742 471.027 115.793C471.731 113.211 471.552 110.613 471.369 108.01C471.343 107.576 471.225 107.153 471.021 106.769C470.817 106.385 470.533 106.05 470.187 105.785C469.515 107.947 470.25 109.873 470.466 111.747C470.861 115.129 470.406 118.556 469.142 121.717C468.045 124.556 466.795 127.327 466.465 130.418C466.27 132.229 465.084 133.336 463.288 133.787Z" fill="#995D5D"/>
<path d="M382.324 186.799C382.167 190.09 381.763 193.322 379.967 196.203C379.442 196.114 379.778 195.552 379.473 195.343C378.649 196.717 377.158 197.442 376.208 198.701C375.509 199.63 375.257 200.554 376.003 201.561C373.545 203.597 374.832 205.581 376.082 207.57C376.814 211.588 376.068 215.735 373.981 219.246C373.199 219.96 372.254 220.495 371.55 221.313C368.699 223.57 367.707 223.601 364.782 221.571C363.962 220.778 363.085 220.046 362.157 219.382C360.626 216.98 359.779 214.206 359.705 211.359C359.726 210.413 359.461 209.484 358.944 208.693C359.064 207.984 360.183 208.021 360.099 207.019C359.798 206.906 359.48 206.846 359.159 206.84C354.029 207.601 351.745 204.311 349.776 200.417C348.101 197.095 347.35 193.49 346.39 189.958C346.08 188.82 345.381 188.542 344.667 188.032C345.072 186.112 344.273 184.359 343.575 182.722C342.425 180.009 343.097 177.385 343.538 174.735C343.806 173.134 345.114 172.993 346.384 173.161C348.122 173.386 349.855 173.502 351.603 173.559C356.19 173.811 360.716 172.415 364.362 169.624C365.869 168.469 366.919 168.758 368.211 169.996C371.361 173.035 373.913 176.293 373.908 181.016C373.957 183.03 374.678 184.969 375.956 186.526C376.68 186.149 376.433 185.545 376.481 185.078C376.612 183.504 377.21 182.297 378.954 182.271C380.566 182.244 381.526 183.22 381.841 184.779C382.025 185.44 382.141 186.128 382.324 186.799Z" fill="#F5B290"/>
<path d="M96.3989 136.432C98.0843 135.109 99.7645 133.808 101.46 132.475C103.498 130.901 104.159 128.98 103.146 126.519C102.29 124.42 101.319 122.379 101.718 120.001C102.143 117.451 104.222 115.803 106.249 116.596C107.299 117.01 108.465 117.577 107.299 119.072C107.083 119.444 106.934 119.851 106.858 120.274C106.48 121.502 105.666 123.066 107.262 123.717C108.701 124.304 109.63 122.709 110.176 121.67C110.948 120.206 112.067 118.91 112.618 117.393C113.238 115.672 114.193 115.404 115.868 115.404C118.656 115.341 121.427 115.84 124.017 116.874C128.249 118.637 132.633 118.637 137.065 117.677C137.67 117.606 138.281 117.606 138.887 117.677C139.27 119.424 138.472 121.014 137.663 122.316C134.403 127.563 132.833 133.582 130.008 139.014C127.855 143.149 125.345 146.912 121.119 149.415C117.475 151.566 114.54 150.323 111.489 148.449C110.439 147.814 109.189 147.452 108.496 148.633C107.934 149.588 106.118 150.553 107.793 152.06C107.163 153.566 107.756 155.15 107.52 156.683C107.388 157.543 107.415 158.514 106.338 158.782C105.909 158.898 105.453 158.856 105.053 158.663C104.653 158.47 104.336 158.14 104.159 157.732C102.059 153.23 98.0949 150.386 94.829 146.948C94.1884 146.266 93.049 145.652 93.8419 144.366C95.7006 142.824 95.9841 140.399 97.1235 138.452C97.6433 137.56 96.4934 137.167 96.3989 136.432Z" fill="#F5B291"/>
<path d="M382.324 186.799C381.395 186.086 381.532 184.91 381.106 183.976C380.949 183.518 380.623 183.137 380.196 182.909C379.768 182.681 379.27 182.624 378.801 182.748C377.956 182.958 377.226 183.509 377.331 184.611C377.382 184.961 377.366 185.317 377.284 185.661C377.027 186.527 377.809 188.001 376.759 188.18C375.583 188.384 375.063 186.91 374.659 185.923C373.682 183.785 373.101 181.488 372.942 179.143C372.837 176.561 372.018 174.504 369.86 172.888C368.578 171.927 367.759 169.739 366.52 169.508C365.281 169.277 363.842 171.004 362.446 171.796C357.657 174.499 352.47 174.761 347.219 173.853C344.804 173.434 344.142 173.89 343.885 176.414C343.559 179.563 344.231 182.391 345.282 185.251C345.633 186.227 346.416 187.44 344.693 188.038C342.819 185.739 341.816 182.858 341.218 180.166C340.288 175.871 338.605 171.774 336.245 168.065C335.389 166.716 334.828 165.279 335.3 163.342C336.97 164.964 338.204 164.056 339.249 162.718C341.044 160.414 342.83 158.094 344.499 155.707C345.801 153.86 347.413 152.359 349.603 151.949C356.271 150.711 362.908 148.984 369.823 150.464C372.149 150.958 374.239 151.923 375.399 153.744C377.935 157.722 381.458 161.091 382.865 165.814C383.17 166.795 383.362 167.807 383.438 168.831C383.876 174.843 383.502 180.887 382.324 186.799Z" fill="#512D1B"/>
<path d="M16.2699 208.761C18.6589 211.138 21.426 212.115 24.7181 210.976C25.2431 210.797 25.6474 210.451 25.9677 211.186C26.9285 213.353 28.8503 214.78 30.1682 216.654C30.2207 219.876 29.2283 222.951 29.0813 226.189C28.7138 234.197 29.3071 242.005 32.7199 249.42C34.2478 252.732 36.0226 256.012 35.5185 259.874C35.4765 260.735 35.4345 261.59 35.3767 262.692C31.1929 260.736 27.1949 258.405 23.4317 255.728C15.8708 250.25 8.46753 244.551 1.90431 237.886C1.80455 237.781 1.57352 237.807 1.4055 237.771C-0.694731 235.818 -0.169671 234.029 1.21123 231.741C5.92625 223.859 11.1926 216.376 16.2699 208.761Z" fill="#F6CA46"/>
<path d="M435.544 100.726C440.028 101.146 444.108 99.4933 448.203 98.1026C454.945 95.8303 461.33 97.3784 464.837 102.406C467.615 106.357 466.88 110.881 467.006 115.294C467.076 116.296 466.851 117.296 466.358 118.171C465.865 119.046 465.126 119.757 464.233 120.216C462.957 120.925 461.519 121.744 459.933 121.707C455.208 121.612 450.561 122.536 445.966 123.47C444.239 123.822 442.48 124.357 440.716 124.84C439.666 119.193 438.768 113.526 437.366 107.942C436.788 105.549 436.038 103.167 435.544 100.726Z" fill="#F4B291"/>
<path d="M134.114 273.922C130.717 274.147 128.086 276.409 124.92 277.348C119.255 279.028 113.815 281.284 107.819 281.993C105.194 282.307 102.568 282.769 99.8748 282.853C91.999 283.089 86.1761 279.385 81.6186 273.292C80.9045 272.332 80.2377 271.335 79.5498 270.358C79.7074 265.672 82.7895 262.167 84.5169 258.116C84.7059 257.664 85.042 257.166 85.693 257.323C88.2711 262.985 91.6787 267.986 97.9846 269.818C100.326 270.5 102.71 271.555 105.335 271.193C114.025 271.718 122.431 270.217 130.795 267.96C132.717 267.435 134.655 266.491 136.771 266.669C137.282 267.245 137.546 267.999 137.506 268.768C137.448 273.213 137.164 273.644 134.114 273.922Z" fill="#90B4D1"/>
<path d="M48.9473 326.148C51.9918 330.068 56.1067 331.683 59.9606 333.835C60.7909 334.7 61.8613 334.72 62.8379 335.001C64.7804 335.559 64.7126 336.686 63.6107 338.262C62.7857 339.441 61.7047 347.659 61.8509 349.478C61.2666 349.643 60.6731 349.754 60.0754 349.812C47.5809 349.812 35.0829 349.812 22.5814 349.812C21.9802 349.767 21.3819 349.675 20.7902 349.536C20.1845 343.52 21.8346 330.6 22.3568 324.732C23.4012 323.636 24.4822 324.437 25.5736 324.629C30.0593 325.411 34.5398 325.911 38.9472 323.944C40.5946 323.236 42.0818 322.059 43.2866 320.51C44.5347 318.876 45.4643 319.229 46.352 320.997C47.2397 322.765 48.3363 324.226 48.9473 326.148Z" fill="#D64F82"/>
<path d="M235.376 133.861C233.801 128.985 234.752 126.209 238.747 124.047C239.614 123.541 240.602 123.277 241.607 123.285C242.611 123.292 243.595 123.57 244.455 124.089C245.993 124.955 247.321 125.071 248.655 123.68C249.331 123.011 250.109 122.453 250.96 122.027C253.843 120.5 255.523 118.642 254.851 114.916C254.105 110.76 256.316 109.411 259.356 107.874C261.524 106.782 264.932 108.016 266.88 110.209C268.455 111.988 268.702 116.611 267.31 118.574C265.383 121.292 261.797 122.599 259.098 121.292C257.775 120.652 256.94 120.767 255.838 121.644C253.711 123.286 251.406 124.677 249.269 126.304C247.227 127.878 248.361 131.683 251.17 132.932C252.031 133.74 253.27 133.729 254.226 134.275C256.169 135.377 257.739 135.272 259.555 133.693C261.949 131.594 265.331 131.856 267.736 133.792C270.45 135.991 271.301 139.218 269.962 142.189C269.287 143.662 268.14 144.869 266.703 145.618C265.265 146.367 263.618 146.615 262.023 146.324C259.13 145.857 256.61 143.28 256.578 140.2C256.578 138.263 255.743 137.418 254.11 136.857C252.966 136.445 251.842 135.976 250.745 135.451C249.044 134.658 247.652 134.632 245.972 135.939C242.349 138.741 238.894 137.927 235.376 133.861Z" fill="#EDAA48"/>
<path d="M433.822 150.05C434.788 150.732 433.948 151.199 433.643 151.76C431.442 155.962 429.895 160.474 429.054 165.142C427.6 172.489 427.243 179.836 426.392 187.23C425.552 194.44 425.284 201.745 423.83 208.866C423.378 211.059 423.184 213.542 421.373 215.294C421.462 217.561 420.139 218.443 418.102 218.627C416.904 218.102 416.936 217.005 416.889 216.003C416.792 214.185 416.792 212.363 416.889 210.545C417.225 204.92 415.959 199.525 414.458 194.204C414.163 193.477 414.15 192.667 414.421 191.931C416.395 186.957 418.438 182.003 420.328 176.997C421.903 172.798 423.441 168.6 424.759 164.334C426.481 158.703 429.679 154.096 433.822 150.05Z" fill="#BF4D7F"/>
<path d="M151.477 31.0054C151.652 30.984 151.828 30.984 152.003 31.0054C152.864 31.189 154.208 30.4439 154.465 31.7348C154.68 32.8263 153.252 32.8945 152.585 33.1937C145.823 36.2531 138.986 39.1498 132.397 42.5503C126.947 45.3421 121.371 47.945 116.015 50.8574C114.298 51.7863 114.24 51.1251 114.24 49.8079C114.24 45.6097 114.109 41.4483 114.765 37.2974C113.374 34.1487 114.477 32.1599 117.79 31.8345C118.662 31.7547 119.54 31.7354 120.415 31.7768C130.286 32.1179 140.131 31.0683 150.002 31.315C150.515 31.3905 151.038 31.2807 151.477 31.0054Z" fill="#DAE7EA"/>
<path d="M414.405 191.91C417.556 199.551 417.918 207.575 417.666 215.688C417.634 216.596 417.036 217.892 418.6 218.312C418.713 218.384 418.804 218.484 418.867 218.602C418.929 218.72 418.96 218.852 418.956 218.986C418.952 219.119 418.914 219.249 418.846 219.364C418.777 219.478 418.68 219.573 418.564 219.639C415.692 221.712 413.213 224.362 409.769 225.611C405.721 221.549 400.843 218.789 395.592 216.659C397.493 214.321 399.623 212.18 401.951 210.267C407.27 205.633 410.488 199.619 413.387 193.374C413.578 192.799 413.932 192.29 414.405 191.91Z" fill="#D54F82"/>
<path d="M257.555 177.847C261.267 178.062 261.918 179.51 260.994 184.039C259.524 191.265 258.432 198.554 257.466 205.87C256.888 210.257 255.953 214.602 255.292 218.989C254.242 226.016 253.501 233.105 252.141 240.069C251.359 244.015 251.658 248.224 249.611 251.897C248.413 252.8 247.195 252.28 245.982 251.955H245.94C244.843 250.454 245.169 248.775 245.457 247.169C246.376 242.032 246.964 236.842 247.894 231.709C249.133 224.861 250.02 217.96 251.191 211.102C251.931 206.746 252.498 202.327 253.155 197.946C254.047 192.016 254.903 186.081 255.906 180.172C256.048 179.185 256.163 178.015 257.555 177.847Z" fill="#5C5D84"/>
<path d="M257.555 177.847C256.41 179.143 256.641 180.775 256.436 182.308C255.911 186.175 255.176 190.006 254.667 193.852C254.221 197.253 253.617 200.674 253.06 204.091C252.273 208.866 251.548 213.652 250.708 218.417C249.485 225.454 248.55 232.518 247.384 239.55C246.718 243.622 245.647 247.725 245.909 251.945C244.974 253.939 244.77 256.143 244.491 258.242C243.788 263.542 243.305 268.874 241.751 273.985C239.845 280.282 236.694 285.672 230.199 288.337C229.704 288.486 229.196 288.586 228.682 288.637C226.734 289.209 224.728 289.119 222.733 289.119C215.429 289.119 208.126 289.119 200.817 289.119C199.546 289.119 197.94 289.303 198.717 287.104C207.118 287.104 215.519 286.826 223.878 287.104C230.656 287.34 234.473 283.342 237.529 278.367C240.343 273.817 240.59 268.396 241.619 263.238C241.866 262.02 242.475 260.341 240.48 259.423C239.75 259.081 239.913 257.875 240.538 257.098C242.57 257.686 242.192 255.917 242.291 255.056C243.042 248.759 244.045 242.462 245.153 236.165C246.392 229.128 247.311 222.038 248.508 214.995C249.212 210.887 249.794 206.725 250.456 202.595C251.07 198.728 251.564 194.844 252.183 190.977C253.58 182.297 255.092 173.628 255.89 164.859C258.027 164.911 259.041 165.384 258.689 168.118C258.311 171.371 256.893 174.504 257.555 177.847Z" fill="#9BB9D5"/>
<path d="M134.114 273.922C137.038 273.271 136.918 270.978 136.918 268.748C137.191 268.748 137.548 268.821 137.563 269.047C137.752 272.494 139.811 271.12 141.507 270.579C146.547 268.968 151.593 269.178 156.691 270.332C158.744 270.794 159.737 272.08 160.482 273.885C160.902 274.898 160.839 276.456 162.582 276.483C163.569 277.532 164.504 278.435 162.309 279.316C161.138 279.789 162.771 280.487 162.535 281.237C162.336 281.851 162.855 282.764 162.189 283.174C161.322 283.698 160.797 282.822 160.225 282.329C160.032 282.15 159.856 281.953 159.7 281.741C157.51 278.87 157.258 278.592 154.544 280.838C150.023 284.627 145.213 285.231 139.9 283.263C138.361 282.696 136.818 282.864 135.269 282.738C135.705 279.705 134.166 276.913 134.114 273.922Z" fill="#F4B494"/>
<path d="M288.917 188.342C282.978 188.311 278.127 183.315 278.069 177.249C278.006 170.626 284.254 166.076 289.237 166.333C295.223 166.638 300.006 171.261 300.027 177.354C300.023 178.805 299.732 180.242 299.171 181.581C298.609 182.919 297.789 184.134 296.757 185.155C295.724 186.177 294.5 186.984 293.155 187.531C291.809 188.077 290.369 188.353 288.917 188.342Z" fill="#E54289"/>
<path d="M284.816 223.366C284.816 221.183 284.816 218.994 284.816 216.811C284.858 214.035 285.819 213.086 288.654 213.07C293.029 213.042 297.405 213.042 301.78 213.07C304.253 213.07 305.645 214.329 305.703 216.869C305.797 221.323 305.797 225.781 305.703 230.246C305.655 232.371 304.5 233.693 302.211 233.599C299.407 233.478 296.771 233.336 295.984 237.078C295.774 238.101 294.556 237.97 294.277 236.679C293.658 233.819 291.72 233.452 289.174 233.567C285.498 233.73 284.837 232.948 284.826 229.369C284.811 227.391 284.816 225.381 284.816 223.366Z" fill="#EEAB49"/>
<path d="M113.211 27.3846C113.385 24.194 110.875 22.1369 109.888 19.4081C109.447 18.2011 108.649 17.1306 108.081 15.9656C107.927 15.6985 107.845 15.3953 107.845 15.0866C107.845 14.7779 107.927 14.4747 108.081 14.2076C108.575 13.4887 109.231 14.0764 109.72 14.2706C116.199 16.8 122.652 19.4081 129.147 21.9322C135.799 24.5246 142.478 27.0487 149.136 29.6201C149.86 29.8983 150.616 30.1921 150.947 31.0108C148.973 32.0603 146.747 31.7927 144.836 31.3991C141.94 30.8855 139.011 30.5786 136.072 30.4807C131.646 30.2289 127.32 29.2528 122.883 28.9799C119.691 28.7752 116.293 28.6703 113.211 27.3846Z" fill="#DAE7EA"/>
<path d="M305.409 189.932C307.651 188.358 308.275 186.023 308.517 183.509C308.59 182.727 308.443 181.935 308.559 181.153C308.605 180.758 308.777 180.388 309.049 180.098C309.322 179.808 309.68 179.613 310.071 179.542C310.424 179.494 310.783 179.561 311.095 179.735C311.406 179.908 311.653 180.177 311.799 180.502C312.402 181.552 313.242 182.465 313.169 183.814C313.085 185.388 313.526 186.033 315.311 185.225C317.879 184.055 322.693 185.897 323.292 188.578C323.891 191.26 324.19 194.23 323.455 196.975C322.93 198.995 320.562 199.226 318.861 199.929C316.634 200.848 314.203 201.236 312.119 202.553C310.785 202.102 310.502 200.874 310.019 199.767C308.643 196.387 307.456 192.955 305.409 189.932Z" fill="#73C6DD"/>
<path d="M255.943 164.901C257.308 166.045 256.657 167.567 256.421 168.805C254.846 177.081 253.843 185.435 252.556 193.742C251.506 200.596 250.456 207.476 249.406 214.334C248.44 220.836 247.647 227.396 246.214 233.84C245.326 237.823 244.99 241.927 244.397 245.973C243.872 249.735 243.289 253.493 242.743 257.25C242.622 258.084 242.339 258.977 241.436 258.971C240.212 258.971 240.884 257.738 240.574 257.114C241.709 249.557 242.801 242 244.15 234.47C245.347 227.8 246.051 221.036 247.069 214.329C248.303 206.242 249.658 198.177 250.923 190.09C251.973 183.494 252.782 176.86 254.074 170.311C254.42 168.522 253.848 166.171 255.943 164.901Z" fill="#5C5D84"/>
<path d="M113.211 27.3847C118.52 26.7339 123.676 28.3397 128.921 28.6651C133.3 28.9291 137.661 29.4178 141.99 30.1292C144.948 30.6943 147.951 30.9877 150.963 31.0056H151.488C151.304 32.3175 150.275 32.0551 149.456 32.0551C139.433 31.9397 129.43 32.9262 119.396 32.6271C114.797 32.4854 114.797 32.6009 114.75 37.3028C111.773 37.2398 108.874 37.8696 105.95 38.2841C105.299 38.3733 104.375 39.3337 103.913 38.2474C103.529 37.3868 104.485 36.8882 105.005 36.3425C107.346 33.9075 109.73 31.5093 112.051 29.0482C112.492 28.5601 113.196 28.198 113.211 27.3847Z" fill="#B2CCDD"/>
<path d="M495.519 291.052C494.21 294.026 493.757 297.434 492.116 300.307C491.139 302.024 490.632 301.591 490.01 300.469C487.578 296.102 484.938 291.85 482.985 287.165C482.036 284.893 484.164 282.906 485.712 281.756C487.469 280.404 489.154 278.937 490.839 277.45C493.965 278.255 496.365 280.154 497.324 284.156C496.599 286.394 495.263 288.415 495.519 291.052Z" fill="#F4B291"/>
<path d="M62.0391 347.941C61.5508 347.668 60.5637 347.867 61.3565 346.671C62.4644 344.986 61.7871 335.021 60.2802 334.039C60.2172 333.997 60.1857 333.898 60.1384 333.824C65.2682 335.577 70.5818 335.65 75.8901 335.335C79.6968 335.104 82.9154 333.551 85.0681 330.224C85.6858 333.101 85.9625 343.247 85.8925 346.188C85.8925 347.358 85.5669 347.763 84.3173 348.004C82.2171 348.419 80.1694 347.888 78.1006 347.92C73.6797 347.993 69.2587 348.135 64.8377 348.203C63.9006 348.169 62.9662 348.081 62.0391 347.941Z" fill="#BE4F80"/>
<path d="M162.561 276.483C162.446 276.966 162.651 277.653 162.094 277.868C161.538 278.083 161.217 277.532 160.992 277.05C160.661 276.352 160.251 275.685 159.978 274.95C158.671 271.545 157.038 270.311 153.494 270.254C150.8 270.207 148.107 270.254 145.418 270.222C143.449 270.175 141.79 271.193 140.094 271.849C137.789 272.746 136.907 272.557 137.275 269.928C137.327 269.551 137.044 269.131 136.912 268.732L136.771 266.633C140.582 265.235 144.586 264.435 148.642 264.261C152.61 264.074 156.536 265.131 159.873 267.284C162.183 268.784 161.48 271.849 162.414 274.106C162.693 274.835 162.525 275.701 162.561 276.483Z" fill="#EC9271"/>
<path d="M303.209 273.974C304.29 273.602 304.038 272.4 304.784 271.424C306.747 274.509 308.039 277.721 309.557 280.87C310.334 282.444 310.785 284.244 312.124 285.519C312.991 286.163 313.569 287.123 313.731 288.19C313.752 288.462 313.711 288.735 313.611 288.989C313.511 289.243 313.354 289.47 313.153 289.654H305.886C305.477 288.857 304.71 288.809 303.944 288.605C300.016 287.508 298.961 284.191 300.977 279.684C301.791 277.8 302.983 276.073 303.209 273.974Z" fill="#F4B392"/>
<path d="M312.177 47.7298L311.064 47.7613C309.488 46.0191 309.457 43.6629 309.158 41.6268C308.753 38.8874 307.903 36.2216 307.756 33.4456C307.714 32.5902 307.808 31.5721 306.784 31.2153C305.76 30.8585 305.136 31.6246 304.521 32.2176C300.515 36.1009 296.12 39.5329 291.825 43.0804C291.048 43.7206 290.387 44.6809 289.127 44.2821C288.486 43.4162 289.295 42.7918 289.494 42.0623C292.408 38.5359 296.32 36.1114 299.591 32.9628C301.345 31.2678 303.203 29.6777 305.241 27.8253C302.815 27.1693 300.704 27.8253 298.693 28.2608C294.435 29.2002 290.098 29.6725 285.845 30.6171C282.868 31.2783 279.88 32.0392 276.772 31.7138C276.058 31.6614 275.333 31.6194 274.824 31.0054C276.305 29.0165 278.615 29.9559 280.5 29.5308C285.225 28.4078 290.024 27.7046 294.797 26.8282C298.1 25.9151 301.623 26.1723 304.868 24.8761C307.194 23.942 309.2 25.4901 309.42 28.6649C309.746 33.3879 310.911 37.9271 312.003 42.5031C312.397 44.1614 312.14 45.9824 312.177 47.7298Z" fill="#B7CDDC"/>
<path d="M373.503 219.314C374.863 216.055 375.824 212.728 375.499 209.139C375.446 208.53 375.436 207.916 376.102 207.564L382.403 211.568C383.114 212.498 383.536 213.617 383.614 214.784C383.692 215.952 383.425 217.117 382.844 218.133C381.899 219.907 383.222 222.011 381.794 223.628C380.14 224.273 379.058 222.961 377.846 222.342C376.312 221.544 374.695 220.71 373.503 219.314Z" fill="#323461"/>
<path d="M463.288 133.787C466.381 132.213 465.803 128.849 466.659 126.283C467.804 122.851 469.515 119.603 469.857 115.84C470.082 113.332 469.499 111.023 469.274 108.625C469.132 107.05 468.528 104.6 469.909 104.426C471.29 104.253 472.009 106.646 472.251 108.43C472.776 112.513 471.384 116.344 470.933 120.29C470.634 122.914 469.951 125.674 472.051 127.978C470.718 129.657 471.085 131.484 471.568 133.326C468.806 133.525 466.076 134.139 463.288 133.787Z" fill="#F1B090"/>
<path d="M358.996 208.693C359.784 208.656 360.603 208.504 360.487 209.784C360.183 213.174 361.296 216.265 362.588 219.309C360.561 221.408 358.282 223.029 355.195 223.055C352.879 220.694 351.976 214.134 353.619 211.61L358.996 208.693Z" fill="#32345F"/>
<path d="M305.409 189.932C307.262 190.179 307.409 191.848 307.981 193.081C309.404 196.198 310.743 199.347 312.119 202.485C311.127 204.217 309.247 204.542 307.614 205.051C306.527 205.387 306.191 204.117 305.823 203.246C304.234 199.467 302.636 195.693 301.03 191.921C300.736 190.347 302.08 190.515 302.925 190.258C303.629 190.053 304.437 190.452 305.13 189.985L305.409 189.932Z" fill="#35538B"/>
<path d="M93.842 144.356C94.7713 147.148 97.5174 148.292 99.3288 150.291C101.235 152.39 103.34 154.264 104.396 156.998C104.663 157.68 105.078 158.572 106.023 158.415C107.273 158.215 106.737 157.066 106.947 156.315C107.336 154.925 106.055 153.198 107.793 152.081C108.213 153.204 108.636 154.327 109.063 155.45C108.995 155.885 108.943 156.315 108.864 156.741C108.559 158.404 108.145 160.146 106.281 160.587C104.417 161.028 103.43 159.375 102.663 158.11C99.4181 152.768 94.8448 148.664 90.2033 144.66C91.2219 143.611 92.4663 144.193 93.6319 144.135C93.645 144.187 93.6712 144.235 93.708 144.273C93.7448 144.312 93.7909 144.34 93.842 144.356Z" fill="#383860"/>
<path d="M153.588 287.094L178.906 287.047C180.014 287.047 181.101 286.999 180.844 288.621C180.114 289.256 179.216 289.146 178.36 289.146C170.894 289.146 163.428 289.182 155.961 289.146C154.759 289.093 152.774 289.607 153.588 287.094Z" fill="#A9C5DB"/>
<path d="M198.748 287.094C198.617 288.978 200.009 288.595 201.069 288.595C210.286 288.626 219.5 288.644 228.713 288.647L227.102 289.66H197.698C198.029 288.815 196.869 287.33 198.748 287.094Z" fill="#B1CBDD"/>
<path d="M153.588 287.094C153.467 288.962 154.827 288.631 155.919 288.631C164.226 288.631 172.534 288.631 180.844 288.631L180.891 289.681H153.551C153.305 288.804 151.672 287.912 153.588 287.094Z" fill="#B1CBDD"/>
<path d="M376.024 201.556C373.797 201.745 374.359 200.548 374.931 199.352C376.045 197.027 378.607 196.13 380.103 194.104C380.681 194.823 379.673 195.479 379.988 196.177C379.006 198.245 377.94 200.218 376.024 201.556Z" fill="#603E2D"/>
<path d="M446.141 51.3305C443.683 45.9201 441.195 40.5307 438.554 35.2043C436.669 31.3997 437.215 27.3642 439.467 23.7486C442.864 18.3067 447.716 14.9009 454.274 15.3522C462.785 15.9085 469.501 23.8378 469.165 31.3053C469.039 34.118 467.442 36.3955 466.35 38.8042C464.528 42.8082 462.544 46.7388 460.926 50.832C460.842 51.0471 460.548 51.1836 460.354 51.3568C459.664 51.8992 458.806 52.1849 457.928 52.1649C454.806 52.2279 451.68 52.2279 448.551 52.1649C448.114 52.1919 447.676 52.132 447.262 51.9888C446.849 51.8456 446.467 51.6218 446.141 51.3305Z" fill="#F9D54F"/>
<path d="M446.141 51.3306H460.354C460.37 52.5454 460.476 53.7573 460.669 54.9567C461.63 60.2674 456.07 65.2895 450.982 63.9356C449.144 63.4475 445.259 57.3759 445.731 55.2086C445.953 53.9263 446.089 52.6308 446.141 51.3306Z" fill="#73C6DD"/>
<path d="M426.409 38.1484C425.884 38.1484 425.317 38.2796 425.165 37.5659C425.128 37.4176 425.125 37.2631 425.154 37.1133C425.184 36.9635 425.246 36.8219 425.336 36.6985C425.426 36.5751 425.542 36.4728 425.676 36.3987C425.809 36.3247 425.957 36.2807 426.11 36.2698C428.536 35.7765 431.056 35.8027 433.424 34.9788C433.896 34.8109 434.022 35.1887 434.143 35.5036C434.4 36.1543 434.033 36.5531 433.461 36.6056C431.068 36.9063 428.708 37.4227 426.409 38.1484Z" fill="#EFCC94"/>
<path d="M429.057 16.1336C428.686 15.7623 428.192 15.4541 428.589 14.8418C428.669 14.7112 428.775 14.5995 428.902 14.5145C429.029 14.4295 429.173 14.3732 429.324 14.3496C429.475 14.3259 429.629 14.3355 429.776 14.3777C429.923 14.4198 430.059 14.4935 430.174 14.5935C432.238 15.96 434.002 17.7606 436.259 18.8525C436.712 19.0679 436.534 19.4242 436.396 19.7322C436.118 20.3742 435.576 20.3964 435.135 20.0288C433.23 18.5498 431.196 17.2461 429.057 16.1336Z" fill="#EFCC94"/>
<path d="M472.156 7.85111C472.611 7.58858 473.036 7.19143 473.525 7.73337C473.63 7.84369 473.711 7.97572 473.76 8.12027C473.809 8.26482 473.826 8.41841 473.81 8.57029C473.794 8.72217 473.745 8.86872 473.666 8.99966C473.587 9.13061 473.481 9.24282 473.354 9.32846C471.5 10.9685 469.305 12.2059 467.666 14.1035C467.34 14.4852 467.042 14.2209 466.78 14.0087C466.232 13.5738 466.351 13.0446 466.82 12.713C468.742 11.2565 470.528 9.62922 472.156 7.85111Z" fill="#EFCC94"/>
<path d="M475.662 28.4309C475.137 28.4309 474.57 28.5621 474.418 27.8484C474.382 27.7001 474.378 27.5456 474.408 27.3958C474.437 27.2459 474.499 27.1044 474.589 26.981C474.679 26.8575 474.795 26.7552 474.929 26.6812C475.063 26.6071 475.211 26.5631 475.363 26.5522C477.789 26.0589 480.309 26.0852 482.677 25.2613C483.15 25.0934 483.276 25.4712 483.396 25.7861C483.654 26.4368 483.286 26.8356 482.714 26.8881C480.322 27.1887 477.962 27.7051 475.662 28.4309Z" fill="#EFCC94"/>
<path d="M470.792 43.7039C470.421 43.3326 469.927 43.0244 470.324 42.4121C470.403 42.2815 470.51 42.1698 470.637 42.0848C470.764 41.9998 470.908 41.9435 471.059 41.9199C471.21 41.8963 471.364 41.9058 471.511 41.948C471.658 41.9901 471.794 42.0638 471.909 42.1638C473.973 43.5303 475.737 45.3309 477.994 46.4228C478.447 46.6382 478.269 46.9945 478.131 47.3025C477.853 47.9446 477.311 47.9667 476.869 47.5991C474.965 46.1202 472.931 44.8164 470.792 43.7039Z" fill="#EFCC94"/>
<path d="M448.312 1.26652C448.375 0.745239 448.312 0.166555 449.039 0.100794C449.191 0.0825108 449.344 0.0975283 449.49 0.144847C449.635 0.192165 449.768 0.270647 449.88 0.374762C449.991 0.478877 450.079 0.606168 450.137 0.747704C450.194 0.88924 450.22 1.04163 450.213 1.19425C450.412 3.66162 450.084 6.1606 450.619 8.61019C450.729 9.09944 450.339 9.17933 450.012 9.26154C449.335 9.4391 448.983 9.0265 449 8.45203C448.987 6.04099 448.757 3.636 448.312 1.26652Z" fill="#EFCC94"/>
<path d="M46.7022 75.0862C46.2664 75.0862 45.8306 75.0862 45.3948 75.0862C44.791 75.0862 44.0454 75.1387 44.0086 74.2885C43.9719 73.4384 44.602 73.0658 45.3738 73.0291C46.3347 72.9818 47.2955 72.9976 48.2511 73.0291C49.0177 73.0291 49.6793 73.197 49.5953 74.1836C49.527 75.0075 48.9127 75.0862 48.2721 75.0967H46.697L46.7022 75.0862Z" fill="#E6C3CF"/>
<path d="M23.9462 108.74C23.9462 108.215 23.9462 107.69 23.9462 107.192C23.9829 106.594 24.0092 105.854 24.8125 105.869C25.6159 105.885 25.9834 106.483 25.9781 107.286C25.9729 108.089 25.9781 109.008 25.9781 109.868C25.9781 110.645 25.9781 111.621 24.928 111.574C23.8779 111.526 23.9934 110.524 23.9514 109.768C23.9304 109.427 23.9462 109.081 23.9462 108.74Z" fill="#E4BDCC"/>
<path d="M47.4793 104.998C48.3509 105.428 50.3566 104.232 50.3881 105.759C50.4196 107.286 48.4297 106.32 47.369 106.598C47.1153 106.659 46.851 106.659 46.5972 106.598C45.8464 106.451 44.5547 107.002 44.6072 105.691C44.6492 104.615 45.8306 105.124 46.529 105.008C46.8452 104.986 47.1626 104.982 47.4793 104.998Z" fill="#E2B4C5"/>
<path d="M60.9891 38.604C60.8473 38.7877 60.7055 39.1813 60.464 39.3072C58.9833 39.9842 57.4764 40.5981 55.98 41.2331C55.623 41.38 55.2449 41.3643 55.0927 40.997C54.9036 40.5352 55.1767 40.2256 55.5599 39.9212C56.9566 38.8139 58.9098 39.0973 60.2855 37.969C60.464 37.8273 60.9891 37.9743 60.9891 38.604Z" fill="#E0B4C4"/>
<path d="M81.0357 35.2037C79.8596 35.2037 79.345 35.2351 78.8357 35.2037C78.3264 35.1722 77.9694 34.8521 78.1216 34.3745C78.4944 33.199 79.555 33.6556 80.3059 33.6818C81.2457 33.7133 82.4061 33.1308 83.0729 34.2643C83.3144 34.6736 82.8996 35.062 82.4218 35.1197C81.7445 35.2037 81.0567 35.2037 81.0357 35.2037Z" fill="#DCADC0"/>
<path d="M26.8603 123.391C24.424 121.565 24.9543 119.477 25.4584 117.398C25.7156 119.324 27.4798 120.941 26.8603 123.391Z" fill="#DEAFC0"/>
<path d="M25.7315 100.469C24.5816 98.5067 25.0804 97.0374 25.0279 95.6415C24.9912 94.7652 25.553 94.4031 26.3878 94.592C26.5369 94.6258 26.6751 94.6965 26.7898 94.7975C26.9045 94.8986 26.992 95.0268 27.0442 95.1704C27.0965 95.314 27.1118 95.4684 27.0889 95.6195C27.0659 95.7706 27.0054 95.9135 26.9129 96.0351C26.0623 97.2053 26.1673 98.6065 25.7315 100.469Z" fill="#DFB1C2"/>
<path d="M61.2726 101.288C61.1471 101.852 60.9118 102.385 60.58 102.858C60.2482 103.331 59.8265 103.734 59.3389 104.044C58.8513 104.354 58.3075 104.565 57.7384 104.664C57.1693 104.764 56.586 104.751 56.022 104.626C57.2296 102.805 59.4139 102.82 61.2726 101.288Z" fill="#DCAABD"/>
<path d="M27.6059 70.4735C26.5558 71.3708 27.7529 73.0658 26.4192 73.916C26.204 74.0576 25.7734 73.8687 25.4426 73.832C25.6632 72.5358 25.8522 71.2081 26.1147 69.9329C26.225 69.4082 26.5768 68.8834 27.1648 69.0409C27.7529 69.1983 27.5271 69.891 27.6059 70.4735Z" fill="#DDA9BD"/>
<path d="M67.6783 94.2194C67.7728 95.4998 66.5704 96.4602 66.2239 97.7721C66.1346 98.1342 65.6568 98.1552 65.3418 98.003C65.0268 97.8508 65.0215 97.4782 65.1475 97.1214C65.5518 95.9984 66.4182 95.0643 66.4339 93.7786C66.4339 93.301 66.4339 92.5716 67.127 92.6556C67.8201 92.7395 67.9934 93.3745 67.6783 94.2194Z" fill="#DEAEC0"/>
<path d="M34.1323 100.406C36.1013 100.931 37.0831 102.847 39.1204 103.198C36.9991 104.39 34.9986 103.24 34.1323 100.406Z" fill="#DCACBE"/>
<path d="M33.8015 79.2319C33.7543 78.9118 33.7123 78.8226 33.7385 78.7596C34.4736 76.9386 36.1328 76.3089 37.7762 75.6897C37.897 75.6424 38.2488 75.9048 38.3013 76.0885C38.4956 76.5451 35.886 78.3713 33.8015 79.2319Z" fill="#DCA8BC"/>
<path d="M50.3513 43.385C49.38 44.8386 47.9886 45.6363 46.5972 46.4392C46.2086 46.6596 45.7466 46.8537 45.5471 46.2817C45.5192 46.1202 45.5325 45.9544 45.5858 45.7994C45.639 45.6444 45.7304 45.5053 45.8516 45.3949C47.2902 44.6025 48.5556 43.427 50.3513 43.385Z" fill="#DBA5B8"/>
<path d="M66.4548 37.0719C67.862 34.7471 69.6052 35.062 71.4534 35.697C69.9149 36.2532 68.618 37.7751 66.4548 37.0719Z" fill="#DBA8BC"/>
<path d="M65.137 81.8242C66.2133 83.3303 68.2243 84.532 67.0377 87.3396C66.0348 85.3297 65.1527 83.7554 65.137 81.8242Z" fill="#D9A5B9"/>
<path d="M30.2259 96.6385C28.8713 95.379 27.8946 93.9569 27.9419 92.0625C28.9605 93.4531 30.7772 94.4659 30.2259 96.6385Z" fill="#DAA2B6"/>
<path d="M28.1257 128.35C28.8555 130.129 29.4068 131.441 29.9371 132.758C30.0579 133.063 30.2364 133.42 29.8374 133.666C29.4383 133.913 28.9868 133.829 28.9448 133.546C28.7085 131.966 26.9548 130.712 28.1257 128.35Z" fill="#DCA2B8"/>
<path d="M36.8049 53.8174C37.7342 52.3271 38.5008 50.6373 40.7901 50.144C40.1232 52.3323 38.443 53.046 36.8049 53.8174Z" fill="#DDA0B7"/>
<path d="M30.1839 83.3516C30.0432 85.1369 29.318 86.8263 28.1204 88.1585C27.4694 86.0594 27.8684 85.141 30.1839 83.3516Z" fill="#DAA1B6"/>
<path d="M55.8539 75.3016C57.8176 75.1284 59.1723 76.0678 60.3799 77.343C58.4319 77.6263 57.1403 76.3879 55.8539 75.3016Z" fill="#DBA9BC"/>
<path d="M25.5791 80.5754C26.1787 82.0927 26.1787 83.7811 25.5791 85.2984C25.2008 84.5687 25.0033 83.7588 25.0033 82.9369C25.0033 82.115 25.2008 81.3052 25.5791 80.5754Z" fill="#D99CB3"/>
<path d="M83.1937 311.716C82.0175 309.617 81.9808 307.214 81.6763 304.894C82.9679 306.993 83.1517 309.339 83.1937 311.716Z" fill="#B1CBDD"/>
<path d="M305.141 190.011C303.933 190.997 301.744 189.901 301.04 191.953C300.972 190.588 301.04 190.352 302.09 190.174C303.103 190.058 304.122 190.004 305.141 190.011Z" fill="#73C6DD"/>
<path d="M245.962 251.934L249.59 251.876C248.435 253.913 247.185 252.711 245.962 251.934Z" fill="#9BB9D5"/>
<path d="M93.6318 144.162C92.4977 144.382 91.2796 144.031 90.2032 144.687L88.5125 144.282C90.142 143.595 91.9717 143.552 93.6318 144.162Z" fill="#F5B291"/>
<path d="M450.188 276.624L447.563 276.477C449.064 274.604 451.422 274.184 453.412 273.208C464.155 267.96 472.03 260.178 476.047 248.67C478.27 242.56 479.455 236.121 479.554 229.62C479.596 222.4 479.586 215.2 478.599 208C477.591 200.653 479.266 193.495 481.529 186.484C482.169 184.501 482.631 182.459 483.198 180.455C483.666 178.775 484.553 178.571 485.824 179.715C487.094 180.859 488.412 182.04 489.772 183.121C490.452 183.598 490.99 184.252 491.325 185.012C491.661 185.773 491.783 186.61 491.678 187.434C492.424 188.29 492.156 189.245 491.82 190.111C490.549 193.333 489.998 196.728 489.336 200.081C488.328 201.655 488.706 203.424 488.732 205.135C488.764 210.267 488.764 215.397 488.732 220.526C488.732 222.746 488.171 225.018 489.368 227.123C489.751 236.107 492.964 244.508 494.697 253.219C495.049 254.993 495.39 256.846 494.319 258.556C494.524 261.406 494.676 264.266 494.844 267.115C494.982 269 494.384 270.864 493.174 272.316C490.292 272.484 487.73 273.89 484.952 274.509C476.404 276.467 467.751 276.724 459.051 276.608C456.132 276.598 453.16 276.598 450.188 276.624Z" fill="#BE4D7F"/>
<path d="M368.4 274.394C376.034 274.861 383.658 275.502 391.319 275.701C394.212 275.774 397.094 276.488 400.045 276.588C402.03 276.656 402.712 276.016 402.544 274.169C403.888 274.552 404.23 276.268 405.978 276.357C408.651 276.467 409.654 275.433 408.561 272.967C407.763 271.141 406.892 269.336 405.936 267.572C405.527 266.817 405.002 266.077 405.353 265.132C410.961 263.469 415.613 260.278 419.745 256.211C420.317 255.655 420.795 254.736 421.845 255.025C423.877 259.082 424.996 263.484 426.571 267.709C427.458 270.096 427.947 272.631 429.196 274.877C428.886 276.918 430.446 278.551 430.336 280.65C430.319 282.63 429.868 284.583 429.012 286.37C428.01 288.269 426.634 289.791 423.925 289.691C417.823 289.466 411.707 289.597 405.595 289.586C404.324 288.201 402.618 288.38 400.985 288.343C395.267 288.212 389.544 288.579 383.831 288.138C380.628 287.802 377.531 286.926 374.322 286.517C374.16 286.469 373.944 286.443 373.86 286.317C371.34 282.681 369.313 278.792 368.4 274.394Z" fill="#F5B291"/>
<path d="M401.825 267.709C400.313 263.768 400.733 259.58 400.034 255.303C401.258 257.203 402.329 257.108 404.104 256.253C409.14 253.916 413.864 250.958 418.165 247.447C418.627 247.059 419.015 246.56 419.687 246.513C420.669 248.119 421.441 249.798 421.262 251.761C419.85 254.306 417.33 255.623 415.03 257.077C412.717 258.617 410.254 259.92 407.679 260.965C406.272 261.406 405.081 262.357 404.34 263.631C401.946 263.568 403.29 260.897 401.893 260.383C401.972 261.795 402.213 263.427 402.418 265.069C402.57 265.987 402.696 266.985 401.825 267.709Z" fill="#D0D1D1"/>
<path d="M404.429 263.479C404.581 262.765 403.668 261.905 405.091 261.38C411.097 259.244 416.306 255.707 421.273 251.787C422.244 252.737 422.544 253.813 421.871 255.067C418.39 258.987 414.169 261.926 409.548 264.324C408.33 264.954 407.117 265.699 405.637 265.221C404.802 264.912 404.293 264.408 404.429 263.479Z" fill="#505176"/>
<path d="M290.051 42.5138L289.001 44.1511C288.791 47.4467 284.958 49.4461 281.33 47.9767C278.904 46.9954 276.425 46.161 273.979 45.2164C269.752 43.5844 265.509 41.9733 261.293 40.3046C258.825 39.3232 257.77 40.0107 258.332 42.4666C259.555 47.8035 260.128 53.2612 261.556 58.5508C262.039 60.3351 261.829 62.1928 262.254 63.9875C262.595 65.4568 263.231 65.8242 264.811 65.7297C268.229 65.5251 271.495 64.5752 274.85 64.1187C276.121 63.9455 277.476 63.5572 278.573 64.612C278.331 65.1367 278.095 65.6615 277.859 66.1863C273.832 66.9262 269.699 67.1833 265.814 68.553C262.664 69.655 260.401 68.2381 260.091 64.9478C259.681 60.6289 258.516 56.4203 257.812 52.1591C257.208 48.3703 256.016 44.6497 255.959 40.7926C255.959 39.0084 254.41 37.6807 254.83 35.7968C255.045 34.8155 255.024 33.6977 256.289 33.6977C259.34 33.7239 262.102 32.2283 265.1 32.1234C268.371 32.0237 271.443 30.3234 274.793 30.9899L277.045 31.0739C276.914 32.5012 275.785 32.5957 274.751 32.6796C272.125 32.8948 269.631 33.8236 267.064 34.0965C264.496 34.3694 261.992 35.2458 259.02 35.5554C260.595 37.0667 262.401 37.4288 263.982 38.0218C270.016 40.2923 276.005 42.6748 281.949 45.1692C284.002 46.0351 285.378 45.5943 286.879 44.2246C287.782 43.4427 288.339 41.8579 290.051 42.5138Z" fill="#B8C7D9"/>
<path d="M123.145 290.715C133.725 290.673 144.305 290.599 154.885 290.599C204.818 290.599 254.751 290.599 304.684 290.599C326.889 290.599 349.088 290.678 371.293 290.505C382.739 290.416 394.185 290.353 405.637 290.505C417.85 290.641 430.068 290.384 442.286 290.169C444.449 290.132 445.169 290.694 445.105 292.919C444.974 297.595 445.105 297.589 440.38 297.6C432.249 297.6 424.117 297.616 415.986 297.647L411.838 297.479C410.436 296.76 408.919 297.038 407.454 297.038C316.524 297.038 225.595 297.038 134.665 297.038C133.615 297.038 132.565 297.096 131.515 297.007C131.145 297 130.781 296.914 130.448 296.753C130.115 296.593 129.821 296.362 129.586 296.076C129.35 295.791 129.18 295.458 129.086 295.1C128.992 294.743 128.977 294.369 129.042 294.005C129.268 292.205 130.617 292.709 131.667 292.793C134.508 293.013 134.508 293.034 136.55 292.331C134.041 292.08 131.513 292.059 129 292.268C126.936 292.342 124.658 292.898 123.145 290.715Z" fill="#522E1D"/>
<path d="M123.145 290.715C125.075 291.388 127.125 291.649 129.163 291.481C132.25 291.229 135.374 291.418 138.981 291.418C136.167 295.191 132.906 293.748 129.814 293.15C129.73 296.451 129.766 296.487 133.232 296.487C224.917 296.487 316.601 296.487 408.283 296.487C409.517 296.487 410.977 295.963 411.848 297.437L411.323 297.631C408.173 297.6 405.023 297.537 401.872 297.537C312.43 297.537 222.996 297.537 133.568 297.537H108.979C108.937 297.369 108.89 297.196 108.843 297.012L122.169 290.589L123.145 290.715Z" fill="#5B3B2A"/>
<path d="M278.604 64.5907C275.744 64.5027 272.893 64.9604 270.203 65.9393C268.056 66.7475 265.567 65.6245 263.32 66.9206C262.622 67.3247 261.886 66.165 261.745 65.2361C261.22 61.6834 260.973 58.0468 260.044 54.599C259.114 51.1513 259.13 47.4097 257.796 44.0091C257.324 42.6818 257.258 41.244 257.607 39.8792C257.996 38.1422 259.707 38.6302 260.626 39.0658C267.452 42.4086 274.908 44.2768 281.797 47.5041C284.222 48.6376 287.42 47.0633 289.016 44.1298C292.125 42.3719 294.661 39.8844 297.344 37.5859C300.027 35.2875 302.479 33.01 305.13 30.8269C306.768 29.4782 308.223 30.0293 308.386 32.0706C308.811 37.3813 310.192 42.5136 311.053 47.7403C306.653 48.2965 302.256 48.851 297.863 49.4038C290.14 50.3641 284.847 54.8247 280.773 61.1167C280.038 62.2869 279.744 63.7195 278.604 64.5907Z" fill="#DAE7EA"/>
<path d="M235.308 333.221C236.295 333.184 236.731 333.84 236.852 334.653C236.877 334.806 236.865 334.963 236.816 335.11C236.767 335.257 236.683 335.39 236.572 335.497C236.46 335.604 236.324 335.683 236.175 335.726C236.027 335.769 235.87 335.776 235.718 335.745C235.276 335.731 234.856 335.552 234.541 335.242C234.226 334.933 234.039 334.517 234.017 334.076C233.948 333.2 234.71 333.273 235.308 333.221Z" fill="#C9E0E3"/>
<path d="M49.0755 327.501C47.0698 326.336 46.2875 324.158 44.8751 322.416C39.5352 328.482 32.6307 327.984 25.6317 327.023C24.5133 326.871 23.4212 326.577 22.3133 326.346C20.8904 323.927 22.0141 321.476 22.6546 319.272C25.1907 310.524 29.6484 302.627 34.3949 294.934C37.9128 289.234 38.7791 283.263 37.7868 276.761C36.994 271.544 36.5739 266.265 35.9649 261.018C35.8651 260.614 35.7151 260.224 35.5185 259.858C34.1744 252.889 29.7114 246.896 28.8871 239.827C27.9892 232.076 27.1806 224.221 30.1735 216.638C34.2718 217.787 38.5695 218.041 42.7748 217.383C42.3653 218.779 41.1104 218.753 40.0393 218.889C38.5575 219.032 37.0665 219.051 35.5815 218.947C32.888 218.857 31.7276 219.75 32.0794 222.389C32.51 225.664 32.8722 228.98 34.0064 232.129C36.6632 239.502 40.8321 246.098 44.7281 252.805C46.7128 256.195 49.0598 259.375 50.6192 263.012C51.6693 266.743 54.3576 269.529 56.2688 272.762C58.6211 276.74 61.3094 280.518 63.8507 284.38C62.118 284.485 61.8082 286.012 61.4511 287.151C59.5609 293.191 57.487 299.179 55.6755 305.245C54.1371 310.357 52.8034 315.557 51.0865 320.637C50.3304 322.878 50.1151 325.323 49.0755 327.501Z" fill="#4E5076"/>
<path d="M72.64 258.866C69.7627 255.718 68.3555 251.74 66.3761 248.082C64.9847 245.516 63.6563 242.913 62.2964 240.326C59.7498 237.419 58.2692 233.845 56.2687 230.597C53.1233 225.584 49.4935 220.891 45.4315 216.586C45.505 215.568 46.3346 215.751 46.9699 215.625C53.5332 218.916 60.3274 221.676 67.1164 224.436C70.4295 225.785 70.8653 225.386 71.0333 221.891C71.1436 219.677 70.335 217.352 71.7107 215.263C74.7717 216.57 75.4438 219.561 76.5044 222.222C77.9641 225.864 79.1297 229.621 80.7049 233.242C81.4347 234.937 82.7526 236.39 83.808 237.928C84.8581 240.08 85.9502 242.226 86.9583 244.398C87.531 245.589 87.7147 246.929 87.4834 248.229C86.008 249.415 84.1178 249.583 82.4533 250.292C79.1192 251.703 76.1211 253.603 74.3149 256.946C73.8949 257.675 73.5169 258.499 72.64 258.866Z" fill="#4E5076"/>
<path d="M72.6401 258.867C75.2653 252.118 80.8887 249.489 87.4677 248.208C87.9927 251.462 86.1078 254.249 85.693 257.319C84.0128 261.448 80.5789 264.833 80.4739 269.63C80.4739 270.154 79.9488 270.249 79.5498 270.359C77.5581 267.326 75.5716 264.289 73.5904 261.249C73.1126 260.52 72.5771 259.806 72.6401 258.867Z" fill="#3B3E68"/>
<path d="M180.797 148.181C180.797 144.508 180.755 140.834 180.797 137.161C180.833 134.842 182.041 134.096 183.979 135.372C189.184 138.793 194.329 142.307 199.415 145.914C200.77 146.864 200.927 148.391 199.562 149.462C194.245 153.628 188.874 157.723 183.448 161.747C182.067 162.765 180.86 161.936 180.823 159.978C180.739 156.042 180.823 152.107 180.823 148.176L180.797 148.181Z" fill="#F5F4F4"/>
<path d="M368.4 274.395L373.992 285.992C374.721 286.774 375.472 287.566 374.202 288.511C373.299 288.946 372.327 288.868 371.372 288.868H316.629C315.416 288.868 314.161 288.999 313.148 288.091C313.059 287.12 311.772 286.627 312.098 285.467C315.574 279.821 320.079 275.355 326.274 272.7C327.361 272.233 329.278 271.744 327.997 269.357C327.162 267.782 327.997 266.502 330.207 265.92C333.189 265.138 335.652 265.883 338.135 267.163C338.892 267.552 339.674 267.809 340.377 267.504C342.803 266.455 345.413 266.35 347.949 265.846C352.948 264.843 358.011 264.196 363.102 263.91C364.761 265.925 365.554 268.391 366.625 270.732C366.829 271.384 367.19 271.977 367.675 272.458L368.4 274.395Z" fill="#D9E6EA"/>
<path d="M365.134 221.014C367.234 223.292 369.334 222.253 371.403 221.014C374.9 222.137 378.339 223.376 380.854 226.262C381.337 227.013 381.463 227.679 380.523 228.225C379.978 228.591 379.342 228.797 378.686 228.82C378.03 228.843 377.381 228.682 376.811 228.356C374.322 226.986 371.755 225.732 369.345 224.252C368.227 223.56 367.523 223.675 366.567 224.394C364.278 226.12 361.6 227.17 359.049 228.419C356.497 229.668 355.126 228.786 355.179 226.267C358.085 223.828 361.479 222.037 365.134 221.014Z" fill="#333561"/>
<path d="M365.134 221.014L355.158 226.262C353.121 225.212 354.265 224.163 355.158 223.077L362.551 219.33C363.947 219.115 364.226 220.542 365.134 221.014Z" fill="#C6C5C6"/>
<path d="M380.859 226.22L371.408 220.972C371.823 220.049 372.269 219.172 373.509 219.288L381.841 223.607C381.799 224.609 382.461 225.853 380.859 226.22Z" fill="#CBCACB"/>
<path d="M313.148 288.091L374.627 288.054C375.032 287.718 375.511 287.481 376.024 287.362C376.537 287.242 377.071 287.244 377.583 287.367C379.552 287.724 381.532 287.367 383.49 287.582C390.001 287.582 396.517 287.619 403.027 287.582C404.466 287.582 405.695 287.703 405.605 289.587C395.215 289.623 384.824 289.697 374.438 289.692C354.003 289.692 333.568 289.662 313.132 289.602L313.148 288.091Z" fill="#A5C3DA"/>
<path d="M75.3809 163.772C77.5389 165.709 77.5284 168.716 77.7069 170.988C78.0167 174.966 79.4448 178.86 78.967 182.853C78.1584 189.596 77.1976 196.392 72.6139 201.824C71.233 203.466 69.3637 204.972 66.8015 204.71C64.7012 204.51 64.1132 205.649 63.7509 207.659C63.1628 210.965 64.864 212.256 67.4998 213.122C69.5633 214.738 70.6501 219.944 69.4373 222.096C69.2672 222.4 69.0066 222.645 68.6915 222.795C68.3764 222.946 68.0224 222.995 67.6783 222.935C66.721 222.86 65.7862 222.608 64.9217 222.19C60.1122 219.928 55.1609 218.039 50.1676 216.244C49.3328 215.945 48.5925 215.541 48.2354 214.633C54.2526 209.386 56.4578 199.94 50.1519 191.375C48.5767 189.276 47.1696 187.083 46.6865 184.433C46.471 183.186 46.6657 181.903 47.2412 180.776C47.8168 179.649 48.7422 178.739 49.8789 178.183C50.7347 177.794 51.3227 177.983 51.7848 178.875C52.6564 180.56 53.6225 182.197 54.5624 183.866C55.3342 183.283 55.3867 182.444 55.5442 181.725C56.2898 178.324 57.9122 176.094 61.4669 174.719C67.106 172.51 71.6582 168.558 75.3809 163.772Z" fill="#F4B191"/>
<path d="M45.4316 216.585C48.1986 217.902 50.0206 220.337 51.6798 222.657C55.6755 228.251 59.5556 233.96 62.2964 240.326C61.0888 239.68 60.4902 240.63 60.0019 241.375C58.0669 244.2 56.3234 247.15 54.7829 250.207C52.7666 254.311 52.3624 258.876 50.6297 263.033C47.8364 260.467 46.4765 256.93 44.56 253.802C40.8846 247.793 37.2092 241.732 34.4264 235.225C32.6517 231.106 32.1214 226.787 31.3916 222.473C31.1973 221.313 31.7328 220.28 32.0689 219.199C32.4312 218.013 32.8932 217.85 34.1219 218.034C37.0202 218.459 39.9973 218.91 42.7853 217.404C43.5944 216.935 44.499 216.655 45.4316 216.585Z" fill="#90B4D1"/>
<path d="M48.2353 214.607C52.399 216.218 56.5785 217.756 60.7107 219.461C62.8634 220.343 64.9111 221.45 67.1479 222.174C68.5708 222.636 69.1431 222.395 69.0801 220.904C68.9698 218.217 69.7784 215.342 67.5049 213.096C69.0896 213.384 70.5521 214.139 71.7054 215.263C71.7316 217.955 71.8104 220.647 71.7736 223.339C71.7369 225.905 70.9126 226.556 68.5078 225.632C64.0028 223.911 59.5398 222.064 55.1136 220.143C52.6878 219.094 50.1098 218.338 47.9045 216.764C47.4802 216.491 47.1516 216.093 46.9647 215.625C47.3375 215.2 47.6053 214.675 48.2353 214.607Z" fill="#B1C8D9"/>
<path d="M283.088 176.01C283.031 174.819 283.661 174.011 284.784 173.418C285.908 172.825 286.727 172.804 287.635 173.664C288.161 174.189 288.717 174.877 289.541 173.911C290.592 172.715 291.752 172.804 293.054 173.57C294.356 174.336 294.424 175.522 294.319 176.761C294.12 179.127 290.497 182.37 288.397 182.129C285.992 181.851 283.004 178.466 283.088 176.01Z" fill="#FBF8F9"/>
<path d="M301.639 223.402C301.596 225.1 300.898 226.715 299.692 227.911C298.485 229.107 296.864 229.791 295.165 229.82C291.689 229.82 288.502 226.598 288.596 223.151C288.686 221.456 289.412 219.858 290.63 218.676C291.848 217.493 293.467 216.814 295.165 216.775C296.03 216.769 296.887 216.938 297.685 217.271C298.483 217.605 299.206 218.095 299.811 218.714C300.415 219.332 300.888 220.066 301.202 220.872C301.516 221.678 301.665 222.538 301.639 223.402Z" fill="#FBFAF7"/>
<path d="M290.051 42.5134C288.318 43.075 287.462 44.728 286.097 45.7618C284.979 46.6067 284.149 46.8113 282.81 46.2865C275.128 43.2061 267.394 40.2517 259.708 37.2133C258.894 36.8932 257.607 36.615 257.786 35.513C257.949 34.5264 259.188 34.7941 260.023 34.6576C265.378 33.7603 270.66 32.4484 276.068 31.8606C276.431 31.8239 276.751 31.3673 277.087 31.0997C281.939 31.1889 286.538 29.6828 291.264 28.8956C295.69 28.1557 300.121 27.4315 304.558 26.7598C305.183 26.6654 306.133 26.3558 306.459 27.0852C306.784 27.8146 305.934 28.2239 305.409 28.6595C300.442 32.9731 295.483 37.299 290.534 41.6371C290.326 41.9012 290.163 42.1972 290.051 42.5134Z" fill="#D64F82"/>
<path d="M488.029 220.821C488.554 222.92 489.079 224.992 488.848 227.181C487.121 225.25 488.312 222.941 488.029 220.821Z" fill="#D64F82"/>
<path d="M488.858 199.982C488.831 201.611 488.549 203.225 488.024 204.768C488.213 203.172 487.257 201.362 488.858 199.982Z" fill="#D64F82"/>
<path d="M383.49 287.582C380.57 288.437 377.583 287.928 374.622 288.054C374.622 287.309 373.776 286.81 373.992 285.992C377.289 285.724 380.308 287.13 383.49 287.582Z" fill="#767A96"/>
<path d="M295.543 227.27C294.881 227.294 294.218 227.258 293.563 227.16C293.104 227.05 292.675 226.836 292.311 226.535C291.947 226.234 291.657 225.853 291.463 225.423C291.138 224.478 291.936 224.557 292.513 224.94C292.87 225.171 293.128 225.591 293.5 225.759C294.939 226.404 296.341 226.499 297.58 225.276C297.926 224.935 298.383 224.378 298.824 225.05C299.171 225.575 298.662 225.911 298.252 226.283C297.898 226.633 297.473 226.902 297.005 227.072C296.538 227.242 296.039 227.31 295.543 227.27Z" fill="#F2CDA1"/>
<path d="M298.142 220.448C298.407 220.423 298.671 220.5 298.882 220.662C299.092 220.825 299.233 221.062 299.276 221.324C299.312 221.476 299.312 221.635 299.275 221.788C299.238 221.94 299.165 222.081 299.062 222.2C298.96 222.318 298.83 222.41 298.685 222.469C298.539 222.528 298.382 222.551 298.226 222.536C298.072 222.554 297.916 222.537 297.77 222.487C297.623 222.438 297.49 222.356 297.378 222.249C297.267 222.142 297.181 222.011 297.126 221.867C297.071 221.722 297.048 221.567 297.06 221.413C297.107 220.799 297.58 220.537 298.142 220.448Z" fill="#F3B779"/>
<path d="M293.621 221.45C293.605 221.753 293.487 222.042 293.287 222.271C293.088 222.5 292.817 222.656 292.519 222.714C292.369 222.726 292.218 222.709 292.075 222.663C291.932 222.616 291.8 222.542 291.686 222.445C291.572 222.347 291.478 222.228 291.41 222.094C291.342 221.96 291.301 221.814 291.29 221.665C291.252 221.519 291.25 221.367 291.283 221.221C291.317 221.075 291.385 220.938 291.483 220.824C291.58 220.71 291.704 220.621 291.843 220.564C291.982 220.508 292.133 220.486 292.282 220.5C292.579 220.491 292.87 220.578 293.111 220.75C293.353 220.921 293.532 221.167 293.621 221.45Z" fill="#F3BC82"/>
<path d="M234.184 309.844C273.483 309.844 305.34 341.701 305.34 381H234.184V309.844Z" fill="#36CFD1"/>
<path fill-rule="evenodd" clip-rule="evenodd" d="M505.532 301.148L505.002 300.841L482.78 338.494L521.283 361.217C521.283 361.217 505.002 300.841 505.532 301.148Z" fill="#6852FB"/>
<rect x="225.32" y="201.102" width="4.45826" height="10.3597" rx="2.22913" transform="rotate(-55.3263 225.32 201.102)" fill="#5339FF"/>
<path fill-rule="evenodd" clip-rule="evenodd" d="M209.879 198.953C212.382 204.419 218.803 206.974 224.205 204.597C225.527 204.018 226.722 203.185 227.722 202.145C228.722 201.105 229.507 199.878 230.031 198.536C230.555 197.194 230.809 195.762 230.777 194.323C230.745 192.884 230.429 191.466 229.846 190.151C227.366 184.646 221.157 182.401 215.603 184.551C210.977 186.337 207.146 192.986 209.879 198.953ZM213.402 197.57C214.968 200.985 219.072 202.541 222.559 201.005C223.413 200.631 224.187 200.098 224.838 199.437C225.488 198.776 226.001 197.999 226.348 197.152C226.695 196.304 226.869 195.403 226.86 194.499C226.851 193.595 226.659 192.707 226.295 191.885C224.744 188.445 220.774 187.082 217.19 188.476C214.206 189.635 211.693 193.842 213.402 197.57Z" fill="#7763FB"/>
</svg>
