<svg width="17" height="17" viewBox="0 0 17 17" fill="none" xmlns="http://www.w3.org/2000/svg">
<rect width="17" height="17" rx="2" fill="#4267B2"/>
<path fill-rule="evenodd" clip-rule="evenodd" d="M7.61846 12.5C7.61916 12.4804 7.62054 12.4608 7.62054 12.4412C7.62064 11.2597 7.62064 10.0781 7.62064 8.89659V8.85134H7.56847H6.40144C6.34738 8.85134 6.34718 8.85124 6.34718 8.8009C6.34708 8.35864 6.34768 7.91638 6.34619 7.47412C6.34609 7.43377 6.35879 7.42368 6.39916 7.42377C6.78817 7.42521 7.17718 7.42464 7.56629 7.42464H7.62064V7.38188C7.62134 7.01418 7.61836 6.64648 7.62392 6.27897C7.62838 5.98324 7.6873 5.69682 7.82051 5.42847C8.00132 5.06413 8.2851 4.80366 8.67103 4.64839C8.92902 4.54462 9.199 4.4962 9.47693 4.50023C9.79551 4.50494 10.1139 4.51878 10.4324 4.52983C10.4916 4.53184 10.5505 4.54164 10.6097 4.54453C10.6427 4.54626 10.6538 4.55807 10.6536 4.59007C10.6524 4.7732 10.6531 4.95633 10.6531 5.13965C10.6531 5.35554 10.6522 5.57144 10.6539 5.78733C10.6542 5.8249 10.6431 5.83633 10.6038 5.83614C10.3621 5.8345 10.1202 5.83162 9.87853 5.83691C9.76863 5.8394 9.65725 5.85103 9.55013 5.8737C9.34312 5.91771 9.22063 6.0502 9.17946 6.24948C9.1629 6.32961 9.15358 6.41252 9.15268 6.49419C9.14951 6.79377 9.15139 7.09345 9.15139 7.39312C9.15139 7.40196 9.15259 7.4109 9.15348 7.42464H9.20624H10.5435C10.6019 7.42464 10.6028 7.42493 10.5957 7.47844C10.564 7.71394 10.5315 7.94953 10.5001 8.18512C10.4741 8.38199 10.4486 8.57885 10.4243 8.77601C10.415 8.85115 10.4168 8.85134 10.3389 8.85134C9.96056 8.85134 9.58236 8.85134 9.20416 8.85144H9.1513V8.90832C9.1513 10.0768 9.15139 11.2452 9.1513 12.4137C9.1513 12.4424 9.1507 12.4712 9.1503 12.5H7.61846Z" fill="white"/>
</svg>
