<svg width="15" height="15" viewBox="0 0 15 15" fill="none" xmlns="http://www.w3.org/2000/svg">
<path d="M7.50003 9.24372C7.42438 9.24282 7.3498 9.22577 7.28128 9.19372C7.18753 9.14372 5.00003 7.94372 4.53128 6.37497C4.38781 5.97604 4.33745 5.54959 4.38403 5.12821C4.4306 4.70684 4.5729 4.30169 4.80003 3.94372C4.96901 3.72139 5.18891 3.5429 5.44124 3.42326C5.69357 3.30362 5.97095 3.24633 6.25003 3.25622C6.48431 3.24977 6.71724 3.29389 6.93295 3.38556C7.14865 3.47724 7.34207 3.61432 7.50003 3.78747C7.65798 3.61432 7.8514 3.47724 8.06711 3.38556C8.28281 3.29389 8.51574 3.24977 8.75003 3.25622C9.02702 3.24835 9.30191 3.30661 9.5519 3.42617C9.80189 3.54573 10.0198 3.72315 10.1875 3.94372C10.4147 4.30169 10.5569 4.70684 10.6035 5.12821C10.6501 5.54959 10.5997 5.97604 10.4563 6.37497C9.98753 7.97497 7.80003 9.14372 7.70628 9.19372C7.64159 9.22409 7.57144 9.2411 7.50003 9.24372ZM6.25003 4.19372C6.11843 4.18404 5.9865 4.20758 5.86637 4.26218C5.74624 4.31679 5.64176 4.4007 5.56253 4.50622C5.42464 4.74831 5.34244 5.01809 5.32189 5.29594C5.30135 5.57379 5.34299 5.85273 5.44378 6.11247C5.70628 7.01247 6.87503 7.86247 7.51253 8.23747C8.13753 7.85622 9.31878 6.98747 9.58128 6.11247C9.68206 5.85273 9.7237 5.57379 9.70316 5.29594C9.68262 5.01809 9.60041 4.74831 9.46253 4.50622C9.3578 4.368 9.21247 4.266 9.04688 4.2145C8.8813 4.16299 8.70375 4.16456 8.5391 4.21898C8.37445 4.2734 8.23095 4.37796 8.12868 4.518C8.02641 4.65805 7.9705 4.82657 7.96878 4.99997C7.96878 5.12429 7.91939 5.24352 7.83148 5.33143C7.74357 5.41933 7.62435 5.46872 7.50003 5.46872C7.37571 5.46872 7.25648 5.41933 7.16857 5.33143C7.08066 5.24352 7.03128 5.12429 7.03128 4.99997C7.03551 4.89507 7.01839 4.7904 6.98095 4.69231C6.94351 4.59423 6.88654 4.50478 6.81348 4.42938C6.74042 4.35398 6.6528 4.29421 6.55594 4.25371C6.45909 4.2132 6.35501 4.19279 6.25003 4.19372Z" fill="#36CFD1"/>
<path d="M11.7254 11.0937H3.27539C2.61235 11.0937 1.97646 10.8303 1.50762 10.3614C1.03878 9.89258 0.775391 9.25669 0.775391 8.59365V3.8999C0.775391 3.23686 1.03878 2.60098 1.50762 2.13214C1.97646 1.66329 2.61235 1.3999 3.27539 1.3999H11.7254C12.3884 1.3999 13.0243 1.66329 13.4932 2.13214C13.962 2.60098 14.2254 3.23686 14.2254 3.8999V8.5999C14.2237 9.26186 13.9596 9.89614 13.491 10.3636C13.0223 10.8311 12.3874 11.0937 11.7254 11.0937ZM3.27539 2.34365C2.86315 2.3453 2.46827 2.50979 2.17677 2.80129C1.88528 3.09278 1.72079 3.48767 1.71914 3.8999V8.5999C1.72079 9.01214 1.88528 9.40702 2.17677 9.69852C2.46827 9.99002 2.86315 10.1545 3.27539 10.1562H11.7254C12.1376 10.1545 12.5325 9.99002 12.824 9.69852C13.1155 9.40702 13.28 9.01214 13.2816 8.5999V3.8999C13.28 3.48767 13.1155 3.09278 12.824 2.80129C12.5325 2.50979 12.1376 2.3453 11.7254 2.34365H3.27539Z" fill="#36CFD1"/>
<path d="M7.5 13.5936C7.37618 13.592 7.25789 13.5421 7.17033 13.4545C7.08277 13.367 7.03287 13.2487 7.03125 13.1249V10.6249C7.03125 10.5006 7.08064 10.3813 7.16854 10.2934C7.25645 10.2055 7.37568 10.1561 7.5 10.1561C7.62432 10.1561 7.74355 10.2055 7.83146 10.2934C7.91936 10.3813 7.96875 10.5006 7.96875 10.6249V13.1249C7.96713 13.2487 7.91723 13.367 7.82967 13.4545C7.74211 13.5421 7.62382 13.592 7.5 13.5936Z" fill="#36CFD1"/>
<path d="M11.25 13.5938H3.75C3.62568 13.5938 3.50645 13.5444 3.41854 13.4565C3.33064 13.3685 3.28125 13.2493 3.28125 13.125C3.28125 13.0007 3.33064 12.8815 3.41854 12.7935C3.50645 12.7056 3.62568 12.6562 3.75 12.6562H11.25C11.3743 12.6562 11.4935 12.7056 11.5815 12.7935C11.6694 12.8815 11.7188 13.0007 11.7188 13.125C11.7188 13.2493 11.6694 13.3685 11.5815 13.4565C11.4935 13.5444 11.3743 13.5938 11.25 13.5938Z" fill="#36CFD1"/>
</svg>
