<svg width="15" height="15" viewBox="0 0 15 15" fill="none" xmlns="http://www.w3.org/2000/svg">
<rect width="15" height="15" fill="#FCFCFE"/>
<g clip-path="url(#clip0)">
<path d="M4.79167 8.58333C4.79167 8.72699 4.7346 8.86477 4.63302 8.96635C4.53143 9.06793 4.39366 9.125 4.25 9.125H3.70833C3.56467 9.125 3.4269 9.06793 3.32532 8.96635C3.22374 8.86477 3.16667 8.72699 3.16667 8.58333C3.16667 8.43967 3.22374 8.3019 3.32532 8.20032C3.4269 8.09874 3.56467 8.04167 3.70833 8.04167H4.25C4.39366 8.04167 4.53143 8.09874 4.63302 8.20032C4.7346 8.3019 4.79167 8.43967 4.79167 8.58333ZM6.95833 8.04167H6.41667C6.27301 8.04167 6.13523 8.09874 6.03365 8.20032C5.93207 8.3019 5.875 8.43967 5.875 8.58333C5.875 8.72699 5.93207 8.86477 6.03365 8.96635C6.13523 9.06793 6.27301 9.125 6.41667 9.125H6.95833C7.10199 9.125 7.23977 9.06793 7.34135 8.96635C7.44293 8.86477 7.5 8.72699 7.5 8.58333C7.5 8.43967 7.44293 8.3019 7.34135 8.20032C7.23977 8.09874 7.10199 8.04167 6.95833 8.04167ZM4.25 10.2083H3.70833C3.56467 10.2083 3.4269 10.2654 3.32532 10.367C3.22374 10.4686 3.16667 10.6063 3.16667 10.75C3.16667 10.8937 3.22374 11.0314 3.32532 11.133C3.4269 11.2346 3.56467 11.2917 3.70833 11.2917H4.25C4.39366 11.2917 4.53143 11.2346 4.63302 11.133C4.7346 11.0314 4.79167 10.8937 4.79167 10.75C4.79167 10.6063 4.7346 10.4686 4.63302 10.367C4.53143 10.2654 4.39366 10.2083 4.25 10.2083ZM6.95833 10.2083H6.41667C6.27301 10.2083 6.13523 10.2654 6.03365 10.367C5.93207 10.4686 5.875 10.6063 5.875 10.75C5.875 10.8937 5.93207 11.0314 6.03365 11.133C6.13523 11.2346 6.27301 11.2917 6.41667 11.2917H6.95833C7.10199 11.2917 7.23977 11.2346 7.34135 11.133C7.44293 11.0314 7.5 10.8937 7.5 10.75C7.5 10.6063 7.44293 10.4686 7.34135 10.367C7.23977 10.2654 7.10199 10.2083 6.95833 10.2083ZM4.25 3.70833H3.70833C3.56467 3.70833 3.4269 3.7654 3.32532 3.86698C3.22374 3.96857 3.16667 4.10634 3.16667 4.25C3.16667 4.39366 3.22374 4.53143 3.32532 4.63302C3.4269 4.7346 3.56467 4.79167 3.70833 4.79167H4.25C4.39366 4.79167 4.53143 4.7346 4.63302 4.63302C4.7346 4.53143 4.79167 4.39366 4.79167 4.25C4.79167 4.10634 4.7346 3.96857 4.63302 3.86698C4.53143 3.7654 4.39366 3.70833 4.25 3.70833ZM6.95833 3.70833H6.41667C6.27301 3.70833 6.13523 3.7654 6.03365 3.86698C5.93207 3.96857 5.875 4.10634 5.875 4.25C5.875 4.39366 5.93207 4.53143 6.03365 4.63302C6.13523 4.7346 6.27301 4.79167 6.41667 4.79167H6.95833C7.10199 4.79167 7.23977 4.7346 7.34135 4.63302C7.44293 4.53143 7.5 4.39366 7.5 4.25C7.5 4.10634 7.44293 3.96857 7.34135 3.86698C7.23977 3.7654 7.10199 3.70833 6.95833 3.70833ZM4.25 5.875H3.70833C3.56467 5.875 3.4269 5.93207 3.32532 6.03365C3.22374 6.13523 3.16667 6.27301 3.16667 6.41667C3.16667 6.56033 3.22374 6.6981 3.32532 6.79968C3.4269 6.90127 3.56467 6.95833 3.70833 6.95833H4.25C4.39366 6.95833 4.53143 6.90127 4.63302 6.79968C4.7346 6.6981 4.79167 6.56033 4.79167 6.41667C4.79167 6.27301 4.7346 6.13523 4.63302 6.03365C4.53143 5.93207 4.39366 5.875 4.25 5.875ZM6.95833 5.875H6.41667C6.27301 5.875 6.13523 5.93207 6.03365 6.03365C5.93207 6.13523 5.875 6.27301 5.875 6.41667C5.875 6.56033 5.93207 6.6981 6.03365 6.79968C6.13523 6.90127 6.27301 6.95833 6.41667 6.95833H6.95833C7.10199 6.95833 7.23977 6.90127 7.34135 6.79968C7.44293 6.6981 7.5 6.56033 7.5 6.41667C7.5 6.27301 7.44293 6.13523 7.34135 6.03365C7.23977 5.93207 7.10199 5.875 6.95833 5.875ZM14 6.41667V11.2917C13.9991 12.0097 13.7135 12.6981 13.2058 13.2058C12.6981 13.7135 12.0097 13.9991 11.2917 14H3.70833C2.9903 13.9991 2.30193 13.7135 1.7942 13.2058C1.28648 12.6981 1.00086 12.0097 1 11.2917L1 3.70833C1.00086 2.9903 1.28648 2.30193 1.7942 1.7942C2.30193 1.28648 2.9903 1.00086 3.70833 1L6.95833 1C7.67636 1.00086 8.36474 1.28648 8.87246 1.7942C9.38019 2.30193 9.66581 2.9903 9.66667 3.70833H11.2917C12.0097 3.70919 12.6981 3.99481 13.2058 4.50254C13.7135 5.01026 13.9991 5.69864 14 6.41667ZM3.70833 12.9167H8.58333V3.70833C8.58333 3.27736 8.41213 2.86403 8.10738 2.55928C7.80264 2.25454 7.38931 2.08333 6.95833 2.08333H3.70833C3.27736 2.08333 2.86403 2.25454 2.55928 2.55928C2.25454 2.86403 2.08333 3.27736 2.08333 3.70833V11.2917C2.08333 11.7226 2.25454 12.136 2.55928 12.4407C2.86403 12.7455 3.27736 12.9167 3.70833 12.9167ZM12.9167 6.41667C12.9167 5.98569 12.7455 5.57236 12.4407 5.26762C12.136 4.96287 11.7226 4.79167 11.2917 4.79167H9.66667V12.9167H11.2917C11.7226 12.9167 12.136 12.7455 12.4407 12.4407C12.7455 12.136 12.9167 11.7226 12.9167 11.2917V6.41667ZM11.2917 8.04167C11.1845 8.04167 11.0798 8.07344 10.9907 8.13295C10.9017 8.19247 10.8322 8.27707 10.7912 8.37605C10.7502 8.47502 10.7395 8.58393 10.7604 8.68901C10.7813 8.79408 10.8329 8.8906 10.9087 8.96635C10.9844 9.0421 11.0809 9.09369 11.186 9.11459C11.2911 9.13549 11.4 9.12477 11.499 9.08377C11.5979 9.04277 11.6825 8.97334 11.742 8.88427C11.8016 8.79519 11.8333 8.69046 11.8333 8.58333C11.8333 8.43967 11.7763 8.3019 11.6747 8.20032C11.5731 8.09874 11.4353 8.04167 11.2917 8.04167ZM11.2917 10.2083C11.1845 10.2083 11.0798 10.2401 10.9907 10.2996C10.9017 10.3591 10.8322 10.4437 10.7912 10.5427C10.7502 10.6417 10.7395 10.7506 10.7604 10.8557C10.7813 10.9607 10.8329 11.0573 10.9087 11.133C10.9844 11.2088 11.0809 11.2604 11.186 11.2813C11.2911 11.3022 11.4 11.2914 11.499 11.2504C11.5979 11.2094 11.6825 11.14 11.742 11.0509C11.8016 10.9619 11.8333 10.8571 11.8333 10.75C11.8333 10.6063 11.7763 10.4686 11.6747 10.367C11.5731 10.2654 11.4353 10.2083 11.2917 10.2083ZM11.2917 5.875C11.1845 5.875 11.0798 5.90677 10.9907 5.96629C10.9017 6.02581 10.8322 6.1104 10.7912 6.20938C10.7502 6.30836 10.7395 6.41727 10.7604 6.52234C10.7813 6.62741 10.8329 6.72393 10.9087 6.79968C10.9844 6.87544 11.0809 6.92703 11.186 6.94793C11.2911 6.96883 11.4 6.9581 11.499 6.9171C11.5979 6.8761 11.6825 6.80668 11.742 6.7176C11.8016 6.62852 11.8333 6.5238 11.8333 6.41667C11.8333 6.27301 11.7763 6.13523 11.6747 6.03365C11.5731 5.93207 11.4353 5.875 11.2917 5.875Z" fill="#36CFD1"/>
</g>
<defs>
<clipPath id="clip0">
<rect width="13" height="13" fill="white" transform="translate(1 1)"/>
</clipPath>
</defs>
</svg>
