<svg width="17" height="16" viewBox="0 0 17 16" fill="none" xmlns="http://www.w3.org/2000/svg">
<path d="M16.2628 8.18252C16.2635 7.63737 16.2161 7.09318 16.121 6.55591H8.35547V9.63692H12.8032C12.7122 10.129 12.5196 10.5981 12.2369 11.0159C11.9543 11.4337 11.5875 11.7916 11.1586 12.0679V14.0679H13.8131C15.3673 12.6757 16.2628 10.6169 16.2628 8.18252Z" fill="#4285F4"/>
<path d="M8.35555 15.9999C10.5777 15.9999 12.4488 15.2911 13.8132 14.0689L11.1587 12.0689C10.4199 12.5556 9.46834 12.8334 8.35555 12.8334C6.20773 12.8334 4.38471 11.4267 3.73282 9.53125H0.998291V11.5923C1.68366 12.9172 2.73459 14.031 4.03376 14.8093C5.33293 15.5877 6.82921 15.9999 8.35555 15.9999Z" fill="#34A853"/>
<path d="M3.73268 9.53137C3.38805 8.53812 3.38805 7.4625 3.73268 6.46925V4.4082H0.99816C0.421607 5.52278 0.121338 6.7529 0.121338 8.00031C0.121338 9.24771 0.421607 10.4778 0.99816 11.5924L3.73268 9.53137Z" fill="#FBBC04"/>
<path d="M8.35554 3.16708C9.52985 3.14845 10.6645 3.57949 11.5144 4.36704L13.8646 2.08379C12.3743 0.723918 10.4 -0.0226733 8.35554 0.000524857C6.82921 0.000592438 5.33293 0.412794 4.03376 1.19111C2.73459 1.96942 1.68366 3.08322 0.998291 4.40815L3.73281 6.46919C4.38471 4.5737 6.20772 3.16708 8.35554 3.16708Z" fill="#EA4335"/>
</svg>
