<svg width="24" height="24" viewBox="0 0 24 24" fill="none" xmlns="http://www.w3.org/2000/svg">
<rect width="24" height="24" rx="12" fill="#553CFB"/>
<path fill-rule="evenodd" clip-rule="evenodd" d="M16.0527 9.37238C16.0527 9.74517 15.7505 10.0474 15.3777 10.0474C15.0049 10.0474 14.7026 9.74517 14.7026 9.37238C14.7026 8.99959 15.0049 8.69738 15.3777 8.69738C15.7505 8.69738 16.0527 8.99959 16.0527 9.37238ZM12.375 14.25C11.3395 14.25 10.5 13.4105 10.5 12.375C10.5 11.3395 11.3395 10.5 12.375 10.5C13.4105 10.5 14.25 11.3395 14.25 12.375C14.25 13.4105 13.4105 14.25 12.375 14.25ZM12.3751 9.48642C10.7798 9.48642 9.48658 10.7796 9.48658 12.3749C9.48658 13.9702 10.7798 15.2635 12.3751 15.2635C13.9704 15.2635 15.2636 13.9702 15.2636 12.3749C15.2636 10.7796 13.9704 9.48642 12.3751 9.48642ZM12.375 6.75C10.8473 6.75 10.6558 6.75646 10.0558 6.78384C9.45712 6.81117 9.04821 6.90623 8.69041 7.04531C8.32052 7.18906 8.00684 7.38141 7.69412 7.69412C7.38141 8.00679 7.18906 8.32047 7.04531 8.69041C6.90627 9.04821 6.81117 9.45708 6.78384 10.0558C6.75646 10.6558 6.75 10.8473 6.75 12.375C6.75 13.9027 6.75646 14.0942 6.78384 14.6942C6.81117 15.2929 6.90627 15.7018 7.04531 16.0596C7.18906 16.4294 7.38141 16.7432 7.69412 17.0559C8.00684 17.3686 8.32052 17.5609 8.69041 17.7047C9.04821 17.8438 9.45712 17.9388 10.0558 17.9662C10.6558 17.9935 10.8473 18 12.375 18C13.9027 18 14.0943 17.9935 14.6942 17.9662C15.2929 17.9388 15.7018 17.8438 16.0596 17.7047C16.4295 17.5609 16.7432 17.3686 17.0559 17.0559C17.3686 16.7432 17.5609 16.4295 17.7047 16.0596C17.8438 15.7018 17.9388 15.2929 17.9662 14.6942C17.9935 14.0942 18 13.9027 18 12.375C18 10.8473 17.9935 10.6558 17.9662 10.0558C17.9388 9.45708 17.8438 9.04821 17.7047 8.69041C17.5609 8.32047 17.3686 8.00679 17.0559 7.69412C16.7432 7.38141 16.4295 7.18906 16.0596 7.04531C15.7018 6.90623 15.2929 6.81117 14.6942 6.78384C14.0943 6.75646 13.9027 6.75 12.375 6.75ZM12.3749 7.76356C13.8769 7.76356 14.0547 7.76927 14.6479 7.79634C15.1963 7.82139 15.4941 7.91302 15.6924 7.99001C15.9549 8.09205 16.1423 8.214 16.3391 8.41078C16.536 8.60761 16.6578 8.79504 16.7599 9.05757C16.837 9.25581 16.9286 9.55367 16.9536 10.1021C16.9807 10.6952 16.9864 10.8731 16.9864 12.375C16.9864 13.877 16.9807 14.0549 16.9536 14.648C16.9286 15.1965 16.837 15.4943 16.7599 15.6925C16.6578 15.9551 16.536 16.1424 16.3391 16.3393C16.1423 16.5361 15.9549 16.658 15.6924 16.76C15.4941 16.8371 15.1963 16.9287 14.6479 16.9538C14.0548 16.9808 13.8769 16.9865 12.3749 16.9865C10.8729 16.9865 10.6949 16.9808 10.1019 16.9538C9.55351 16.9287 9.25565 16.8371 9.05746 16.76C8.79488 16.658 8.60746 16.5361 8.41062 16.3393C8.21384 16.1424 8.09193 15.9551 7.98989 15.6925C7.91286 15.4943 7.82123 15.1965 7.79623 14.648C7.76911 14.0549 7.7634 13.877 7.7634 12.375C7.7634 10.8731 7.76911 10.6952 7.79623 10.1021C7.82123 9.55367 7.91286 9.25581 7.98989 9.05757C8.09193 8.79504 8.21384 8.60761 8.41062 8.41078C8.60746 8.214 8.79488 8.09205 9.05746 7.99001C9.25565 7.91302 9.55351 7.82139 10.1019 7.79634C10.695 7.76927 10.873 7.76356 12.3749 7.76356Z" fill="#F8F8FA"/>
</svg>
