<svg width="24" height="24" viewBox="0 0 24 24" fill="none" xmlns="http://www.w3.org/2000/svg">
<rect width="24" height="24" rx="12" fill="#553CFB"/>
<path d="M18.4717 9.01348C18.3224 8.46321 17.8926 8.03336 17.3423 7.88411C16.3522 7.61377 12.367 7.61377 12.367 7.61377C12.367 7.61377 8.38166 7.62174 7.39134 7.89208C6.84108 8.04133 6.41122 8.47118 6.26197 9.02145C6 10.0118 6 12.0822 6 12.0822C6 12.0822 6 14.1527 6.27014 15.151C6.41939 15.7013 6.84925 16.1311 7.39951 16.2804C8.38963 16.5507 12.375 16.5507 12.375 16.5507C12.375 16.5507 16.3604 16.5507 17.3507 16.2806C17.901 16.1313 18.3308 15.7015 18.4801 15.1512C18.75 14.1609 18.75 12.0822 18.75 12.0822C18.75 12.0822 18.742 10.0118 18.4717 9.01348Z" fill="#F2F2F2"/>
<path d="M11.0983 13.9973L14.4044 12.0824L11.0981 10.1675L11.0983 13.9973Z" fill="#553CFB"/>
</svg>
