<svg width="24" height="24" viewBox="0 0 24 24" fill="none" xmlns="http://www.w3.org/2000/svg">
<rect width="24" height="24" rx="12" fill="#553CFB"/>
<path fill-rule="evenodd" clip-rule="evenodd" d="M10.4261 17.1775C14.9166 17.1775 17.3728 13.2529 17.3728 9.84977C17.3728 9.73805 17.3728 9.62696 17.3656 9.51649C17.8434 9.15246 18.2557 8.70055 18.5836 8.18337C18.1385 8.39175 17.6655 8.52858 17.1818 8.58883C17.6911 8.26685 18.0725 7.76096 18.2551 7.16407C17.7756 7.46409 17.2514 7.6756 16.7046 7.78921C15.78 6.75234 14.2335 6.70213 13.25 7.67749C12.6163 8.30639 12.3468 9.24409 12.5437 10.1385C10.5808 10.0343 8.75181 9.05643 7.51183 7.44777C6.86388 8.62461 7.19529 10.1297 8.26808 10.8854C7.87954 10.8735 7.49934 10.763 7.15959 10.5634V10.596C7.16019 11.8218 7.9795 12.8775 9.11833 13.1204C8.75895 13.224 8.38172 13.2391 8.01639 13.1644C8.33591 14.2138 9.2528 14.9324 10.297 14.9532C9.43249 15.6699 8.36447 16.0591 7.26491 16.0578C7.07094 16.0572 6.87697 16.0453 6.68359 16.0208C7.80041 16.7765 9.09929 17.1775 10.4261 17.1757" fill="#F8F8FA"/>
</svg>
