<svg width="30" height="30" viewBox="0 0 30 30" fill="none" xmlns="http://www.w3.org/2000/svg">
<rect width="30" height="30" rx="4" fill="#F4F4FB"/>
<g clip-path="url(#clip0)">
<path d="M13.0625 15.0417C12.5804 15.0417 12.1091 14.8987 11.7083 14.6309C11.3075 14.363 10.995 13.9824 10.8105 13.537C10.6261 13.0916 10.5778 12.6015 10.6718 12.1286C10.7659 11.6558 10.998 11.2215 11.3389 10.8806C11.6798 10.5397 12.1141 10.3076 12.587 10.2135C13.0598 10.1195 13.5499 10.1677 13.9953 10.3522C14.4407 10.5367 14.8214 10.8491 15.0892 11.25C15.357 11.6508 15.5 12.1221 15.5 12.6042C15.4993 13.2504 15.2422 13.87 14.7853 14.3269C14.3283 14.7839 13.7087 15.041 13.0625 15.0417ZM13.0625 11.25C12.7947 11.25 12.5329 11.3294 12.3102 11.4782C12.0875 11.627 11.9139 11.8385 11.8114 12.086C11.7089 12.3334 11.6821 12.6057 11.7344 12.8684C11.7866 13.131 11.9156 13.3723 12.105 13.5617C12.2943 13.7511 12.5356 13.8801 12.7983 13.9323C13.061 13.9846 13.3333 13.9577 13.5807 13.8553C13.8282 13.7528 14.0397 13.5792 14.1884 13.3565C14.3372 13.1338 14.4167 12.872 14.4167 12.6042C14.4167 12.245 14.274 11.9006 14.02 11.6466C13.7661 11.3927 13.4216 11.25 13.0625 11.25ZM17.125 20.4583V20.1875C17.125 19.1101 16.697 18.0767 15.9351 17.3149C15.1733 16.553 14.1399 16.125 13.0625 16.125C11.9851 16.125 10.9517 16.553 10.1899 17.3149C9.42801 18.0767 9 19.1101 9 20.1875L9 20.4583C9 20.602 9.05707 20.7398 9.15865 20.8414C9.26023 20.9429 9.39801 21 9.54167 21C9.68533 21 9.8231 20.9429 9.92468 20.8414C10.0263 20.7398 10.0833 20.602 10.0833 20.4583V20.1875C10.0833 19.3974 10.3972 18.6396 10.9559 18.0809C11.5146 17.5222 12.2724 17.2083 13.0625 17.2083C13.8526 17.2083 14.6104 17.5222 15.1691 18.0809C15.7278 18.6396 16.0417 19.3974 16.0417 20.1875V20.4583C16.0417 20.602 16.0987 20.7398 16.2003 20.8414C16.3019 20.9429 16.4397 21 16.5833 21C16.727 21 16.8648 20.9429 16.9663 20.8414C17.0679 20.7398 17.125 20.602 17.125 20.4583ZM22 17.75C22 17.018 21.7881 16.3017 21.3899 15.6875C20.9918 15.0733 20.4243 14.5875 19.7561 14.2887C19.0879 13.9899 18.3475 13.8909 17.6243 14.0037C16.9011 14.1164 16.2259 14.4361 15.6804 14.9241C15.6266 14.9714 15.5828 15.0288 15.5513 15.0931C15.5199 15.1573 15.5015 15.2272 15.4972 15.2986C15.4929 15.3701 15.5029 15.4416 15.5264 15.5092C15.5499 15.5768 15.5866 15.639 15.6344 15.6923C15.6821 15.7456 15.7399 15.789 15.8045 15.8198C15.8691 15.8506 15.9391 15.8684 16.0106 15.872C16.082 15.8756 16.1535 15.865 16.2208 15.8409C16.2882 15.8167 16.3501 15.7794 16.403 15.7312C16.7927 15.3827 17.2749 15.1545 17.7915 15.074C18.308 14.9935 18.8369 15.0643 19.3141 15.2777C19.7913 15.4912 20.1966 15.8382 20.481 16.2769C20.7653 16.7156 20.9167 17.2272 20.9167 17.75C20.9167 17.8937 20.9737 18.0314 21.0753 18.133C21.1769 18.2346 21.3147 18.2917 21.4583 18.2917C21.602 18.2917 21.7398 18.2346 21.8414 18.133C21.9429 18.0314 22 17.8937 22 17.75ZM18.4792 12.875C17.9971 12.875 17.5258 12.732 17.125 12.4642C16.7241 12.1964 16.4117 11.8157 16.2272 11.3703C16.0427 10.9249 15.9945 10.4348 16.0885 9.96197C16.1826 9.48914 16.4147 9.05482 16.7556 8.71393C17.0965 8.37304 17.5308 8.14089 18.0036 8.04684C18.4765 7.95279 18.9666 8.00106 19.412 8.18554C19.8574 8.37003 20.238 8.68245 20.5059 9.0833C20.7737 9.48414 20.9167 9.95541 20.9167 10.4375C20.9159 11.0837 20.6589 11.7033 20.2019 12.1603C19.745 12.6172 19.1254 12.8743 18.4792 12.875ZM18.4792 9.08333C18.2113 9.08333 17.9495 9.16275 17.7268 9.31155C17.5041 9.46035 17.3306 9.67184 17.2281 9.91928C17.1256 10.1667 17.0988 10.439 17.151 10.7017C17.2033 10.9644 17.3322 11.2057 17.5216 11.395C17.711 11.5844 17.9523 11.7134 18.215 11.7656C18.4777 11.8179 18.7499 11.7911 18.9974 11.6886C19.2448 11.5861 19.4563 11.4125 19.6051 11.1898C19.7539 10.9671 19.8333 10.7053 19.8333 10.4375C19.8333 10.0784 19.6907 9.73392 19.4367 9.47996C19.1828 9.22601 18.8383 9.08333 18.4792 9.08333Z" fill="#BBBBD7"/>
</g>
<defs>
<clipPath id="clip0">
<rect width="13" height="13" fill="white" transform="translate(9 8)"/>
</clipPath>
</defs>
</svg>
