<svg width="30" height="30" viewBox="0 0 30 30" fill="none" xmlns="http://www.w3.org/2000/svg">
<rect width="30" height="30" rx="4" fill="#EEECFF"/>
<g clip-path="url(#clip0)">
<path d="M20.9475 10.8329L16.9532 8.93007C16.074 8.40489 14.9796 8.39557 14.0916 8.90569L10.0524 10.8329C10.0372 10.8405 10.0215 10.8487 10.0069 10.8573C9.04834 11.4054 8.71557 12.6268 9.26366 13.5853C9.44944 13.9103 9.72272 14.1765 10.0524 14.3538L11.1666 14.8846V17.5388C11.1673 18.7256 11.9395 19.7742 13.0727 20.1269C13.8613 20.355 14.679 20.4667 15.4999 20.4584C16.3207 20.4676 17.1384 20.3568 17.9272 20.1296C19.0604 19.7769 19.8326 18.7283 19.8333 17.5415V14.8835L20.9166 14.3657V18.8334C20.9166 19.1325 21.1591 19.375 21.4583 19.375C21.7574 19.375 21.9999 19.1325 21.9999 18.8334V12.3334C22.0036 11.6973 21.5013 11.1097 20.9475 10.8329ZM18.7499 17.5415C18.7502 18.2514 18.2896 18.8793 17.6124 19.0923C16.9257 19.2885 16.2141 19.3837 15.4999 19.375C14.7858 19.3837 14.0741 19.2885 13.3874 19.0923C12.7102 18.8793 12.2496 18.2514 12.2499 17.5415V15.4008L14.0466 16.2567C14.49 16.5199 14.9963 16.6583 15.5119 16.657C16.0026 16.6604 16.4851 16.5305 16.9077 16.2811L18.7499 15.4008V17.5415ZM20.4833 13.3761L16.398 15.3261C15.8284 15.6577 15.1224 15.6484 14.5618 15.3017L10.5648 13.4004C10.1193 13.1602 9.95286 12.6043 10.1931 12.1588C10.2744 12.0081 10.3962 11.8832 10.5448 11.7982L14.6045 9.85904C15.1743 9.5281 15.88 9.53746 16.4408 9.88341L20.4351 11.7863C20.7288 11.9494 20.9126 12.2574 20.9166 12.5934C20.9171 12.9116 20.7532 13.2076 20.4833 13.3761Z" fill="#553CFB"/>
</g>
<defs>
<clipPath id="clip0">
<rect width="13" height="13" fill="white" transform="translate(9 8)"/>
</clipPath>
</defs>
</svg>
