<svg width="30" height="30" viewBox="0 0 30 30" fill="none" xmlns="http://www.w3.org/2000/svg">
<rect width="30" height="30" rx="4" fill="#FFF0F0"/>
<g clip-path="url(#clip0)">
<path d="M19.2917 8H11.7083C10.9903 8.00086 10.3019 8.28648 9.7942 8.7942C9.28648 9.30193 9.00086 9.9903 9 10.7083V18.2917C9.00086 19.0097 9.28648 19.6981 9.7942 20.2058C10.3019 20.7135 10.9903 20.9991 11.7083 21H19.2917C20.0097 20.9991 20.6981 20.7135 21.2058 20.2058C21.7135 19.6981 21.9991 19.0097 22 18.2917V10.7083C21.9991 9.9903 21.7135 9.30193 21.2058 8.7942C20.6981 8.28648 20.0097 8.00086 19.2917 8V8ZM19.8333 13.9583H20.9167V15.0417H19.8333V13.9583ZM19.8333 12.875V11.7917H20.9167V12.875H19.8333ZM18.75 13.9583H12.25V9.08333H18.75V13.9583ZM11.1667 15.0417H10.0833V13.9583H11.1667V15.0417ZM11.1667 12.875H10.0833V11.7917H11.1667V12.875ZM10.0833 16.125H11.1667V17.2083H10.0833V16.125ZM12.25 15.0417H18.75V19.9167H12.25V15.0417ZM19.8333 16.125H20.9167V17.2083H19.8333V16.125ZM20.9167 10.7083H19.8333V9.183C20.1491 9.29463 20.4226 9.50108 20.6165 9.77412C20.8105 10.0472 20.9153 10.3734 20.9167 10.7083ZM11.1667 9.183V10.7083H10.0833C10.0847 10.3734 10.1895 10.0472 10.3835 9.77412C10.5774 9.50108 10.8509 9.29463 11.1667 9.183ZM10.0833 18.2917H11.1667V19.817C10.8509 19.7054 10.5774 19.4989 10.3835 19.2259C10.1895 18.9528 10.0847 18.6266 10.0833 18.2917ZM19.8333 19.817V18.2917H20.9167C20.9153 18.6266 20.8105 18.9528 20.6165 19.2259C20.4226 19.4989 20.1491 19.7054 19.8333 19.817Z" fill="#FF6767"/>
</g>
<defs>
<clipPath id="clip0">
<rect width="13" height="13" fill="white" transform="translate(9 8)"/>
</clipPath>
</defs>
</svg>
