<svg width="30" height="30" viewBox="0 0 30 30" fill="none" xmlns="http://www.w3.org/2000/svg">
<rect width="30" height="30" rx="4" fill="#FFC418" fill-opacity="0.1"/>
<g clip-path="url(#clip0)">
<path d="M21.4584 16.6666C21.3147 16.6666 21.177 16.7237 21.0754 16.8253C20.9738 16.9269 20.9167 17.0646 20.9167 17.2083V18.2916C20.9167 18.7226 20.7455 19.1359 20.4408 19.4407C20.136 19.7454 19.7227 19.9166 19.2917 19.9166H18.2084C18.0648 19.9166 17.927 19.9737 17.8254 20.0753C17.7238 20.1768 17.6667 20.3146 17.6667 20.4583C17.6667 20.6019 17.7238 20.7397 17.8254 20.8413C17.927 20.9429 18.0648 20.9999 18.2084 20.9999H19.2917C20.0098 20.9991 20.6981 20.7135 21.2059 20.2057C21.7136 19.698 21.9992 19.0096 22.0001 18.2916V17.2083C22.0001 17.0646 21.943 16.9269 21.8414 16.8253C21.7398 16.7237 21.6021 16.6666 21.4584 16.6666Z" fill="#FFB425"/>
<path d="M9.54167 12.3333C9.68533 12.3333 9.8231 12.2763 9.92468 12.1747C10.0263 12.0731 10.0833 11.9353 10.0833 11.7917V10.7083C10.0833 10.2774 10.2545 9.86403 10.5593 9.55928C10.864 9.25454 11.2774 9.08333 11.7083 9.08333H12.7917C12.9353 9.08333 13.0731 9.02627 13.1747 8.92468C13.2763 8.8231 13.3333 8.68533 13.3333 8.54167C13.3333 8.39801 13.2763 8.26023 13.1747 8.15865C13.0731 8.05707 12.9353 8 12.7917 8H11.7083C10.9903 8.00086 10.3019 8.28648 9.7942 8.7942C9.28648 9.30193 9.00086 9.9903 9 10.7083V11.7917C9 11.9353 9.05707 12.0731 9.15865 12.1747C9.26023 12.2763 9.39801 12.3333 9.54167 12.3333Z" fill="#FFB425"/>
<path d="M12.7917 19.9166H11.7083C11.2774 19.9166 10.864 19.7454 10.5593 19.4407C10.2545 19.1359 10.0833 18.7226 10.0833 18.2916V17.2083C10.0833 17.0646 10.0263 16.9269 9.92468 16.8253C9.8231 16.7237 9.68533 16.6666 9.54167 16.6666C9.39801 16.6666 9.26023 16.7237 9.15865 16.8253C9.05707 16.9269 9 17.0646 9 17.2083V18.2916C9.00086 19.0096 9.28648 19.698 9.7942 20.2057C10.3019 20.7135 10.9903 20.9991 11.7083 20.9999H12.7917C12.9353 20.9999 13.0731 20.9429 13.1747 20.8413C13.2763 20.7397 13.3333 20.6019 13.3333 20.4583C13.3333 20.3146 13.2763 20.1768 13.1747 20.0753C13.0731 19.9737 12.9353 19.9166 12.7917 19.9166Z" fill="#FFB425"/>
<path d="M19.2917 8H18.2084C18.0648 8 17.927 8.05707 17.8254 8.15865C17.7238 8.26023 17.6667 8.39801 17.6667 8.54167C17.6667 8.68533 17.7238 8.8231 17.8254 8.92468C17.927 9.02627 18.0648 9.08333 18.2084 9.08333H19.2917C19.7227 9.08333 20.136 9.25454 20.4408 9.55928C20.7455 9.86403 20.9167 10.2774 20.9167 10.7083V11.7917C20.9167 11.9353 20.9738 12.0731 21.0754 12.1747C21.177 12.2763 21.3147 12.3333 21.4584 12.3333C21.6021 12.3333 21.7398 12.2763 21.8414 12.1747C21.943 12.0731 22.0001 11.9353 22.0001 11.7917V10.7083C21.9992 9.9903 21.7136 9.30193 21.2059 8.7942C20.6981 8.28648 20.0098 8.00086 19.2917 8V8Z" fill="#FFB425"/>
<path d="M15.4999 13.9583C15.9284 13.9583 16.3473 13.8313 16.7037 13.5932C17.06 13.3551 17.3377 13.0167 17.5017 12.6208C17.6656 12.2249 17.7086 11.7893 17.625 11.369C17.5414 10.9487 17.335 10.5626 17.032 10.2596C16.729 9.95659 16.3429 9.75023 15.9226 9.66663C15.5023 9.58303 15.0667 9.62594 14.6708 9.78993C14.2749 9.95392 13.9365 10.2316 13.6984 10.5879C13.4603 10.9442 13.3333 11.3631 13.3333 11.7917C13.3333 12.3663 13.5615 12.9174 13.9679 13.3237C14.3742 13.7301 14.9253 13.9583 15.4999 13.9583ZM15.4999 10.7083C15.7142 10.7083 15.9236 10.7719 16.1018 10.8909C16.2799 11.0099 16.4188 11.1791 16.5008 11.3771C16.5828 11.575 16.6042 11.7929 16.5624 12.003C16.5206 12.2132 16.4175 12.4062 16.2659 12.5577C16.1144 12.7092 15.9214 12.8124 15.7113 12.8542C15.5011 12.896 15.2833 12.8745 15.0853 12.7925C14.8874 12.7105 14.7182 12.5717 14.5992 12.3935C14.4801 12.2154 14.4166 12.0059 14.4166 11.7917C14.4166 11.5043 14.5307 11.2288 14.7339 11.0256C14.9371 10.8225 15.2126 10.7083 15.4999 10.7083Z" fill="#FFB425"/>
<path d="M18.7499 18.8333C18.8936 18.8333 19.0314 18.7762 19.1329 18.6746C19.2345 18.5731 19.2916 18.4353 19.2916 18.2916C19.2907 17.4299 18.948 16.6038 18.3387 15.9945C17.7294 15.3852 16.9033 15.0425 16.0416 15.0416H14.9583C14.0966 15.0425 13.2704 15.3852 12.6611 15.9945C12.0518 16.6038 11.7091 17.4299 11.7083 18.2916C11.7083 18.4353 11.7653 18.5731 11.8669 18.6746C11.9685 18.7762 12.1063 18.8333 12.2499 18.8333C12.3936 18.8333 12.5314 18.7762 12.6329 18.6746C12.7345 18.5731 12.7916 18.4353 12.7916 18.2916C12.7916 17.717 13.0199 17.1659 13.4262 16.7596C13.8325 16.3532 14.3836 16.125 14.9583 16.125H16.0416C16.6162 16.125 17.1673 16.3532 17.5737 16.7596C17.98 17.1659 18.2083 17.717 18.2083 18.2916C18.2083 18.4353 18.2653 18.5731 18.3669 18.6746C18.4685 18.7762 18.6063 18.8333 18.7499 18.8333Z" fill="#FFB425"/>
</g>
<defs>
<clipPath id="clip0">
<rect width="13" height="13" fill="white" transform="translate(9 8)"/>
</clipPath>
</defs>
</svg>
