<svg width="14" height="14" viewBox="0 0 14 14" fill="none" xmlns="http://www.w3.org/2000/svg">
<g clip-path="url(#clip0)">
<path d="M11.0833 0H2.91667C2.1434 0.00092625 1.40208 0.308514 0.855295 0.855295C0.308514 1.40208 0.00092625 2.1434 0 2.91667L0 11.0833C0.00092625 11.8566 0.308514 12.5979 0.855295 13.1447C1.40208 13.6915 2.1434 13.9991 2.91667 14H11.0833C11.8566 13.9991 12.5979 13.6915 13.1447 13.1447C13.6915 12.5979 13.9991 11.8566 14 11.0833V2.91667C13.9991 2.1434 13.6915 1.40208 13.1447 0.855295C12.5979 0.308514 11.8566 0.00092625 11.0833 0V0ZM2.91667 1.16667H11.0833C11.5475 1.16667 11.9926 1.35104 12.3208 1.67923C12.649 2.00742 12.8333 2.45254 12.8333 2.91667V11.0833C12.8323 11.3432 12.7725 11.5995 12.6583 11.8329L7.31325 6.48783C7.0424 6.21691 6.72084 6.00201 6.36692 5.85538C6.013 5.70876 5.63367 5.63329 5.25058 5.63329C4.8675 5.63329 4.48816 5.70876 4.13425 5.85538C3.78033 6.00201 3.45876 6.21691 3.18792 6.48783L1.16667 8.5085V2.91667C1.16667 2.45254 1.35104 2.00742 1.67923 1.67923C2.00742 1.35104 2.45254 1.16667 2.91667 1.16667ZM2.91667 12.8333C2.45254 12.8333 2.00742 12.649 1.67923 12.3208C1.35104 11.9926 1.16667 11.5475 1.16667 11.0833V10.1582L4.01217 7.31267C4.17468 7.15005 4.36765 7.02104 4.58004 6.93302C4.79244 6.84501 5.02009 6.79971 5.25 6.79971C5.47991 6.79971 5.70756 6.84501 5.91996 6.93302C6.13235 7.02104 6.32532 7.15005 6.48783 7.31267L11.8329 12.6583C11.5995 12.7725 11.3432 12.8323 11.0833 12.8333H2.91667Z" fill="#8E8EA8"/>
<path d="M9.33329 6.12508C9.7371 6.12508 10.1318 6.00534 10.4676 5.781C10.8033 5.55666 11.065 5.23779 11.2195 4.86473C11.3741 4.49166 11.4145 4.08115 11.3357 3.68511C11.257 3.28906 11.0625 2.92527 10.777 2.63974C10.4914 2.35421 10.1276 2.15976 9.7316 2.08098C9.33556 2.0022 8.92505 2.04263 8.55198 2.19716C8.17892 2.35169 7.86005 2.61338 7.63571 2.94913C7.41137 3.28488 7.29163 3.67961 7.29163 4.08342C7.29163 4.6249 7.50673 5.14421 7.88962 5.52709C8.2725 5.90998 8.79181 6.12508 9.33329 6.12508ZM9.33329 3.20842C9.50635 3.20842 9.67552 3.25973 9.81942 3.35588C9.96331 3.45203 10.0755 3.58868 10.1417 3.74857C10.2079 3.90845 10.2252 4.08439 10.1915 4.25412C10.1577 4.42385 10.0744 4.57976 9.95201 4.70213C9.82964 4.82451 9.67373 4.90784 9.504 4.9416C9.33426 4.97536 9.15833 4.95804 8.99844 4.89181C8.83856 4.82558 8.7019 4.71343 8.60576 4.56954C8.50961 4.42565 8.45829 4.25647 8.45829 4.08342C8.45829 3.85135 8.55048 3.62879 8.71457 3.4647C8.87867 3.3006 9.10123 3.20842 9.33329 3.20842Z" fill="#8E8EA8"/>
</g>
<defs>
<clipPath id="clip0">
<rect width="14" height="14" fill="white"/>
</clipPath>
</defs>
</svg>
