<svg width="14" height="14" viewBox="0 0 14 14" fill="none" xmlns="http://www.w3.org/2000/svg">
<g clip-path="url(#clip0)">
<path d="M11.0833 0H2.91667C2.1434 0.00092625 1.40208 0.308514 0.855295 0.855295C0.308514 1.40208 0.00092625 2.1434 0 2.91667L0 11.0833C0.00092625 11.8566 0.308514 12.5979 0.855295 13.1447C1.40208 13.6915 2.1434 13.9991 2.91667 14H11.0833C11.8566 13.9991 12.5979 13.6915 13.1447 13.1447C13.6915 12.5979 13.9991 11.8566 14 11.0833V2.91667C13.9991 2.1434 13.6915 1.40208 13.1447 0.855295C12.5979 0.308514 11.8566 0.00092625 11.0833 0V0ZM11.6667 6.41667H12.8333V7.58333H11.6667V6.41667ZM11.6667 5.25V4.08333H12.8333V5.25H11.6667ZM10.5 6.41667H3.5V1.16667H10.5V6.41667ZM2.33333 7.58333H1.16667V6.41667H2.33333V7.58333ZM2.33333 5.25H1.16667V4.08333H2.33333V5.25ZM1.16667 8.75H2.33333V9.91667H1.16667V8.75ZM3.5 7.58333H10.5V12.8333H3.5V7.58333ZM11.6667 8.75H12.8333V9.91667H11.6667V8.75ZM12.8333 2.91667H11.6667V1.274C12.0067 1.39422 12.3013 1.61655 12.5101 1.91059C12.719 2.20463 12.8318 2.55601 12.8333 2.91667ZM2.33333 1.274V2.91667H1.16667C1.16816 2.55601 1.28105 2.20463 1.48988 1.91059C1.69872 1.61655 1.9933 1.39422 2.33333 1.274ZM1.16667 11.0833H2.33333V12.726C1.9933 12.6058 1.69872 12.3834 1.48988 12.0894C1.28105 11.7954 1.16816 11.444 1.16667 11.0833ZM11.6667 12.726V11.0833H12.8333C12.8318 11.444 12.719 11.7954 12.5101 12.0894C12.3013 12.3834 12.0067 12.6058 11.6667 12.726Z" fill="#8E8EA8"/>
</g>
<defs>
<clipPath id="clip0">
<rect width="14" height="14" fill="white"/>
</clipPath>
</defs>
</svg>
