<svg width="119" height="119" viewBox="0 0 119 119" fill="none" xmlns="http://www.w3.org/2000/svg">
<rect x="5" y="5" width="109" height="109" rx="54.5" fill="#EBFAFA"/>
<path d="M60 56.375C57.3488 56.375 55.2 58.4744 55.2 61.0625C55.2 63.6516 57.3488 65.75 60 65.75C62.6506 65.75 64.8 63.6516 64.8 61.0625C64.8 58.4744 62.6506 56.375 60 56.375ZM72.8 51.6875H68.96C68.432 51.6875 67.863 51.2875 67.6963 50.7981L66.7037 47.8891C66.5363 47.4 65.968 47 65.44 47H54.56C54.032 47 53.463 47.4 53.2963 47.8894L52.3037 50.7984C52.1363 51.2875 51.568 51.6875 51.04 51.6875H47.2C45.44 51.6875 44 53.0938 44 54.8125V68.875C44 70.5938 45.44 72 47.2 72H72.8C74.56 72 76 70.5938 76 68.875V54.8125C76 53.0938 74.56 51.6875 72.8 51.6875ZM60 68.875C55.5818 68.875 52 65.3772 52 61.0625C52 56.7481 55.5818 53.25 60 53.25C64.4176 53.25 68 56.7481 68 61.0625C68 65.3772 64.4176 68.875 60 68.875ZM71.68 56.9978C71.0618 56.9978 70.56 56.5084 70.56 55.9041C70.56 55.3003 71.0618 54.8103 71.68 54.8103C72.2989 54.8103 72.8 55.3003 72.8 55.9041C72.8 56.5084 72.2986 56.9978 71.68 56.9978Z" fill="#36CFD1"/>
</svg>
