<svg width="30" height="30" viewBox="0 0 30 30" fill="none" xmlns="http://www.w3.org/2000/svg">
<rect width="30" height="30" rx="4" fill="#EFFBFA"/>
<path d="M14.5 17.2437C14.4244 17.2428 14.3498 17.2258 14.2813 17.1937C14.1875 17.1437 12 15.9437 11.5313 14.375C11.3878 13.976 11.3374 13.5496 11.384 13.1282C11.4306 12.7068 11.5729 12.3017 11.8 11.9437C11.969 11.7214 12.1889 11.5429 12.4412 11.4233C12.6936 11.3036 12.9709 11.2463 13.25 11.2562C13.4843 11.2498 13.7172 11.2939 13.9329 11.3856C14.1487 11.4772 14.3421 11.6143 14.5 11.7875C14.658 11.6143 14.8514 11.4772 15.0671 11.3856C15.2828 11.2939 15.5157 11.2498 15.75 11.2562C16.027 11.2484 16.3019 11.3066 16.5519 11.4262C16.8019 11.5457 17.0198 11.7231 17.1875 11.9437C17.4147 12.3017 17.5569 12.7068 17.6035 13.1282C17.6501 13.5496 17.5997 13.976 17.4563 14.375C16.9875 15.975 14.8 17.1437 14.7063 17.1937C14.6416 17.2241 14.5714 17.2411 14.5 17.2437ZM13.25 12.1937C13.1184 12.184 12.9865 12.2076 12.8664 12.2622C12.7462 12.3168 12.6418 12.4007 12.5625 12.5062C12.4246 12.7483 12.3424 13.0181 12.3219 13.2959C12.3014 13.5738 12.343 13.8527 12.4438 14.1125C12.7063 15.0125 13.875 15.8625 14.5125 16.2375C15.1375 15.8562 16.3188 14.9875 16.5813 14.1125C16.6821 13.8527 16.7237 13.5738 16.7032 13.2959C16.6826 13.0181 16.6004 12.7483 16.4625 12.5062C16.3578 12.368 16.2125 12.266 16.0469 12.2145C15.8813 12.163 15.7038 12.1646 15.5391 12.219C15.3745 12.2734 15.2309 12.378 15.1287 12.518C15.0264 12.658 14.9705 12.8266 14.9688 13C14.9688 13.1243 14.9194 13.2435 14.8315 13.3314C14.7436 13.4193 14.6243 13.4687 14.5 13.4687C14.3757 13.4687 14.2565 13.4193 14.1686 13.3314C14.0807 13.2435 14.0313 13.1243 14.0313 13C14.0355 12.8951 14.0184 12.7904 13.981 12.6923C13.9435 12.5942 13.8865 12.5048 13.8135 12.4294C13.7404 12.354 13.6528 12.2942 13.5559 12.2537C13.4591 12.2132 13.355 12.1928 13.25 12.1937Z" fill="#36CFD1"/>
<path d="M18.725 19.0937H10.275C9.61198 19.0937 8.9761 18.8303 8.50726 18.3614C8.03842 17.8926 7.77502 17.2567 7.77502 16.5937V11.8999C7.77502 11.2369 8.03842 10.601 8.50726 10.1321C8.9761 9.66329 9.61198 9.3999 10.275 9.3999H18.725C19.3881 9.3999 20.024 9.66329 20.4928 10.1321C20.9616 10.601 21.225 11.2369 21.225 11.8999V16.5999C21.2234 17.2619 20.9592 17.8961 20.4906 18.3636C20.0219 18.8311 19.387 19.0937 18.725 19.0937ZM10.275 10.3437C9.86279 10.3453 9.46791 10.5098 9.17641 10.8013C8.88491 11.0928 8.72042 11.4877 8.71877 11.8999V16.5999C8.72042 17.0121 8.88491 17.407 9.17641 17.6985C9.46791 17.99 9.86279 18.1545 10.275 18.1562H18.725C19.1373 18.1545 19.5321 17.99 19.8236 17.6985C20.1151 17.407 20.2796 17.0121 20.2813 16.5999V11.8999C20.2796 11.4877 20.1151 11.0928 19.8236 10.8013C19.5321 10.5098 19.1373 10.3453 18.725 10.3437H10.275Z" fill="#36CFD1"/>
<path d="M14.5 21.5936C14.3762 21.592 14.2579 21.5421 14.1703 21.4545C14.0828 21.367 14.0329 21.2487 14.0312 21.1249V18.6249C14.0312 18.5006 14.0806 18.3813 14.1685 18.2934C14.2565 18.2055 14.3757 18.1561 14.5 18.1561C14.6243 18.1561 14.7435 18.2055 14.8315 18.2934C14.9194 18.3813 14.9688 18.5006 14.9688 18.6249V21.1249C14.9671 21.2487 14.9172 21.367 14.8297 21.4545C14.7421 21.5421 14.6238 21.592 14.5 21.5936Z" fill="#36CFD1"/>
<path d="M18.25 21.5938H10.75C10.6257 21.5938 10.5065 21.5444 10.4185 21.4565C10.3306 21.3685 10.2812 21.2493 10.2812 21.125C10.2812 21.0007 10.3306 20.8815 10.4185 20.7935C10.5065 20.7056 10.6257 20.6562 10.75 20.6562H18.25C18.3743 20.6562 18.4935 20.7056 18.5815 20.7935C18.6694 20.8815 18.7188 21.0007 18.7188 21.125C18.7188 21.2493 18.6694 21.3685 18.5815 21.4565C18.4935 21.5444 18.3743 21.5938 18.25 21.5938Z" fill="#36CFD1"/>
</svg>
