<svg width="30" height="30" viewBox="0 0 30 30" fill="none" xmlns="http://www.w3.org/2000/svg">
<rect width="30" height="30" rx="4" fill="#5B8FFF" fill-opacity="0.15"/>
<g clip-path="url(#clip0)">
<path d="M22.0001 20.4584C22.0001 20.6021 21.9431 20.7399 21.8415 20.8414C21.7399 20.943 21.6021 21.0001 21.4585 21.0001H9.54181C9.39815 21.0001 9.26037 20.943 9.15879 20.8414C9.05721 20.7399 9.00014 20.6021 9.00014 20.4584C9.00014 20.3148 9.05721 20.177 9.15879 20.0754C9.26037 19.9738 9.39815 19.9168 9.54181 19.9168H21.4585C21.6021 19.9168 21.7399 19.9738 21.8415 20.0754C21.9431 20.177 22.0001 20.3148 22.0001 20.4584ZM9.15777 12.6324C9.04105 12.4159 8.98698 12.1712 9.00161 11.9257C9.01625 11.6802 9.09902 11.4436 9.24064 11.2425C9.47207 10.9029 9.78201 10.6242 10.1441 10.43L14.2072 8.31534C14.6065 8.10768 15.05 7.99927 15.5001 7.99927C15.9503 7.99927 16.3937 8.10768 16.7931 8.31534L20.8556 10.4316C21.2177 10.6259 21.5277 10.9046 21.7591 11.2441C21.9007 11.4452 21.9835 11.6818 21.9981 11.9273C22.0128 12.1728 21.9587 12.4176 21.842 12.634C21.7163 12.8717 21.5279 13.0704 21.2971 13.2084C21.0664 13.3464 20.8022 13.4185 20.5333 13.4168H20.3751V17.7501H20.9168C21.0605 17.7501 21.1982 17.8072 21.2998 17.9087C21.4014 18.0103 21.4585 18.1481 21.4585 18.2918C21.4585 18.4354 21.4014 18.5732 21.2998 18.6748C21.1982 18.7764 21.0605 18.8334 20.9168 18.8334H10.0835C9.93981 18.8334 9.80204 18.7764 9.70046 18.6748C9.59888 18.5732 9.54181 18.4354 9.54181 18.2918C9.54181 18.1481 9.59888 18.0103 9.70046 17.9087C9.80204 17.8072 9.93981 17.7501 10.0835 17.7501H10.6251V13.4168H10.467C10.1979 13.4184 9.93344 13.3462 9.70257 13.2079C9.4717 13.0696 9.28325 12.8705 9.15777 12.6324ZM11.7085 17.7501H13.3335V13.4168H11.7085V17.7501ZM14.4168 13.4168V17.7501H16.5835V13.4168H14.4168ZM19.2918 13.4168H17.6668V17.7501H19.2918V13.4168ZM10.1176 12.1303C10.1516 12.193 10.2022 12.2451 10.2638 12.2809C10.3254 12.3167 10.3957 12.3349 10.467 12.3334H20.5333C20.6046 12.3349 20.6749 12.3167 20.7365 12.2809C20.7981 12.2451 20.8487 12.193 20.8827 12.1303C20.9074 12.0889 20.9194 12.0411 20.9171 11.9929C20.9148 11.9447 20.8983 11.8983 20.8697 11.8595C20.7384 11.6644 20.5621 11.5039 20.3556 11.3915L16.2931 9.27517C16.0483 9.14811 15.7765 9.08178 15.5007 9.08178C15.2248 9.08178 14.9531 9.14811 14.7082 9.27517L10.6457 11.3915C10.4393 11.5042 10.2631 11.6649 10.1317 11.86C10.103 11.8987 10.0864 11.945 10.0839 11.993C10.0814 12.0411 10.0931 12.0889 10.1176 12.1303Z" fill="#5A8FFF"/>
</g>
<defs>
<clipPath id="clip0">
<rect width="13" height="13" fill="white" transform="translate(9 8)"/>
</clipPath>
</defs>
</svg>
