<svg width="200" height="43" viewBox="0 0 200 43" fill="none" xmlns="http://www.w3.org/2000/svg">
<path fill-rule="evenodd" clip-rule="evenodd" d="M28.7539 41.6051C28.3484 41.6477 27.9421 41.5324 27.6192 41.2834C27.509 41.1682 27.4235 41.0316 27.3682 40.882C27.3128 40.7325 27.2888 40.5732 27.2975 40.4139C27.2864 40.1434 27.3763 39.8785 27.5497 39.6705C27.7668 39.4457 28.0354 39.2771 28.3322 39.1793L29.4234 38.901C29.7318 38.7913 29.997 38.5857 30.1799 38.3141C30.3804 37.9102 30.4676 37.4595 30.432 37.0099V6.57795C30.4613 6.21824 30.3826 5.85798 30.206 5.54328C30.1216 5.43397 30.0162 5.34264 29.896 5.27469C29.7758 5.20675 29.6432 5.16356 29.506 5.14766L28.0235 5.03898C27.7501 4.97788 27.4989 4.84247 27.2975 4.6477C27.1458 4.46849 27.0667 4.23894 27.0758 4.00429C27.0692 3.86402 27.0903 3.72381 27.1381 3.59175C27.1858 3.45969 27.2592 3.33837 27.354 3.23478C27.6547 2.97284 28.0073 2.77731 28.3887 2.66094L33.5056 0.761114C34.2302 0.500269 34.8099 0.308979 35.2446 0.187251C35.6489 0.070426 36.0672 0.00899586 36.488 0.00465363C36.737 -0.0136027 36.9871 0.0219935 37.2211 0.109014C37.4552 0.196035 37.6677 0.33244 37.8444 0.508956C38.1599 0.868328 38.3249 1.33538 38.3052 1.81318V27.4609L47.4478 20.0724C48.0825 19.5681 48.3738 19.0942 48.3173 18.6464C48.2608 18.1986 47.8826 17.8639 47.1435 17.6378L46.1653 17.3856C45.8802 17.317 45.6216 17.1658 45.4219 16.9509C45.2766 16.7522 45.203 16.51 45.2132 16.264C45.2083 16.0976 45.2423 15.9324 45.3125 15.7814C45.3827 15.6305 45.4871 15.498 45.6175 15.3945C45.939 15.1667 46.3284 15.0548 46.7218 15.0772H56.5079C56.9007 15.055 57.29 15.1619 57.6164 15.3815C57.7466 15.4783 57.8513 15.6052 57.9217 15.7513C57.9922 15.8974 58.0261 16.0584 58.0207 16.2205C58.0275 16.543 57.9072 16.8553 57.686 17.09C57.2795 17.4083 56.797 17.6151 56.2861 17.69C55.4106 17.8864 54.5643 18.1962 53.769 18.6116C52.7929 19.1755 51.8665 19.8213 50.9997 20.5419L46.5879 24.0485L55.6731 37.0838C55.9985 37.5736 56.394 38.013 56.8469 38.388C57.2828 38.6911 57.7642 38.923 58.2729 39.0749C58.6102 39.2237 58.9147 39.4379 59.1685 39.7053C59.3629 39.9128 59.4716 40.1861 59.4728 40.4704C59.4769 40.6287 59.4422 40.7855 59.3717 40.9272C59.3012 41.0689 59.1971 41.1912 59.0685 41.2834C58.7441 41.5045 58.3562 41.613 57.9642 41.5921H46.5783C46.2139 41.6131 45.8547 41.4985 45.5697 41.2704C45.4487 41.1614 45.3536 41.0268 45.2912 40.8764C45.2287 40.726 45.2006 40.5635 45.2089 40.4009C45.2019 40.1809 45.266 39.9644 45.3915 39.7836C45.5661 39.581 45.7933 39.4305 46.048 39.3488L46.9435 39.0967C47.4652 38.9489 47.7391 38.7184 47.7652 38.4141C47.7913 38.1098 47.5565 37.5794 47.0522 36.8317L41.1419 28.3773L38.3052 30.6321V37.0273C38.2762 37.4667 38.3631 37.9059 38.5573 38.3011C38.7367 38.5788 39.0026 38.7896 39.3138 38.901L40.3224 39.1793C40.5722 39.2535 40.7925 39.4042 40.9523 39.61C41.1122 39.8159 41.2035 40.0666 41.2136 40.327C41.2136 41.1646 40.6832 41.5848 39.6225 41.5877L28.7539 41.6051ZM10.8338 16.9943C9.74549 16.9274 8.67169 17.2719 7.82541 17.9595C7.477 18.2632 7.19977 18.64 7.01343 19.063C6.82709 19.4861 6.73622 19.945 6.74726 20.4071C6.74457 20.9831 6.88499 21.5507 7.15592 22.0591C7.5294 22.6533 8.06903 23.1249 8.70795 23.4155C9.77867 23.9221 10.9051 24.3015 12.0641 24.5458C14.9624 25.1255 17.1941 25.8616 18.7592 26.7543C20.3243 27.647 21.4198 28.6817 22.0458 29.8584C22.6674 31.068 22.9838 32.4112 22.9675 33.771C22.9675 36.3621 22.0502 38.4315 20.2156 39.9791C18.381 41.5268 15.7102 42.3007 12.2033 42.3007C11.1792 42.3249 10.1564 42.2168 9.16007 41.979C8.50555 41.8045 7.86115 41.5941 7.22982 41.3486C6.80568 41.1614 6.3498 41.0566 5.88648 41.0399C5.53398 41.0224 5.18689 41.1319 4.90831 41.3486C4.77349 41.4617 4.64267 41.5829 4.51438 41.7017L4.51423 41.7018L4.51356 41.7025L4.51347 41.7025C4.41039 41.798 4.30894 41.8919 4.20835 41.979C3.9643 42.2007 3.64216 42.3164 3.31279 42.3007C3.17326 42.3111 3.03318 42.29 2.90296 42.2388C2.77274 42.1876 2.65576 42.1077 2.56069 42.0051C2.33266 41.6975 2.16185 41.3514 2.0564 40.9834L0.208747 35.4187C0.0176783 34.8963 -0.0435089 34.3353 0.0304876 33.7841C0.0699012 33.5845 0.161466 33.3989 0.29586 33.2462C0.430254 33.0935 0.602689 32.9791 0.795638 32.9146C0.974152 32.8349 1.16746 32.7937 1.36297 32.7937C1.55848 32.7937 1.75179 32.8349 1.93031 32.9146C2.31179 33.1271 2.62646 33.4417 2.83893 33.8232C3.55399 35.0989 4.45347 36.2621 5.50825 37.2751C6.36998 38.0954 7.3889 38.7328 8.50361 39.1488C9.54693 39.5297 10.6492 39.7239 11.7598 39.7227C13.3655 39.7227 14.5625 39.3966 15.3508 38.7445C15.9637 38.22 16.3695 37.4941 16.4954 36.6973C16.6213 35.9006 16.459 35.085 16.0377 34.3971C15.5542 33.7563 14.9069 33.2576 14.164 32.9537C12.8881 32.4014 11.5577 31.9846 10.1948 31.7104C8.17134 31.3256 6.21952 30.6305 4.40834 29.6497C3.11983 28.9579 2.05402 27.9146 1.33471 26.6413C0.685958 25.3708 0.363275 23.959 0.395683 22.5329C0.36781 21.0237 0.80824 19.5429 1.65642 18.2942C2.53328 17.0436 3.73617 16.0572 5.13436 15.4423C6.77987 14.7318 8.55935 14.3848 10.3513 14.425C11.3763 14.3955 12.4004 14.5081 13.3945 14.7598C14.0393 14.9399 14.6711 15.1635 15.2856 15.4293C15.7168 15.6396 16.1884 15.7539 16.6681 15.764C17.0508 15.7865 17.4284 15.6673 17.7288 15.4293L17.7625 15.4007C18.0114 15.1892 18.2523 14.9844 18.4853 14.7598C18.7283 14.5349 19.05 14.4147 19.3809 14.425C19.5133 14.4223 19.6449 14.4467 19.7675 14.4968C19.8902 14.5469 20.0012 14.6216 20.0938 14.7163C20.3349 15.0174 20.4857 15.3807 20.5286 15.764L21.898 21.0766C22.0376 21.611 22.076 22.167 22.011 22.7155C21.9754 22.9154 21.8863 23.1017 21.7531 23.2549C21.6198 23.408 21.4476 23.5221 21.2546 23.585C21.0783 23.6689 20.8839 23.7077 20.6888 23.6978C20.4938 23.688 20.3043 23.6298 20.1373 23.5285C19.7351 23.229 19.4004 22.8484 19.1548 22.4112C18.0216 20.4549 16.7173 19.0651 15.2421 18.242C13.9048 17.4532 12.3862 17.0234 10.8338 16.9943ZM90.7786 37.0534V1.83925C90.8028 1.35553 90.6375 0.881405 90.3177 0.517631C90.1312 0.338532 89.9089 0.200991 89.6653 0.114067C89.4218 0.0271432 89.1626 -0.00717934 88.9048 0.0133422C88.5182 0.0231205 88.1343 0.0800513 87.7615 0.182885C87.1533 0.342934 86.5552 0.538915 85.9703 0.769789L80.8534 2.66961C80.472 2.78598 80.1194 2.98153 79.8187 3.24347C79.7234 3.34685 79.6493 3.46803 79.6008 3.60007C79.5523 3.73211 79.5303 3.87242 79.5361 4.01296C79.5286 4.24812 79.6093 4.47761 79.7622 4.65638C79.9636 4.85116 80.2148 4.98655 80.4882 5.04765L81.9707 5.19111C82.1079 5.20701 82.2405 5.25021 82.3607 5.31816C82.4809 5.3861 82.5863 5.47742 82.6706 5.58673C82.8456 5.90199 82.9227 6.26216 82.8924 6.62141V37.0534C82.9302 37.503 82.8429 37.9544 82.6402 38.3576C82.4601 38.6299 82.196 38.8359 81.8881 38.9445L80.7969 39.2227C80.499 39.3182 80.2299 39.4872 80.0144 39.714C79.841 39.9219 79.7511 40.1869 79.7622 40.4574C79.7542 40.6217 79.7841 40.7855 79.8497 40.9364C79.9153 41.0872 80.0148 41.2208 80.1404 41.3269C80.4867 41.5688 80.9063 41.6825 81.3273 41.6486H92.3176C92.7438 41.6809 93.1684 41.5674 93.5218 41.3269C93.6509 41.223 93.7536 41.0901 93.8216 40.939C93.8896 40.7879 93.9209 40.6229 93.9131 40.4574C93.9201 40.1813 93.8257 39.9122 93.6479 39.701C93.4225 39.4676 93.1364 39.302 92.8219 39.2227L91.7872 38.9445C91.4723 38.8469 91.2035 38.6384 91.0307 38.3576C90.8355 37.9519 90.7487 37.5026 90.7786 37.0534ZM109.29 1.83914V37.0533C109.26 37.5025 109.347 37.9518 109.542 38.3575C109.715 38.6383 109.984 38.8468 110.298 38.9444L111.333 39.2226C111.648 39.3019 111.934 39.4675 112.159 39.7008C112.337 39.9121 112.431 40.1812 112.424 40.4573C112.432 40.6228 112.401 40.7878 112.333 40.9389C112.265 41.09 112.162 41.2229 112.033 41.3268C111.68 41.5673 111.255 41.6808 110.829 41.6485H99.8386C99.4176 41.6824 98.998 41.5687 98.6518 41.3268C98.5261 41.2207 98.4266 41.087 98.361 40.9362C98.2954 40.7854 98.2655 40.6215 98.2735 40.4573C98.2624 40.1868 98.3523 39.9218 98.5257 39.7139C98.7412 39.4871 99.0103 39.3181 99.3082 39.2226L100.399 38.9444C100.708 38.8347 100.973 38.629 101.156 38.3575C101.354 37.953 101.44 37.5024 101.404 37.0533V6.62131C101.434 6.26205 101.357 5.90188 101.182 5.58662C101.098 5.47731 100.992 5.38599 100.872 5.31805C100.752 5.25011 100.619 5.2069 100.482 5.191L98.9995 5.08232C98.7261 5.02122 98.4749 4.88582 98.2735 4.69105C98.1217 4.51185 98.0427 4.28229 98.0518 4.04764C98.0452 3.90737 98.0663 3.76717 98.1141 3.63511C98.1618 3.50305 98.2352 3.38173 98.33 3.27814C98.6307 3.0162 98.9833 2.82065 99.3647 2.70428L104.482 0.804456C105.067 0.573581 105.665 0.377614 106.273 0.217565C106.646 0.115027 107.03 0.0580882 107.416 0.0480089C107.674 0.0274874 107.933 0.0618232 108.177 0.148747C108.42 0.235672 108.643 0.373212 108.829 0.552311C109.14 0.90726 109.305 1.36727 109.29 1.83914ZM127.801 19.3255V1.83935C127.817 1.35143 127.641 0.876768 127.31 0.517733C127.133 0.341217 126.921 0.204811 126.687 0.117791C126.453 0.0307704 126.203 -0.00481257 125.954 0.0134437C125.533 0.0177859 125.114 0.0792028 124.71 0.196028C124.278 0.317756 123.699 0.509045 122.971 0.769891L117.854 2.66971C117.473 2.78609 117.12 2.98163 116.82 3.24357C116.725 3.34716 116.651 3.46847 116.604 3.60053C116.556 3.73259 116.535 3.87279 116.541 4.01306C116.532 4.24771 116.611 4.47728 116.763 4.65649C116.964 4.85126 117.216 4.98665 117.489 5.04775L118.972 5.15644C119.109 5.17234 119.241 5.21554 119.362 5.28348C119.482 5.35143 119.587 5.44274 119.672 5.55205C119.848 5.86676 119.927 6.22703 119.898 6.58674V37.0187C119.933 37.4682 119.846 37.919 119.645 38.3229C119.463 38.5944 119.197 38.8001 118.889 38.9098L117.798 39.1881C117.501 39.2859 117.232 39.4545 117.015 39.6793C116.842 39.8872 116.752 40.1522 116.763 40.4227C116.755 40.587 116.785 40.7509 116.851 40.9017C116.916 41.0525 117.016 41.1861 117.141 41.2922C117.488 41.5341 117.907 41.6478 118.328 41.6139H129.097C130.158 41.611 130.688 41.1908 130.688 40.3532C130.679 40.0955 130.591 39.8467 130.435 39.6412C130.28 39.4357 130.064 39.2835 129.818 39.2054L128.81 38.9272C128.499 38.8158 128.233 38.6049 128.053 38.3273C127.859 37.9321 127.772 37.4928 127.801 37.0535V21.8661L128.066 21.6375C128.928 20.86 129.911 20.2272 130.975 19.7638C131.822 19.3943 132.733 19.1949 133.657 19.1769C134.248 19.1485 134.839 19.2419 135.392 19.4513C135.946 19.6607 136.45 19.9816 136.874 20.3941C137.674 21.2028 138.074 22.4287 138.074 24.0721V36.9752C138.105 37.4367 138.02 37.8985 137.826 38.3186C137.643 38.6082 137.365 38.8249 137.039 38.9316L135.979 39.2098C135.733 39.2873 135.517 39.4393 135.361 39.645C135.205 39.8506 135.117 40.0996 135.109 40.3575C135.109 41.198 135.64 41.6183 136.7 41.6183H147.495C147.917 41.6521 148.338 41.5384 148.686 41.2966C148.811 41.1896 148.909 41.0557 148.974 40.905C149.038 40.7544 149.068 40.5909 149.06 40.4271C149.071 40.1566 148.981 39.8916 148.808 39.6837C148.585 39.4531 148.307 39.2839 147.999 39.1924L147.021 38.9142C146.69 38.8195 146.405 38.6059 146.221 38.3142C146.018 37.8924 145.926 37.4253 145.956 36.9578V22.92C145.956 20.326 145.22 18.261 143.748 16.7249C142.275 15.1888 140.328 14.4208 137.905 14.4208C136.167 14.4683 134.464 14.9145 132.927 15.725C131.431 16.4569 129.723 17.6571 127.801 19.3255ZM178.053 25.0198C178.081 25.4483 178.018 25.8778 177.868 26.2801C177.718 26.6825 177.485 27.0486 177.184 27.3544C176.485 27.9481 175.581 28.2446 174.666 28.1804H159.31C159.587 30.7466 160.399 32.7478 161.746 34.1842C163.441 35.9927 165.688 36.897 168.484 36.897C169.984 36.931 171.468 36.5934 172.806 35.9144C174.02 35.2858 175.033 34.3275 175.727 33.1495C175.966 32.8646 176.239 32.6105 176.54 32.393C176.721 32.2698 176.934 32.2019 177.153 32.1974C177.29 32.192 177.426 32.2275 177.543 32.2995C177.66 32.3715 177.753 32.4767 177.81 32.6017C177.958 32.9113 178.021 33.2551 177.992 33.5973C177.91 35.1851 177.329 36.7065 176.331 37.9447C175.212 39.3436 173.759 40.4393 172.106 41.1314C170.166 41.9562 168.074 42.3621 165.967 42.3225C163.467 42.3691 160.994 41.7971 158.768 40.6575C156.718 39.5939 155.009 37.9761 153.834 35.9883C152.607 33.8524 151.989 31.4211 152.047 28.9586C151.993 26.3445 152.578 23.7567 153.751 21.4201C154.858 19.2843 156.552 17.5091 158.633 16.3032C160.942 15.0163 163.555 14.375 166.198 14.4469C168.41 14.3849 170.605 14.8498 172.601 15.8033C174.288 16.6298 175.696 17.9308 176.653 19.5464C177.603 21.2118 178.087 23.1027 178.053 25.0198ZM159.955 21.3332C159.427 22.8339 159.172 24.4166 159.201 26.0067H168.654C169.623 26.0067 170.106 25.5719 170.106 24.7025C170.106 22.2621 169.66 20.4115 168.767 19.1508C168.374 18.5573 167.837 18.0729 167.206 17.743C166.575 17.4131 165.87 17.2483 165.159 17.264C164.035 17.2485 162.939 17.6182 162.055 18.3117C161.091 19.1078 160.365 20.1529 159.955 21.3332ZM181.701 17.4727L183.005 17.8335C183.369 17.9543 183.695 18.1669 183.952 18.4509C184.172 18.7707 184.276 19.1554 184.248 19.5421V34.9189C184.248 37.3448 184.931 39.1881 186.291 40.388C187.652 41.5878 189.539 42.1922 191.943 42.1922C193.374 42.2098 194.791 41.913 196.095 41.3227C197.222 40.8275 198.207 40.0578 198.96 39.0837C199.625 38.2333 199.989 37.1857 199.995 36.1058C200.024 35.7742 199.935 35.4429 199.742 35.1711C199.661 35.0742 199.558 34.9972 199.442 34.946C199.326 34.8947 199.2 34.8706 199.073 34.8754C198.91 34.8756 198.75 34.9153 198.606 34.991C198.462 35.0667 198.339 35.1763 198.247 35.3102C198.025 35.5928 197.816 35.9101 197.59 36.2623C197.353 36.6324 197.044 36.9516 196.682 37.2013C196.2 37.498 195.638 37.6392 195.073 37.6056C194.654 37.6265 194.235 37.5429 193.856 37.3623C193.477 37.1817 193.148 36.9098 192.899 36.5709C192.386 35.8811 192.13 34.8841 192.13 33.5799V17.8901H196.599C197.686 17.8901 198.495 17.7249 198.99 17.3858C199.211 17.2577 199.395 17.0748 199.525 16.8547C199.654 16.6346 199.725 16.3847 199.729 16.1294C199.736 15.9778 199.705 15.827 199.639 15.6904C199.573 15.5539 199.474 15.4358 199.351 15.3468C199.04 15.1448 198.673 15.0473 198.303 15.0686H192.13V9.66909C192.154 9.28292 192.04 8.90075 191.808 8.59093C191.69 8.46235 191.544 8.36201 191.381 8.29731C191.219 8.2326 191.044 8.20518 190.869 8.21705C190.485 8.22522 190.112 8.34616 189.795 8.56484C189.362 8.86169 188.979 9.22564 188.661 9.64301L185.67 13.8904C185.416 14.2626 185.087 14.578 184.705 14.8164C184.354 14.9925 183.966 15.0791 183.574 15.0686H181.896C181.527 15.0493 181.162 15.1567 180.861 15.3729C180.732 15.4766 180.629 15.6094 180.561 15.7605C180.493 15.9117 180.462 16.0768 180.47 16.2424C180.467 16.3737 180.49 16.5043 180.538 16.6267C180.586 16.7491 180.657 16.8608 180.748 16.9554C181.022 17.1985 181.348 17.3755 181.701 17.4727Z" fill="#37CFD1"/>
<path d="M73.8932 16.3814V37.0447C73.8602 37.4941 73.9472 37.9442 74.1453 38.3489C74.3129 38.6325 74.5816 38.8422 74.8974 38.9358L75.9321 39.2184C76.2471 39.2942 76.5337 39.4586 76.7581 39.6923C76.9378 39.9025 77.0324 40.1723 77.0233 40.4487C77.0315 40.6143 77.0003 40.7794 76.9323 40.9305C76.8643 41.0817 76.7614 41.2145 76.6321 41.3182C76.2803 41.5588 75.8571 41.6722 75.4322 41.6399H64.4419C64.0195 41.6745 63.5982 41.5607 63.2507 41.3182C63.1248 41.2123 63.0251 41.0787 62.9595 40.9279C62.8939 40.777 62.8641 40.613 62.8725 40.4487C62.8634 40.1785 62.9531 39.9142 63.1246 39.7053C63.341 39.4805 63.6099 39.3132 63.9071 39.2184L64.9983 38.9358C65.3068 38.8261 65.5719 38.6204 65.7548 38.3489C65.9575 37.9457 66.0447 37.4943 66.007 37.0447V21.1331C66.0363 20.7692 65.9576 20.4048 65.7809 20.0854C65.6982 19.9746 65.5939 19.8817 65.4744 19.8122C65.3548 19.7427 65.2225 19.6981 65.0853 19.6811L63.6028 19.5681C63.3271 19.5259 63.0716 19.3981 62.8725 19.2029C62.7201 19.0111 62.6456 18.7689 62.6638 18.5247C62.6564 18.3863 62.6773 18.2479 62.7252 18.1178C62.773 17.9878 62.8468 17.8688 62.942 17.7682C63.246 17.5219 63.5942 17.336 63.968 17.2204L69.0849 15.3163C69.6715 15.09 70.2693 14.8941 70.8761 14.7294C71.251 14.6301 71.6361 14.5746 72.0238 14.5642C72.2816 14.5431 72.5409 14.5771 72.7846 14.6641C73.0282 14.7511 73.2505 14.8889 73.4367 15.0685C73.7516 15.4314 73.915 15.9014 73.8932 16.3814ZM69.3327 10.2646C68.0267 10.3313 66.7405 9.92368 65.7113 9.11684C65.2679 8.74681 64.9151 8.28015 64.68 7.75265C64.4449 7.22514 64.3337 6.65079 64.3549 6.07365C64.3345 5.50228 64.4462 4.93392 64.6815 4.41285C64.9167 3.89177 65.2692 3.43208 65.7113 3.06959C66.777 2.33103 68.0427 1.9353 69.3392 1.9353C70.6358 1.9353 71.9015 2.33103 72.9672 3.06959C73.4138 3.4292 73.7704 3.88792 74.0089 4.40936C74.2474 4.9308 74.361 5.50062 74.341 6.07365C74.3621 6.65248 74.2491 7.22836 74.0108 7.75628C73.7725 8.2842 73.4153 8.74985 72.9672 9.11684C71.9325 9.92283 70.6426 10.3302 69.3327 10.2646Z" fill="#6852FB"/>
</svg>
