<svg width="187" height="40" viewBox="0 0 187 40" fill="none" xmlns="http://www.w3.org/2000/svg">
<g clip-path="url(#clip0_1320_1130)">
<path d="M10.0608 15.6731C9.05064 15.613 8.05472 15.933 7.27056 16.5694C6.94875 16.8493 6.69274 17.1962 6.52055 17.5854C6.34835 17.9747 6.26416 18.3968 6.27404 18.822C6.27028 19.3552 6.39906 19.8811 6.64881 20.3528C6.99663 20.8998 7.49838 21.3328 8.09171 21.5981C9.08511 22.0694 10.1316 22.4209 11.2088 22.6451C13.3724 23.0051 15.4671 23.6954 17.419 24.6915C18.6932 25.3328 19.7537 26.3272 20.4724 27.5549C21.0476 28.6737 21.3403 29.9151 21.3254 31.1718C21.3648 32.2571 21.1548 33.3371 20.7113 34.3295C20.2678 35.3219 19.6026 36.2005 18.7664 36.8985C17.0656 38.3262 14.589 39.0428 11.3364 39.0481C10.3839 39.0706 9.43243 38.9692 8.50627 38.7466C7.89777 38.5878 7.29889 38.3944 6.71255 38.1676C6.32062 37.9928 5.89813 37.8958 5.46886 37.8821C5.14107 37.8639 4.81798 37.9654 4.56012 38.1676C4.3369 38.358 4.12161 38.5484 3.91434 38.7466C3.69692 38.9445 3.41176 39.0524 3.11713 39.0481C2.98673 39.0573 2.85595 39.0371 2.73448 38.989C2.61302 38.9409 2.504 38.8662 2.41558 38.7704C2.19738 38.4894 2.03012 38.1727 1.92131 37.8345L0.207292 32.6947C0.0285963 32.2107 -0.0288351 31.6907 0.0399095 31.1797C0.0778313 30.996 0.164285 30.8256 0.2904 30.6862C0.416515 30.5468 0.577749 30.4433 0.757417 30.3865C0.921367 30.3122 1.09936 30.2738 1.27952 30.2738C1.45968 30.2738 1.63776 30.3122 1.80171 30.3865C2.15647 30.5832 2.44915 30.8743 2.6468 31.2273C3.31474 32.3985 4.14986 33.4672 5.12611 34.4C5.92578 35.1546 6.86902 35.7425 7.90038 36.1291C8.87056 36.4834 9.89635 36.6634 10.9298 36.6606C12.112 36.7485 13.2885 36.4292 14.2621 35.7563C14.8275 35.2665 15.2014 34.594 15.3181 33.8572C15.4347 33.1203 15.2867 32.3661 14.8999 31.727C14.452 31.135 13.8514 30.6746 13.1619 30.3945C11.9752 29.8842 10.7381 29.4988 9.47086 29.2443C7.59825 28.9009 5.79086 28.2694 4.11364 27.3724C2.91755 26.7343 1.92795 25.7716 1.25966 24.5963C0.658298 23.4238 0.359601 22.1209 0.390635 20.805C0.364617 19.4133 0.771173 18.0476 1.55463 16.8945C2.3731 15.7374 3.4955 14.8265 4.79923 14.2612C6.3218 13.602 7.97028 13.2799 9.63036 13.3174C10.5835 13.2914 11.5357 13.3955 12.4604 13.6267C13.0561 13.7921 13.6396 13.9989 14.2063 14.2454C14.6102 14.4375 15.0503 14.5429 15.4978 14.5547C15.8518 14.575 16.2008 14.4648 16.4784 14.2454C16.7255 14.0391 16.9567 13.8329 17.1799 13.6267C17.3974 13.4279 17.6818 13.3176 17.9771 13.3174C18.1003 13.3135 18.2228 13.3356 18.3368 13.382C18.4508 13.4285 18.5537 13.4983 18.6388 13.587C18.8658 13.8635 19.007 14.1997 19.0454 14.5547L20.3129 19.4645C20.4472 19.9551 20.4824 20.4673 20.4165 20.9715C20.3855 21.1544 20.3044 21.3253 20.182 21.4652C20.0596 21.6052 19.9008 21.7088 19.723 21.7647C19.5588 21.8443 19.3772 21.8816 19.1947 21.8733C19.0123 21.8649 18.8349 21.8113 18.6787 21.7171C18.3053 21.4417 17.9955 21.0902 17.7698 20.686C16.9352 19.1016 15.6844 17.7722 14.1505 16.8391C12.9125 16.1028 11.5028 15.7008 10.0608 15.6731Z" fill="#36CFD1"/>
<path d="M26.6985 38.3981C26.3229 38.4388 25.9459 38.3337 25.6463 38.1047C25.5451 37.9996 25.4668 37.8749 25.4161 37.7385C25.3654 37.602 25.3433 37.4567 25.3513 37.3115C25.3405 37.0634 25.423 36.8202 25.5825 36.6293C25.7822 36.4202 26.0317 36.2647 26.3079 36.1772L27.3204 35.9234C27.6078 35.8217 27.8541 35.6296 28.0219 35.3761C28.2076 35.0083 28.2876 34.5966 28.2531 34.1864V6.10781C28.2834 5.77692 28.2111 5.44474 28.0459 5.15599C27.9678 5.05574 27.8705 4.97191 27.7597 4.90928C27.6488 4.84666 27.5266 4.80651 27.4001 4.79116L26.0209 4.68804C25.7687 4.63338 25.5368 4.50976 25.3513 4.3311C25.2081 4.16658 25.1339 3.95362 25.144 3.73622C25.137 3.60636 25.1559 3.47639 25.1997 3.35386C25.2435 3.23133 25.3112 3.11864 25.3991 3.02234C25.6805 2.78301 26.0091 2.60473 26.3638 2.49886L31.1071 0.737978C31.7874 0.500024 32.3189 0.325546 32.7015 0.214501C33.0764 0.101337 33.4658 0.0425402 33.8576 0.039977C34.0889 0.0246367 34.3207 0.0584398 34.5379 0.139124C34.7551 0.219809 34.9525 0.34555 35.1171 0.507974C35.4072 0.844746 35.5582 1.27838 35.5397 1.72151V34.2418C35.5112 34.65 35.5937 35.0583 35.7788 35.4237C35.941 35.6808 36.1852 35.8763 36.4723 35.9789L37.4131 36.2327C37.6394 36.3073 37.8372 36.4493 37.9797 36.6394C38.1223 36.8295 38.2028 37.0585 38.2103 37.2956C38.2103 38.0888 37.716 38.4537 36.7275 38.4537L26.6985 38.3981ZM33.3393 27.1429L44.0378 18.5131C44.6198 18.0531 44.8909 17.6168 44.8351 17.1964C44.7792 16.776 44.4205 16.4747 43.7509 16.2684L42.842 16.0384C42.5803 15.9737 42.3424 15.8362 42.1564 15.6418C42.0174 15.4601 41.9469 15.2355 41.9571 15.0073C41.9543 14.8553 41.9867 14.7048 42.0516 14.5672C42.1166 14.4297 42.2124 14.3089 42.3318 14.2141C42.6304 14.0013 42.9937 13.8977 43.3602 13.9206H52.4405C52.8055 13.9004 53.1671 14.0008 53.4689 14.2062C53.5933 14.2965 53.6927 14.4164 53.7582 14.555C53.8237 14.6937 53.8531 14.8465 53.8436 14.9994C53.8465 15.2937 53.7351 15.5779 53.5326 15.7925C53.1541 16.0847 52.7068 16.2757 52.2332 16.3477C51.4215 16.5309 50.6367 16.8161 49.8974 17.1964C48.9939 17.7201 48.1352 18.317 47.3303 18.9811L34.1764 29.3876L33.3393 27.1429ZM42.3956 20.9958L51.6672 34.2418C51.9688 34.6909 52.334 35.0943 52.7514 35.4395C53.156 35.7194 53.6027 35.9336 54.0748 36.0741C54.3751 36.215 54.6456 36.4115 54.872 36.6531C55.0496 36.8491 55.1489 37.1031 55.151 37.367C55.1553 37.5124 55.1234 37.6566 55.058 37.7867C54.9926 37.9168 54.8958 38.0287 54.7763 38.1125C54.4789 38.3207 54.1188 38.4215 53.7559 38.3981H43.1929C42.8537 38.4182 42.519 38.3138 42.2521 38.1047C42.1409 38.0052 42.0532 37.8825 41.9953 37.7454C41.9374 37.6083 41.9108 37.4601 41.9173 37.3115C41.9104 37.1107 41.9691 36.913 42.0847 36.7483C42.2469 36.5568 42.4594 36.4139 42.6986 36.3358L43.4958 36.0979C43.9821 35.9631 44.2372 35.7489 44.293 35.4713C44.2173 34.9319 43.9876 34.4253 43.6313 34.0118L37.4768 25.2869L42.3956 20.9958Z" fill="#36CFD1"/>
<path d="M84.2572 1.68152V34.2018C84.2288 34.6125 84.3113 35.0233 84.4963 35.3916C84.6516 35.653 84.8987 35.8479 85.1899 35.9389L86.1545 36.1927C86.4557 36.2621 86.7316 36.4131 86.9518 36.629C87.1149 36.825 87.2025 37.0725 87.1988 37.327C87.2051 37.4786 87.1752 37.6296 87.1114 37.7675C87.0477 37.9053 86.952 38.0262 86.8322 38.1201C86.5049 38.3422 86.1109 38.4458 85.716 38.4136H75.5197C75.1297 38.4474 74.7402 38.3435 74.4195 38.1201C74.3031 38.0242 74.2109 37.9025 74.15 37.7648C74.0891 37.6271 74.0613 37.4772 74.0688 37.327C74.058 37.0789 74.1405 36.8358 74.3 36.6448C74.4984 36.4341 74.7483 36.2783 75.0254 36.1927L76.0379 35.9389C76.3253 35.8372 76.5716 35.6451 76.7395 35.3916C76.9209 35.0223 77.0007 34.6118 76.9707 34.2018V6.10747C77.0009 5.77658 76.9286 5.4444 76.7634 5.15565C76.6853 5.0554 76.588 4.97157 76.4772 4.90894C76.3664 4.84631 76.2441 4.80617 76.1176 4.79082L74.7384 4.6877C74.4862 4.63304 74.2543 4.50942 74.0688 4.33076C73.9256 4.16624 73.8514 3.95328 73.8615 3.73588C73.8545 3.60601 73.8734 3.47605 73.9172 3.35352C73.961 3.23099 74.0289 3.11829 74.1167 3.022C74.3982 2.78267 74.7267 2.60439 75.0813 2.49852L79.8645 0.737638C80.4105 0.530168 80.9666 0.350159 81.5307 0.198282C81.8765 0.103589 82.2324 0.050324 82.5909 0.0396367C82.831 0.0208728 83.0723 0.0528985 83.299 0.133555C83.5257 0.214212 83.7327 0.341695 83.9064 0.507633C84.1613 0.844248 84.2859 1.26099 84.2572 1.68152Z" fill="#36CFD1"/>
<path d="M101.437 1.68152V34.2018C101.409 34.6125 101.491 35.0233 101.676 35.3916C101.832 35.653 102.079 35.8479 102.37 35.9389L103.334 36.1927C103.636 36.2621 103.911 36.4131 104.132 36.629C104.298 36.8232 104.386 37.0719 104.379 37.327C104.385 37.4786 104.355 37.6296 104.291 37.7675C104.228 37.9053 104.132 38.0262 104.012 38.1201C103.685 38.3422 103.291 38.4458 102.896 38.4136H92.6996C92.3097 38.4474 91.9202 38.3435 91.5995 38.1201C91.4831 38.0242 91.3908 37.9025 91.3299 37.7648C91.269 37.6271 91.2412 37.4772 91.2488 37.327C91.238 37.0789 91.3203 36.8358 91.4799 36.6448C91.6782 36.4341 91.9283 36.2783 92.2054 36.1927L93.2178 35.9389C93.5053 35.8372 93.7516 35.6451 93.9194 35.3916C94.1008 35.0223 94.1806 34.6118 94.1505 34.2018V6.10747C94.1808 5.77658 94.1085 5.4444 93.9433 5.15565C93.8653 5.0554 93.768 4.97157 93.6571 4.90894C93.5463 4.84631 93.4241 4.80617 93.2975 4.79082L91.9184 4.6877C91.6661 4.63304 91.4342 4.50942 91.2488 4.33076C91.1056 4.16624 91.0313 3.95328 91.0415 3.73588C91.0344 3.60601 91.0533 3.47605 91.0971 3.35352C91.1409 3.23099 91.2087 3.11829 91.2965 3.022C91.578 2.78267 91.9065 2.60439 92.2611 2.49852L97.0444 0.737638C97.5903 0.530168 98.1465 0.350159 98.7106 0.198282C99.0565 0.103589 99.4124 0.050324 99.7709 0.0396367C100.011 0.0208728 100.252 0.0528985 100.479 0.133555C100.706 0.214212 100.913 0.341695 101.086 0.507633C101.341 0.844248 101.466 1.26099 101.437 1.68152Z" fill="#36CFD1"/>
<path d="M118.617 1.68186V34.2022C118.588 34.6104 118.671 35.0186 118.856 35.384C119.018 35.6411 119.262 35.8366 119.55 35.9393L120.49 36.1931C120.717 36.2677 120.914 36.4096 121.057 36.5997C121.199 36.7898 121.28 37.0189 121.287 37.256C121.287 38.0491 120.793 38.414 119.805 38.414H109.816C109.426 38.4478 109.036 38.3439 108.715 38.1205C108.599 38.0245 108.507 37.9028 108.446 37.7652C108.385 37.6275 108.357 37.4776 108.365 37.3273C108.354 37.0793 108.436 36.8361 108.596 36.6452C108.796 36.4361 109.045 36.2806 109.321 36.1931L110.334 35.9393C110.621 35.8376 110.868 35.6454 111.035 35.392C111.221 35.0241 111.301 34.6124 111.267 34.2022V6.10781C111.297 5.77692 111.224 5.44474 111.059 5.15599C110.981 5.05574 110.884 4.97191 110.773 4.90928C110.662 4.84666 110.54 4.80651 110.414 4.79116L109.034 4.68804C108.782 4.63338 108.55 4.50976 108.365 4.3311C108.222 4.16658 108.147 3.95362 108.157 3.73622C108.15 3.60636 108.169 3.47639 108.213 3.35386C108.257 3.23133 108.325 3.11864 108.412 3.02234C108.694 2.78301 109.023 2.60473 109.377 2.49886L114.16 0.737978C114.841 0.500024 115.372 0.325546 115.755 0.214501C116.13 0.101337 116.519 0.0425402 116.911 0.039977C117.142 0.0246367 117.374 0.0584398 117.591 0.139124C117.808 0.219809 118.006 0.34555 118.17 0.507974C118.46 0.831039 118.619 1.24915 118.617 1.68186ZM117.82 20.8689L116.632 19.6236L117.644 18.7273C119.354 17.056 121.291 15.6329 123.4 14.4997C124.829 13.7543 126.411 13.3446 128.024 13.302C129.027 13.2593 130.027 13.4264 130.961 13.7926C131.895 14.1588 132.741 14.7158 133.445 15.4277C134.147 16.2003 134.69 17.1031 135.041 18.0843C135.393 19.0655 135.546 20.1061 135.494 21.1465V34.115C135.468 34.5468 135.553 34.9781 135.741 35.3682C135.915 35.6338 136.177 35.8303 136.482 35.9234L137.391 36.1772C137.677 36.259 137.935 36.4151 138.14 36.6293C138.302 36.8195 138.387 37.0625 138.38 37.3115C138.385 37.4615 138.357 37.6108 138.296 37.7482C138.235 37.8856 138.144 38.0075 138.029 38.1047C137.705 38.3268 137.313 38.4305 136.921 38.3981H126.908C125.919 38.3981 125.425 38.0095 125.425 37.2401C125.432 37.003 125.513 36.7739 125.656 36.5839C125.798 36.3938 125.996 36.2518 126.222 36.1772L127.211 35.9234C127.512 35.8236 127.769 35.6214 127.936 35.3523C128.119 34.9665 128.198 34.5403 128.167 34.115V22.2173C128.225 21.6043 128.159 20.9861 127.972 20.399C127.786 19.8119 127.484 19.2678 127.083 18.7987C126.691 18.4168 126.224 18.1197 125.711 17.9259C125.197 17.7321 124.65 17.6458 124.102 17.6724C123.242 17.6895 122.394 17.8755 121.606 18.2197C120.62 18.6467 119.71 19.2307 118.912 19.9488L117.82 20.8689Z" fill="#36CFD1"/>
<path d="M165.772 23.0893C165.799 23.4833 165.742 23.8784 165.604 24.2489C165.467 24.6194 165.252 24.9567 164.975 25.2388C164.658 25.5188 164.288 25.7332 163.887 25.8694C163.486 26.0056 163.062 26.0609 162.639 26.032H146.424V24.0174H157.058C157.959 24.0174 158.414 23.6128 158.414 22.8038C158.414 20.5432 157.999 18.8379 157.162 17.6719C156.798 17.1256 156.3 16.6798 155.716 16.376C155.132 16.0723 154.481 15.9206 153.822 15.9349C152.776 15.9162 151.757 16.2581 150.936 16.9025C150.043 17.6359 149.371 18.5989 148.991 19.6866C148.49 21.0911 148.252 22.5751 148.289 24.0649C148.289 27.3857 149.086 29.8816 150.681 31.5526C151.484 32.3895 152.458 33.046 153.538 33.4783C154.617 33.9105 155.776 34.1085 156.939 34.059C158.322 34.0857 159.69 33.7753 160.925 33.1547C162.052 32.5748 162.992 31.6894 163.635 30.6007C163.855 30.3383 164.107 30.1039 164.385 29.9027C164.555 29.7892 164.754 29.7259 164.959 29.7203C165.086 29.7159 165.213 29.7489 165.322 29.8151C165.431 29.8814 165.518 29.978 165.573 30.0931C165.707 30.3803 165.765 30.6973 165.74 31.0132C165.663 32.4798 165.121 33.8846 164.193 35.0267C163.156 36.3175 161.81 37.3292 160.279 37.9693C158.3 38.7649 156.175 39.1372 154.042 39.0621C151.909 38.9869 149.816 38.466 147.898 37.5331C145.996 36.5484 144.408 35.0538 143.314 33.2182C142.175 31.2446 141.601 28.9976 141.656 26.7221C141.61 24.3087 142.158 21.9208 143.251 19.7659C144.274 17.7827 145.845 16.1316 147.779 15.0068C149.923 13.8196 152.349 13.2279 154.802 13.2936C156.854 13.2367 158.89 13.6663 160.741 14.5468C162.312 15.3071 163.623 16.5096 164.512 18.005C165.383 19.5566 165.818 21.3128 165.772 23.0893Z" fill="#36CFD1"/>
<path d="M170.93 16.4187L169.734 16.0856C169.408 15.9912 169.107 15.8289 168.849 15.6097C168.765 15.5223 168.699 15.4191 168.655 15.306C168.611 15.193 168.59 15.0725 168.594 14.9514C168.586 14.8003 168.614 14.6495 168.677 14.5116C168.739 14.3736 168.834 14.2525 168.953 14.1582C169.232 13.957 169.572 13.8562 169.917 13.8726H171.512C171.876 13.8826 172.237 13.8036 172.564 13.6426C172.917 13.4207 173.221 13.1291 173.457 12.7859L176.231 8.82006C176.529 8.43831 176.884 8.10398 177.283 7.82858C177.58 7.62656 177.929 7.5137 178.288 7.5034C178.45 7.49378 178.612 7.52011 178.762 7.58047C178.912 7.64084 179.047 7.73372 179.157 7.8524C179.372 8.13699 179.476 8.48888 179.452 8.84388V30.9259C179.387 31.8988 179.639 32.8665 180.169 33.6862C180.401 33.9964 180.705 34.2459 181.055 34.4131C181.405 34.5803 181.79 34.6602 182.178 34.6459C182.703 34.6774 183.224 34.5443 183.669 34.2652C184.008 34.0391 184.296 33.7445 184.514 33.4007C184.721 33.0754 184.921 32.782 185.12 32.5282C185.209 32.4015 185.329 32.2994 185.468 32.2315C185.608 32.1635 185.762 32.1318 185.917 32.1395C186.036 32.135 186.154 32.1569 186.263 32.2036C186.372 32.2502 186.469 32.3204 186.547 32.4092C186.721 32.6625 186.803 32.9677 186.778 33.2738C186.773 34.2724 186.434 35.2409 185.814 36.0261C185.116 36.9234 184.203 37.6324 183.159 38.0884C181.947 38.6308 180.629 38.9016 179.3 38.8815C177.407 38.9972 175.538 38.4029 174.063 37.2158C172.798 36.1054 172.165 34.4239 172.165 32.1712V18.0051C172.192 17.6485 172.096 17.2935 171.894 16.9977C171.634 16.7185 171.299 16.5179 170.93 16.4187ZM176.51 16.4742V13.8647H185.12C185.463 13.8461 185.803 13.9348 186.093 14.1185C186.207 14.1997 186.3 14.3085 186.361 14.4347C186.422 14.5608 186.451 14.7003 186.443 14.8403C186.441 15.0771 186.376 15.3092 186.256 15.5136C186.136 15.7181 185.964 15.8878 185.758 16.0063C185.079 16.3697 184.31 16.5321 183.542 16.4742H176.51Z" fill="#36CFD1"/>
<path d="M65.9292 30.8309C65.5601 31.6407 65.4011 32.5298 65.4668 33.4167C65.5864 33.8926 65.8336 34.1385 66.2162 34.1385C66.4561 34.1332 66.6913 34.0706 66.9018 33.956C67.2148 33.7844 67.5065 33.5768 67.7708 33.3374C68.0373 33.0774 68.3587 32.8796 68.7115 32.7583C68.9479 32.6964 69.1992 32.7277 69.413 32.8456C69.5536 32.9254 69.6705 33.0409 69.7517 33.1802C69.8329 33.3195 69.8756 33.4777 69.8754 33.6388C69.8538 34.1772 69.6947 34.7013 69.413 35.1617C68.6277 36.6314 67.4316 37.8435 65.9691 38.6517C64.341 39.5557 62.4997 40.0102 60.6358 39.9683C59.4383 40.0623 58.2454 39.7369 57.2636 39.0483C56.8965 38.7274 56.6048 38.3302 56.4092 37.8847C56.2135 37.4392 56.1187 36.9564 56.1315 36.4704C56.1589 35.1119 56.4288 33.769 56.9287 32.5045L60.2052 23.6526C60.6019 22.8512 60.7701 21.9568 60.6915 21.0669C60.556 20.583 60.2929 20.3451 59.8943 20.3451C59.6536 20.3491 59.4168 20.406 59.2008 20.5116C58.8851 20.6854 58.5931 20.8987 58.3318 21.1462C58.0629 21.3935 57.7452 21.5825 57.399 21.7014C57.165 21.7638 56.9164 21.7413 56.6975 21.638C56.5555 21.5604 56.438 21.4452 56.3578 21.3052C56.2776 21.1652 56.2379 21.0059 56.2431 20.8448C56.2741 20.309 56.4296 19.7876 56.6975 19.3219C57.4688 17.8646 58.6449 16.6587 60.0856 15.8478C61.6831 14.9382 63.4991 14.4775 65.3393 14.5152C66.476 14.4349 67.6048 14.755 68.5282 15.4194C68.9018 15.749 69.2035 16.1513 69.4147 16.6016C69.6259 17.0518 69.7419 17.5403 69.7558 18.0369C69.8029 19.4818 69.5505 20.9209 69.0144 22.2646L65.9292 30.8309ZM67.1251 11.1601C65.7905 11.2533 64.4697 10.8426 63.426 10.0099C63.0246 9.66325 62.7077 9.23035 62.4992 8.74393C62.2906 8.2575 62.1959 7.73029 62.2222 7.20211C62.2428 6.29218 62.5464 5.41098 63.0911 4.67981C63.7089 3.83987 64.5322 3.17093 65.4828 2.73651C66.6066 2.21295 67.8377 1.95765 69.0782 1.99092C70.7762 1.99092 72.004 2.38751 72.7772 3.18069C73.1469 3.54735 73.4341 3.98803 73.6196 4.47347C73.8052 4.95892 73.8849 5.47804 73.8535 5.99646C73.8439 6.94488 73.5405 7.86728 72.9845 8.63776C72.385 9.44953 71.5786 10.0875 70.6487 10.4859C69.5359 10.9583 68.3345 11.1882 67.1251 11.1601Z" fill="#6852FB"/>
</g>
<defs>
<clipPath id="clip0_1320_1130">
<rect width="186.667" height="40" fill="white"/>
</clipPath>
</defs>
</svg>
